G04 #@! TF.FileFunction,Legend,Bot*
%FSLAX46Y46*%
G04 Gerber Fmt 4.6, Leading zero omitted, Abs format (unit mm)*
G04 Created by KiCad (PCBNEW 4.0.4-stable) date 12/02/17 16:31:00*
%MOMM*%
%LPD*%
G01*
G04 APERTURE LIST*
%ADD10C,0.100000*%
%ADD11C,0.127000*%
%ADD12C,0.254000*%
%ADD13C,0.300000*%
%ADD14C,0.500000*%
%ADD15C,0.010000*%
G04 APERTURE END LIST*
D10*
D11*
X152182285Y-90895714D02*
X152182285Y-91512571D01*
X152146000Y-91585143D01*
X152109714Y-91621429D01*
X152037143Y-91657714D01*
X151892000Y-91657714D01*
X151819428Y-91621429D01*
X151783143Y-91585143D01*
X151746857Y-91512571D01*
X151746857Y-90895714D01*
X151420285Y-91621429D02*
X151311428Y-91657714D01*
X151129999Y-91657714D01*
X151057428Y-91621429D01*
X151021142Y-91585143D01*
X150984857Y-91512571D01*
X150984857Y-91440000D01*
X151021142Y-91367429D01*
X151057428Y-91331143D01*
X151129999Y-91294857D01*
X151275142Y-91258571D01*
X151347714Y-91222286D01*
X151383999Y-91186000D01*
X151420285Y-91113429D01*
X151420285Y-91040857D01*
X151383999Y-90968286D01*
X151347714Y-90932000D01*
X151275142Y-90895714D01*
X151093714Y-90895714D01*
X150984857Y-90932000D01*
X150658285Y-91258571D02*
X150404285Y-91258571D01*
X150295428Y-91657714D02*
X150658285Y-91657714D01*
X150658285Y-90895714D01*
X150295428Y-90895714D01*
X149424571Y-90968286D02*
X149388285Y-90932000D01*
X149315714Y-90895714D01*
X149134285Y-90895714D01*
X149061714Y-90932000D01*
X149025428Y-90968286D01*
X148989143Y-91040857D01*
X148989143Y-91113429D01*
X149025428Y-91222286D01*
X149460857Y-91657714D01*
X148989143Y-91657714D01*
X148662571Y-91367429D02*
X148082000Y-91367429D01*
X147356285Y-90895714D02*
X147719142Y-90895714D01*
X147755428Y-91258571D01*
X147719142Y-91222286D01*
X147646571Y-91186000D01*
X147465142Y-91186000D01*
X147392571Y-91222286D01*
X147356285Y-91258571D01*
X147320000Y-91331143D01*
X147320000Y-91512571D01*
X147356285Y-91585143D01*
X147392571Y-91621429D01*
X147465142Y-91657714D01*
X147646571Y-91657714D01*
X147719142Y-91621429D01*
X147755428Y-91585143D01*
X146666857Y-90895714D02*
X146812000Y-90895714D01*
X146884571Y-90932000D01*
X146920857Y-90968286D01*
X146993428Y-91077143D01*
X147029714Y-91222286D01*
X147029714Y-91512571D01*
X146993428Y-91585143D01*
X146957143Y-91621429D01*
X146884571Y-91657714D01*
X146739428Y-91657714D01*
X146666857Y-91621429D01*
X146630571Y-91585143D01*
X146594286Y-91512571D01*
X146594286Y-91331143D01*
X146630571Y-91258571D01*
X146666857Y-91222286D01*
X146739428Y-91186000D01*
X146884571Y-91186000D01*
X146957143Y-91222286D01*
X146993428Y-91258571D01*
X147029714Y-91331143D01*
X145542001Y-90895714D02*
X145396858Y-90895714D01*
X145324286Y-90932000D01*
X145251715Y-91004571D01*
X145215429Y-91149714D01*
X145215429Y-91403714D01*
X145251715Y-91548857D01*
X145324286Y-91621429D01*
X145396858Y-91657714D01*
X145542001Y-91657714D01*
X145614572Y-91621429D01*
X145687143Y-91548857D01*
X145723429Y-91403714D01*
X145723429Y-91149714D01*
X145687143Y-91004571D01*
X145614572Y-90932000D01*
X145542001Y-90895714D01*
X144453429Y-91657714D02*
X144707429Y-91294857D01*
X144888857Y-91657714D02*
X144888857Y-90895714D01*
X144598572Y-90895714D01*
X144526000Y-90932000D01*
X144489715Y-90968286D01*
X144453429Y-91040857D01*
X144453429Y-91149714D01*
X144489715Y-91222286D01*
X144526000Y-91258571D01*
X144598572Y-91294857D01*
X144888857Y-91294857D01*
X151510999Y-92927714D02*
X151510999Y-92165714D01*
X151256999Y-92710000D01*
X151002999Y-92165714D01*
X151002999Y-92927714D01*
X150676428Y-92238286D02*
X150640142Y-92202000D01*
X150567571Y-92165714D01*
X150386142Y-92165714D01*
X150313571Y-92202000D01*
X150277285Y-92238286D01*
X150241000Y-92310857D01*
X150241000Y-92383429D01*
X150277285Y-92492286D01*
X150712714Y-92927714D01*
X150241000Y-92927714D01*
X149370143Y-92891429D02*
X149261286Y-92927714D01*
X149079857Y-92927714D01*
X149007286Y-92891429D01*
X148971000Y-92855143D01*
X148934715Y-92782571D01*
X148934715Y-92710000D01*
X148971000Y-92637429D01*
X149007286Y-92601143D01*
X149079857Y-92564857D01*
X149225000Y-92528571D01*
X149297572Y-92492286D01*
X149333857Y-92456000D01*
X149370143Y-92383429D01*
X149370143Y-92310857D01*
X149333857Y-92238286D01*
X149297572Y-92202000D01*
X149225000Y-92165714D01*
X149043572Y-92165714D01*
X148934715Y-92202000D01*
X148172715Y-92855143D02*
X148209001Y-92891429D01*
X148317858Y-92927714D01*
X148390429Y-92927714D01*
X148499286Y-92891429D01*
X148571858Y-92818857D01*
X148608143Y-92746286D01*
X148644429Y-92601143D01*
X148644429Y-92492286D01*
X148608143Y-92347143D01*
X148571858Y-92274571D01*
X148499286Y-92202000D01*
X148390429Y-92165714D01*
X148317858Y-92165714D01*
X148209001Y-92202000D01*
X148172715Y-92238286D01*
X147410715Y-92927714D02*
X147664715Y-92564857D01*
X147846143Y-92927714D02*
X147846143Y-92165714D01*
X147555858Y-92165714D01*
X147483286Y-92202000D01*
X147447001Y-92238286D01*
X147410715Y-92310857D01*
X147410715Y-92419714D01*
X147447001Y-92492286D01*
X147483286Y-92528571D01*
X147555858Y-92564857D01*
X147846143Y-92564857D01*
X147084143Y-92528571D02*
X146830143Y-92528571D01*
X146721286Y-92927714D02*
X147084143Y-92927714D01*
X147084143Y-92165714D01*
X146721286Y-92165714D01*
X146467286Y-92165714D02*
X146285857Y-92927714D01*
X146140714Y-92383429D01*
X145995572Y-92927714D01*
X145814143Y-92165714D01*
X145560143Y-92891429D02*
X145451286Y-92927714D01*
X145269857Y-92927714D01*
X145197286Y-92891429D01*
X145161000Y-92855143D01*
X145124715Y-92782571D01*
X145124715Y-92710000D01*
X145161000Y-92637429D01*
X145197286Y-92601143D01*
X145269857Y-92564857D01*
X145415000Y-92528571D01*
X145487572Y-92492286D01*
X145523857Y-92456000D01*
X145560143Y-92383429D01*
X145560143Y-92310857D01*
X145523857Y-92238286D01*
X145487572Y-92202000D01*
X145415000Y-92165714D01*
X145233572Y-92165714D01*
X145124715Y-92202000D01*
D12*
X152025047Y-99138619D02*
X151444476Y-99138619D01*
X151734761Y-100154619D02*
X151734761Y-99138619D01*
X151105809Y-100154619D02*
X151105809Y-99138619D01*
X151105809Y-99622429D02*
X150525238Y-99622429D01*
X150525238Y-100154619D02*
X150525238Y-99138619D01*
X150041428Y-100154619D02*
X150041428Y-99138619D01*
X149605999Y-100106238D02*
X149460856Y-100154619D01*
X149218952Y-100154619D01*
X149122190Y-100106238D01*
X149073809Y-100057857D01*
X149025428Y-99961095D01*
X149025428Y-99864333D01*
X149073809Y-99767571D01*
X149122190Y-99719190D01*
X149218952Y-99670810D01*
X149412475Y-99622429D01*
X149509237Y-99574048D01*
X149557618Y-99525667D01*
X149605999Y-99428905D01*
X149605999Y-99332143D01*
X149557618Y-99235381D01*
X149509237Y-99187000D01*
X149412475Y-99138619D01*
X149170571Y-99138619D01*
X149025428Y-99187000D01*
X147815904Y-99622429D02*
X147477238Y-99622429D01*
X147332095Y-100154619D02*
X147815904Y-100154619D01*
X147815904Y-99138619D01*
X147332095Y-99138619D01*
X146896666Y-100154619D02*
X146896666Y-99138619D01*
X146316095Y-100154619D01*
X146316095Y-99138619D01*
X145832285Y-100154619D02*
X145832285Y-99138619D01*
X145590380Y-99138619D01*
X145445238Y-99187000D01*
X145348476Y-99283762D01*
X145300095Y-99380524D01*
X145251714Y-99574048D01*
X145251714Y-99719190D01*
X145300095Y-99912714D01*
X145348476Y-100009476D01*
X145445238Y-100106238D01*
X145590380Y-100154619D01*
X145832285Y-100154619D01*
X149388285Y-100916619D02*
X149388285Y-101739095D01*
X149339904Y-101835857D01*
X149291523Y-101884238D01*
X149194761Y-101932619D01*
X149001238Y-101932619D01*
X148904476Y-101884238D01*
X148856095Y-101835857D01*
X148807714Y-101739095D01*
X148807714Y-100916619D01*
X148323904Y-101932619D02*
X148323904Y-100916619D01*
X147936857Y-100916619D01*
X147840095Y-100965000D01*
X147791714Y-101013381D01*
X147743333Y-101110143D01*
X147743333Y-101255286D01*
X147791714Y-101352048D01*
X147840095Y-101400429D01*
X147936857Y-101448810D01*
X148323904Y-101448810D01*
D11*
X151365858Y-118073714D02*
X151365858Y-118690571D01*
X151402144Y-118763143D01*
X151438429Y-118799429D01*
X151511001Y-118835714D01*
X151619858Y-118835714D01*
X151692429Y-118799429D01*
X151365858Y-118545429D02*
X151438429Y-118581714D01*
X151583572Y-118581714D01*
X151656144Y-118545429D01*
X151692429Y-118509143D01*
X151728715Y-118436571D01*
X151728715Y-118218857D01*
X151692429Y-118146286D01*
X151656144Y-118110000D01*
X151583572Y-118073714D01*
X151438429Y-118073714D01*
X151365858Y-118110000D01*
X151003000Y-118581714D02*
X151003000Y-118073714D01*
X151003000Y-117819714D02*
X151039286Y-117856000D01*
X151003000Y-117892286D01*
X150966715Y-117856000D01*
X151003000Y-117819714D01*
X151003000Y-117892286D01*
X150749001Y-118073714D02*
X150458715Y-118073714D01*
X150640143Y-117819714D02*
X150640143Y-118472857D01*
X150603858Y-118545429D01*
X150531286Y-118581714D01*
X150458715Y-118581714D01*
X150204714Y-118581714D02*
X150204714Y-117819714D01*
X149878143Y-118581714D02*
X149878143Y-118182571D01*
X149914429Y-118110000D01*
X149987000Y-118073714D01*
X150095857Y-118073714D01*
X150168429Y-118110000D01*
X150204714Y-118146286D01*
X149188714Y-118073714D02*
X149188714Y-118581714D01*
X149515285Y-118073714D02*
X149515285Y-118472857D01*
X149479000Y-118545429D01*
X149406428Y-118581714D01*
X149297571Y-118581714D01*
X149225000Y-118545429D01*
X149188714Y-118509143D01*
X148825856Y-118581714D02*
X148825856Y-117819714D01*
X148825856Y-118110000D02*
X148753285Y-118073714D01*
X148608142Y-118073714D01*
X148535571Y-118110000D01*
X148499285Y-118146286D01*
X148462999Y-118218857D01*
X148462999Y-118436571D01*
X148499285Y-118509143D01*
X148535571Y-118545429D01*
X148608142Y-118581714D01*
X148753285Y-118581714D01*
X148825856Y-118545429D01*
X148136427Y-118509143D02*
X148100142Y-118545429D01*
X148136427Y-118581714D01*
X148172713Y-118545429D01*
X148136427Y-118509143D01*
X148136427Y-118581714D01*
X147446999Y-118545429D02*
X147519570Y-118581714D01*
X147664713Y-118581714D01*
X147737285Y-118545429D01*
X147773570Y-118509143D01*
X147809856Y-118436571D01*
X147809856Y-118218857D01*
X147773570Y-118146286D01*
X147737285Y-118110000D01*
X147664713Y-118073714D01*
X147519570Y-118073714D01*
X147446999Y-118110000D01*
X147011570Y-118581714D02*
X147084142Y-118545429D01*
X147120427Y-118509143D01*
X147156713Y-118436571D01*
X147156713Y-118218857D01*
X147120427Y-118146286D01*
X147084142Y-118110000D01*
X147011570Y-118073714D01*
X146902713Y-118073714D01*
X146830142Y-118110000D01*
X146793856Y-118146286D01*
X146757570Y-118218857D01*
X146757570Y-118436571D01*
X146793856Y-118509143D01*
X146830142Y-118545429D01*
X146902713Y-118581714D01*
X147011570Y-118581714D01*
X146430998Y-118581714D02*
X146430998Y-118073714D01*
X146430998Y-118146286D02*
X146394713Y-118110000D01*
X146322141Y-118073714D01*
X146213284Y-118073714D01*
X146140713Y-118110000D01*
X146104427Y-118182571D01*
X146104427Y-118581714D01*
X146104427Y-118182571D02*
X146068141Y-118110000D01*
X145995570Y-118073714D01*
X145886713Y-118073714D01*
X145814141Y-118110000D01*
X145777856Y-118182571D01*
X145777856Y-118581714D01*
X144870713Y-117783429D02*
X145523856Y-118763143D01*
X154141716Y-119851714D02*
X154395716Y-119488857D01*
X154577144Y-119851714D02*
X154577144Y-119089714D01*
X154286859Y-119089714D01*
X154214287Y-119126000D01*
X154178002Y-119162286D01*
X154141716Y-119234857D01*
X154141716Y-119343714D01*
X154178002Y-119416286D01*
X154214287Y-119452571D01*
X154286859Y-119488857D01*
X154577144Y-119488857D01*
X153706287Y-119851714D02*
X153778859Y-119815429D01*
X153815144Y-119779143D01*
X153851430Y-119706571D01*
X153851430Y-119488857D01*
X153815144Y-119416286D01*
X153778859Y-119380000D01*
X153706287Y-119343714D01*
X153597430Y-119343714D01*
X153524859Y-119380000D01*
X153488573Y-119416286D01*
X153452287Y-119488857D01*
X153452287Y-119706571D01*
X153488573Y-119779143D01*
X153524859Y-119815429D01*
X153597430Y-119851714D01*
X153706287Y-119851714D01*
X153125715Y-119851714D02*
X153125715Y-119089714D01*
X153125715Y-119380000D02*
X153053144Y-119343714D01*
X152908001Y-119343714D01*
X152835430Y-119380000D01*
X152799144Y-119416286D01*
X152762858Y-119488857D01*
X152762858Y-119706571D01*
X152799144Y-119779143D01*
X152835430Y-119815429D01*
X152908001Y-119851714D01*
X153053144Y-119851714D01*
X153125715Y-119815429D01*
X152146001Y-119815429D02*
X152218572Y-119851714D01*
X152363715Y-119851714D01*
X152436286Y-119815429D01*
X152472572Y-119742857D01*
X152472572Y-119452571D01*
X152436286Y-119380000D01*
X152363715Y-119343714D01*
X152218572Y-119343714D01*
X152146001Y-119380000D01*
X152109715Y-119452571D01*
X152109715Y-119525143D01*
X152472572Y-119597714D01*
X151783143Y-119851714D02*
X151783143Y-119343714D01*
X151783143Y-119488857D02*
X151746858Y-119416286D01*
X151710572Y-119380000D01*
X151638001Y-119343714D01*
X151565429Y-119343714D01*
X151420287Y-119343714D02*
X151130001Y-119343714D01*
X151311429Y-119089714D02*
X151311429Y-119742857D01*
X151275144Y-119815429D01*
X151202572Y-119851714D01*
X151130001Y-119851714D01*
X150622000Y-119452571D02*
X150513143Y-119488857D01*
X150476858Y-119525143D01*
X150440572Y-119597714D01*
X150440572Y-119706571D01*
X150476858Y-119779143D01*
X150513143Y-119815429D01*
X150585715Y-119851714D01*
X150876000Y-119851714D01*
X150876000Y-119089714D01*
X150622000Y-119089714D01*
X150549429Y-119126000D01*
X150513143Y-119162286D01*
X150476858Y-119234857D01*
X150476858Y-119307429D01*
X150513143Y-119380000D01*
X150549429Y-119416286D01*
X150622000Y-119452571D01*
X150876000Y-119452571D01*
X149787429Y-119851714D02*
X149787429Y-119452571D01*
X149823715Y-119380000D01*
X149896286Y-119343714D01*
X150041429Y-119343714D01*
X150114000Y-119380000D01*
X149787429Y-119815429D02*
X149860000Y-119851714D01*
X150041429Y-119851714D01*
X150114000Y-119815429D01*
X150150286Y-119742857D01*
X150150286Y-119670286D01*
X150114000Y-119597714D01*
X150041429Y-119561429D01*
X149860000Y-119561429D01*
X149787429Y-119525143D01*
X149424571Y-119851714D02*
X149424571Y-119343714D01*
X149424571Y-119488857D02*
X149388286Y-119416286D01*
X149352000Y-119380000D01*
X149279429Y-119343714D01*
X149206857Y-119343714D01*
X148626286Y-119343714D02*
X148626286Y-119851714D01*
X148952857Y-119343714D02*
X148952857Y-119742857D01*
X148916572Y-119815429D01*
X148844000Y-119851714D01*
X148735143Y-119851714D01*
X148662572Y-119815429D01*
X148626286Y-119779143D01*
X147936857Y-119815429D02*
X148009428Y-119851714D01*
X148154571Y-119851714D01*
X148227143Y-119815429D01*
X148263428Y-119779143D01*
X148299714Y-119706571D01*
X148299714Y-119488857D01*
X148263428Y-119416286D01*
X148227143Y-119380000D01*
X148154571Y-119343714D01*
X148009428Y-119343714D01*
X147936857Y-119380000D01*
X147610285Y-119851714D02*
X147610285Y-119089714D01*
X147283714Y-119851714D02*
X147283714Y-119452571D01*
X147320000Y-119380000D01*
X147392571Y-119343714D01*
X147501428Y-119343714D01*
X147574000Y-119380000D01*
X147610285Y-119416286D01*
X146376571Y-119053429D02*
X147029714Y-120033143D01*
X146122570Y-119851714D02*
X146122570Y-119089714D01*
X145687142Y-119851714D01*
X145687142Y-119089714D01*
X145324284Y-119851714D02*
X145324284Y-119343714D01*
X145324284Y-119089714D02*
X145360570Y-119126000D01*
X145324284Y-119162286D01*
X145287999Y-119126000D01*
X145324284Y-119089714D01*
X145324284Y-119162286D01*
X145033999Y-119851714D02*
X144634856Y-119343714D01*
X145033999Y-119343714D02*
X144634856Y-119851714D01*
X143909142Y-119779143D02*
X143945428Y-119815429D01*
X144054285Y-119851714D01*
X144126856Y-119851714D01*
X144235713Y-119815429D01*
X144308285Y-119742857D01*
X144344570Y-119670286D01*
X144380856Y-119525143D01*
X144380856Y-119416286D01*
X144344570Y-119271143D01*
X144308285Y-119198571D01*
X144235713Y-119126000D01*
X144126856Y-119089714D01*
X144054285Y-119089714D01*
X143945428Y-119126000D01*
X143909142Y-119162286D01*
X143255999Y-119851714D02*
X143255999Y-119452571D01*
X143292285Y-119380000D01*
X143364856Y-119343714D01*
X143509999Y-119343714D01*
X143582570Y-119380000D01*
X143255999Y-119815429D02*
X143328570Y-119851714D01*
X143509999Y-119851714D01*
X143582570Y-119815429D01*
X143618856Y-119742857D01*
X143618856Y-119670286D01*
X143582570Y-119597714D01*
X143509999Y-119561429D01*
X143328570Y-119561429D01*
X143255999Y-119525143D01*
X142893141Y-119851714D02*
X142893141Y-119343714D01*
X142893141Y-119488857D02*
X142856856Y-119416286D01*
X142820570Y-119380000D01*
X142747999Y-119343714D01*
X142675427Y-119343714D01*
X142094856Y-119851714D02*
X142094856Y-119089714D01*
X142094856Y-119815429D02*
X142167427Y-119851714D01*
X142312570Y-119851714D01*
X142385142Y-119815429D01*
X142421427Y-119779143D01*
X142457713Y-119706571D01*
X142457713Y-119488857D01*
X142421427Y-119416286D01*
X142385142Y-119380000D01*
X142312570Y-119343714D01*
X142167427Y-119343714D01*
X142094856Y-119380000D01*
X151674285Y-102942571D02*
X151565428Y-102978857D01*
X151529143Y-103015143D01*
X151492857Y-103087714D01*
X151492857Y-103196571D01*
X151529143Y-103269143D01*
X151565428Y-103305429D01*
X151638000Y-103341714D01*
X151928285Y-103341714D01*
X151928285Y-102579714D01*
X151674285Y-102579714D01*
X151601714Y-102616000D01*
X151565428Y-102652286D01*
X151529143Y-102724857D01*
X151529143Y-102797429D01*
X151565428Y-102870000D01*
X151601714Y-102906286D01*
X151674285Y-102942571D01*
X151928285Y-102942571D01*
X150730857Y-103341714D02*
X150984857Y-102978857D01*
X151166285Y-103341714D02*
X151166285Y-102579714D01*
X150876000Y-102579714D01*
X150803428Y-102616000D01*
X150767143Y-102652286D01*
X150730857Y-102724857D01*
X150730857Y-102833714D01*
X150767143Y-102906286D01*
X150803428Y-102942571D01*
X150876000Y-102978857D01*
X151166285Y-102978857D01*
X150404285Y-103341714D02*
X150404285Y-102579714D01*
X150222857Y-102579714D01*
X150114000Y-102616000D01*
X150041428Y-102688571D01*
X150005143Y-102761143D01*
X149968857Y-102906286D01*
X149968857Y-103015143D01*
X150005143Y-103160286D01*
X150041428Y-103232857D01*
X150114000Y-103305429D01*
X150222857Y-103341714D01*
X150404285Y-103341714D01*
X149098000Y-103124000D02*
X148735143Y-103124000D01*
X149170572Y-103341714D02*
X148916572Y-102579714D01*
X148662572Y-103341714D01*
X147392572Y-103341714D02*
X147646572Y-102978857D01*
X147828000Y-103341714D02*
X147828000Y-102579714D01*
X147537715Y-102579714D01*
X147465143Y-102616000D01*
X147428858Y-102652286D01*
X147392572Y-102724857D01*
X147392572Y-102833714D01*
X147428858Y-102906286D01*
X147465143Y-102942571D01*
X147537715Y-102978857D01*
X147828000Y-102978857D01*
X147066000Y-102942571D02*
X146812000Y-102942571D01*
X146703143Y-103341714D02*
X147066000Y-103341714D01*
X147066000Y-102579714D01*
X146703143Y-102579714D01*
X146485429Y-102579714D02*
X146231429Y-103341714D01*
X145977429Y-102579714D01*
X144707429Y-103269143D02*
X144743715Y-103305429D01*
X144852572Y-103341714D01*
X144925143Y-103341714D01*
X145034000Y-103305429D01*
X145106572Y-103232857D01*
X145142857Y-103160286D01*
X145179143Y-103015143D01*
X145179143Y-102906286D01*
X145142857Y-102761143D01*
X145106572Y-102688571D01*
X145034000Y-102616000D01*
X144925143Y-102579714D01*
X144852572Y-102579714D01*
X144743715Y-102616000D01*
X144707429Y-102652286D01*
X151692427Y-103922286D02*
X151656141Y-103886000D01*
X151583570Y-103849714D01*
X151402141Y-103849714D01*
X151329570Y-103886000D01*
X151293284Y-103922286D01*
X151256999Y-103994857D01*
X151256999Y-104067429D01*
X151293284Y-104176286D01*
X151728713Y-104611714D01*
X151256999Y-104611714D01*
X150785285Y-103849714D02*
X150712713Y-103849714D01*
X150640142Y-103886000D01*
X150603856Y-103922286D01*
X150567570Y-103994857D01*
X150531285Y-104140000D01*
X150531285Y-104321429D01*
X150567570Y-104466571D01*
X150603856Y-104539143D01*
X150640142Y-104575429D01*
X150712713Y-104611714D01*
X150785285Y-104611714D01*
X150857856Y-104575429D01*
X150894142Y-104539143D01*
X150930427Y-104466571D01*
X150966713Y-104321429D01*
X150966713Y-104140000D01*
X150930427Y-103994857D01*
X150894142Y-103922286D01*
X150857856Y-103886000D01*
X150785285Y-103849714D01*
X149805571Y-104611714D02*
X150240999Y-104611714D01*
X150023285Y-104611714D02*
X150023285Y-103849714D01*
X150095856Y-103958571D01*
X150168428Y-104031143D01*
X150240999Y-104067429D01*
X149551571Y-103849714D02*
X149043571Y-103849714D01*
X149370142Y-104611714D01*
X148172714Y-104611714D02*
X148172714Y-103849714D01*
X147991286Y-103849714D01*
X147882429Y-103886000D01*
X147809857Y-103958571D01*
X147773572Y-104031143D01*
X147737286Y-104176286D01*
X147737286Y-104285143D01*
X147773572Y-104430286D01*
X147809857Y-104502857D01*
X147882429Y-104575429D01*
X147991286Y-104611714D01*
X148172714Y-104611714D01*
X147410714Y-104212571D02*
X147156714Y-104212571D01*
X147047857Y-104611714D02*
X147410714Y-104611714D01*
X147410714Y-103849714D01*
X147047857Y-103849714D01*
X146285857Y-104539143D02*
X146322143Y-104575429D01*
X146431000Y-104611714D01*
X146503571Y-104611714D01*
X146612428Y-104575429D01*
X146685000Y-104502857D01*
X146721285Y-104430286D01*
X146757571Y-104285143D01*
X146757571Y-104176286D01*
X146721285Y-104031143D01*
X146685000Y-103958571D01*
X146612428Y-103886000D01*
X146503571Y-103849714D01*
X146431000Y-103849714D01*
X146322143Y-103886000D01*
X146285857Y-103922286D01*
X145415000Y-103922286D02*
X145378714Y-103886000D01*
X145306143Y-103849714D01*
X145124714Y-103849714D01*
X145052143Y-103886000D01*
X145015857Y-103922286D01*
X144979572Y-103994857D01*
X144979572Y-104067429D01*
X145015857Y-104176286D01*
X145451286Y-104611714D01*
X144979572Y-104611714D01*
D13*
X158576822Y-116036700D02*
G75*
G02X138590000Y-116025000I-9986822J11261700D01*
G01*
X138603178Y-93513300D02*
G75*
G02X158590000Y-93525000I9986822J-11261700D01*
G01*
X158590000Y-116025000D02*
X158590000Y-93525000D01*
X138590000Y-116025000D02*
X138590000Y-93525000D01*
D14*
X143090000Y-114775000D02*
G75*
G03X143090000Y-114775000I-250000J0D01*
G01*
D15*
G36*
X150498759Y-109419184D02*
X150472247Y-109432282D01*
X150439553Y-109455106D01*
X150415725Y-109479996D01*
X150399406Y-109511249D01*
X150389240Y-109553166D01*
X150383872Y-109610044D01*
X150381944Y-109686184D01*
X150381831Y-109718917D01*
X150382161Y-109790656D01*
X150383527Y-109841927D01*
X150386500Y-109877404D01*
X150391649Y-109901763D01*
X150399543Y-109919680D01*
X150407757Y-109931902D01*
X150460187Y-109983905D01*
X150521930Y-110015184D01*
X150588536Y-110024592D01*
X150655558Y-110010980D01*
X150676792Y-110001354D01*
X150727624Y-109974859D01*
X150727624Y-110390052D01*
X150690525Y-110370868D01*
X150641643Y-110356025D01*
X150581561Y-110352222D01*
X150521564Y-110359243D01*
X150476256Y-110375013D01*
X150438675Y-110405047D01*
X150406564Y-110448024D01*
X150404150Y-110452436D01*
X150393967Y-110473221D01*
X150386530Y-110494170D01*
X150381411Y-110519548D01*
X150378181Y-110553618D01*
X150376413Y-110600641D01*
X150375677Y-110664882D01*
X150375544Y-110737176D01*
X150375544Y-110967822D01*
X150513861Y-110967822D01*
X150513861Y-110542533D01*
X150552549Y-110509979D01*
X150592738Y-110483940D01*
X150630797Y-110479205D01*
X150669066Y-110491389D01*
X150689462Y-110503320D01*
X150704642Y-110520313D01*
X150715438Y-110545995D01*
X150722683Y-110583991D01*
X150727208Y-110637926D01*
X150729844Y-110711425D01*
X150730772Y-110760347D01*
X150733911Y-110961535D01*
X150799926Y-110965336D01*
X150865940Y-110969136D01*
X150865940Y-109720650D01*
X150727624Y-109720650D01*
X150724097Y-109790254D01*
X150712215Y-109838569D01*
X150690020Y-109868631D01*
X150655559Y-109883471D01*
X150620742Y-109886436D01*
X150581329Y-109883028D01*
X150555171Y-109869617D01*
X150538814Y-109851896D01*
X150525937Y-109832835D01*
X150518272Y-109811601D01*
X150514861Y-109781849D01*
X150514749Y-109737236D01*
X150515897Y-109699880D01*
X150518532Y-109643604D01*
X150522456Y-109606658D01*
X150529063Y-109583223D01*
X150539749Y-109567480D01*
X150549833Y-109558380D01*
X150591970Y-109538537D01*
X150641840Y-109535332D01*
X150670476Y-109542168D01*
X150698828Y-109566464D01*
X150717609Y-109613728D01*
X150726712Y-109683624D01*
X150727624Y-109720650D01*
X150865940Y-109720650D01*
X150865940Y-109408614D01*
X150796782Y-109408614D01*
X150755260Y-109410256D01*
X150733838Y-109416087D01*
X150727626Y-109427461D01*
X150727624Y-109427798D01*
X150724742Y-109438938D01*
X150712030Y-109437673D01*
X150686757Y-109425433D01*
X150627869Y-109406707D01*
X150561615Y-109404739D01*
X150498759Y-109419184D01*
X150498759Y-109419184D01*
G37*
X150498759Y-109419184D02*
X150472247Y-109432282D01*
X150439553Y-109455106D01*
X150415725Y-109479996D01*
X150399406Y-109511249D01*
X150389240Y-109553166D01*
X150383872Y-109610044D01*
X150381944Y-109686184D01*
X150381831Y-109718917D01*
X150382161Y-109790656D01*
X150383527Y-109841927D01*
X150386500Y-109877404D01*
X150391649Y-109901763D01*
X150399543Y-109919680D01*
X150407757Y-109931902D01*
X150460187Y-109983905D01*
X150521930Y-110015184D01*
X150588536Y-110024592D01*
X150655558Y-110010980D01*
X150676792Y-110001354D01*
X150727624Y-109974859D01*
X150727624Y-110390052D01*
X150690525Y-110370868D01*
X150641643Y-110356025D01*
X150581561Y-110352222D01*
X150521564Y-110359243D01*
X150476256Y-110375013D01*
X150438675Y-110405047D01*
X150406564Y-110448024D01*
X150404150Y-110452436D01*
X150393967Y-110473221D01*
X150386530Y-110494170D01*
X150381411Y-110519548D01*
X150378181Y-110553618D01*
X150376413Y-110600641D01*
X150375677Y-110664882D01*
X150375544Y-110737176D01*
X150375544Y-110967822D01*
X150513861Y-110967822D01*
X150513861Y-110542533D01*
X150552549Y-110509979D01*
X150592738Y-110483940D01*
X150630797Y-110479205D01*
X150669066Y-110491389D01*
X150689462Y-110503320D01*
X150704642Y-110520313D01*
X150715438Y-110545995D01*
X150722683Y-110583991D01*
X150727208Y-110637926D01*
X150729844Y-110711425D01*
X150730772Y-110760347D01*
X150733911Y-110961535D01*
X150799926Y-110965336D01*
X150865940Y-110969136D01*
X150865940Y-109720650D01*
X150727624Y-109720650D01*
X150724097Y-109790254D01*
X150712215Y-109838569D01*
X150690020Y-109868631D01*
X150655559Y-109883471D01*
X150620742Y-109886436D01*
X150581329Y-109883028D01*
X150555171Y-109869617D01*
X150538814Y-109851896D01*
X150525937Y-109832835D01*
X150518272Y-109811601D01*
X150514861Y-109781849D01*
X150514749Y-109737236D01*
X150515897Y-109699880D01*
X150518532Y-109643604D01*
X150522456Y-109606658D01*
X150529063Y-109583223D01*
X150539749Y-109567480D01*
X150549833Y-109558380D01*
X150591970Y-109538537D01*
X150641840Y-109535332D01*
X150670476Y-109542168D01*
X150698828Y-109566464D01*
X150717609Y-109613728D01*
X150726712Y-109683624D01*
X150727624Y-109720650D01*
X150865940Y-109720650D01*
X150865940Y-109408614D01*
X150796782Y-109408614D01*
X150755260Y-109410256D01*
X150733838Y-109416087D01*
X150727626Y-109427461D01*
X150727624Y-109427798D01*
X150724742Y-109438938D01*
X150712030Y-109437673D01*
X150686757Y-109425433D01*
X150627869Y-109406707D01*
X150561615Y-109404739D01*
X150498759Y-109419184D01*
G36*
X149974210Y-110356555D02*
X149915055Y-110372339D01*
X149870023Y-110400948D01*
X149838246Y-110438419D01*
X149828366Y-110454411D01*
X149821073Y-110471163D01*
X149815974Y-110492592D01*
X149812679Y-110522616D01*
X149810797Y-110565154D01*
X149809937Y-110624122D01*
X149809707Y-110703440D01*
X149809703Y-110724484D01*
X149809703Y-110967822D01*
X149870059Y-110967822D01*
X149908557Y-110965126D01*
X149937023Y-110958295D01*
X149944155Y-110954083D01*
X149963652Y-110946813D01*
X149983566Y-110954083D01*
X150016353Y-110963160D01*
X150063978Y-110966813D01*
X150116764Y-110965228D01*
X150165036Y-110958589D01*
X150193218Y-110950072D01*
X150247753Y-110915063D01*
X150281835Y-110866479D01*
X150297157Y-110801882D01*
X150297299Y-110800223D01*
X150295955Y-110771566D01*
X150174356Y-110771566D01*
X150163726Y-110804161D01*
X150146410Y-110822505D01*
X150111652Y-110836379D01*
X150065773Y-110841917D01*
X150018988Y-110839191D01*
X149981514Y-110828274D01*
X149971015Y-110821269D01*
X149952668Y-110788904D01*
X149948020Y-110752111D01*
X149948020Y-110703763D01*
X150017582Y-110703763D01*
X150083667Y-110708850D01*
X150133764Y-110723263D01*
X150164929Y-110745729D01*
X150174356Y-110771566D01*
X150295955Y-110771566D01*
X150293987Y-110729647D01*
X150270710Y-110673845D01*
X150226948Y-110631647D01*
X150220899Y-110627808D01*
X150194907Y-110615309D01*
X150162735Y-110607740D01*
X150117760Y-110604061D01*
X150064331Y-110603216D01*
X149948020Y-110603169D01*
X149948020Y-110554411D01*
X149952953Y-110516581D01*
X149965543Y-110491236D01*
X149967017Y-110489887D01*
X149995034Y-110478800D01*
X150037326Y-110474503D01*
X150084064Y-110476615D01*
X150125418Y-110484756D01*
X150149957Y-110496965D01*
X150163253Y-110506746D01*
X150177294Y-110508613D01*
X150196671Y-110500600D01*
X150225976Y-110480739D01*
X150269803Y-110447063D01*
X150273825Y-110443909D01*
X150271764Y-110432236D01*
X150254568Y-110412822D01*
X150228433Y-110391248D01*
X150199552Y-110373096D01*
X150190478Y-110368809D01*
X150157380Y-110360256D01*
X150108880Y-110354155D01*
X150054695Y-110351708D01*
X150052161Y-110351703D01*
X149974210Y-110356555D01*
X149974210Y-110356555D01*
G37*
X149974210Y-110356555D02*
X149915055Y-110372339D01*
X149870023Y-110400948D01*
X149838246Y-110438419D01*
X149828366Y-110454411D01*
X149821073Y-110471163D01*
X149815974Y-110492592D01*
X149812679Y-110522616D01*
X149810797Y-110565154D01*
X149809937Y-110624122D01*
X149809707Y-110703440D01*
X149809703Y-110724484D01*
X149809703Y-110967822D01*
X149870059Y-110967822D01*
X149908557Y-110965126D01*
X149937023Y-110958295D01*
X149944155Y-110954083D01*
X149963652Y-110946813D01*
X149983566Y-110954083D01*
X150016353Y-110963160D01*
X150063978Y-110966813D01*
X150116764Y-110965228D01*
X150165036Y-110958589D01*
X150193218Y-110950072D01*
X150247753Y-110915063D01*
X150281835Y-110866479D01*
X150297157Y-110801882D01*
X150297299Y-110800223D01*
X150295955Y-110771566D01*
X150174356Y-110771566D01*
X150163726Y-110804161D01*
X150146410Y-110822505D01*
X150111652Y-110836379D01*
X150065773Y-110841917D01*
X150018988Y-110839191D01*
X149981514Y-110828274D01*
X149971015Y-110821269D01*
X149952668Y-110788904D01*
X149948020Y-110752111D01*
X149948020Y-110703763D01*
X150017582Y-110703763D01*
X150083667Y-110708850D01*
X150133764Y-110723263D01*
X150164929Y-110745729D01*
X150174356Y-110771566D01*
X150295955Y-110771566D01*
X150293987Y-110729647D01*
X150270710Y-110673845D01*
X150226948Y-110631647D01*
X150220899Y-110627808D01*
X150194907Y-110615309D01*
X150162735Y-110607740D01*
X150117760Y-110604061D01*
X150064331Y-110603216D01*
X149948020Y-110603169D01*
X149948020Y-110554411D01*
X149952953Y-110516581D01*
X149965543Y-110491236D01*
X149967017Y-110489887D01*
X149995034Y-110478800D01*
X150037326Y-110474503D01*
X150084064Y-110476615D01*
X150125418Y-110484756D01*
X150149957Y-110496965D01*
X150163253Y-110506746D01*
X150177294Y-110508613D01*
X150196671Y-110500600D01*
X150225976Y-110480739D01*
X150269803Y-110447063D01*
X150273825Y-110443909D01*
X150271764Y-110432236D01*
X150254568Y-110412822D01*
X150228433Y-110391248D01*
X150199552Y-110373096D01*
X150190478Y-110368809D01*
X150157380Y-110360256D01*
X150108880Y-110354155D01*
X150054695Y-110351708D01*
X150052161Y-110351703D01*
X149974210Y-110356555D01*
G36*
X149583356Y-110353020D02*
X149564539Y-110358660D01*
X149558473Y-110371053D01*
X149558218Y-110376647D01*
X149557129Y-110392230D01*
X149549632Y-110394676D01*
X149529381Y-110383993D01*
X149517351Y-110376694D01*
X149479400Y-110361063D01*
X149434072Y-110353334D01*
X149386544Y-110352740D01*
X149341995Y-110358513D01*
X149305602Y-110369884D01*
X149282543Y-110386088D01*
X149277996Y-110406355D01*
X149280291Y-110411843D01*
X149297020Y-110434626D01*
X149322963Y-110462647D01*
X149327655Y-110467177D01*
X149352383Y-110488005D01*
X149373718Y-110494735D01*
X149403555Y-110490038D01*
X149415508Y-110486917D01*
X149452705Y-110479421D01*
X149478859Y-110482792D01*
X149500946Y-110494681D01*
X149521178Y-110510635D01*
X149536079Y-110530700D01*
X149546434Y-110558702D01*
X149553029Y-110598467D01*
X149556649Y-110653823D01*
X149558078Y-110728594D01*
X149558218Y-110773740D01*
X149558218Y-110967822D01*
X149683960Y-110967822D01*
X149683960Y-110351683D01*
X149621089Y-110351683D01*
X149583356Y-110353020D01*
X149583356Y-110353020D01*
G37*
X149583356Y-110353020D02*
X149564539Y-110358660D01*
X149558473Y-110371053D01*
X149558218Y-110376647D01*
X149557129Y-110392230D01*
X149549632Y-110394676D01*
X149529381Y-110383993D01*
X149517351Y-110376694D01*
X149479400Y-110361063D01*
X149434072Y-110353334D01*
X149386544Y-110352740D01*
X149341995Y-110358513D01*
X149305602Y-110369884D01*
X149282543Y-110386088D01*
X149277996Y-110406355D01*
X149280291Y-110411843D01*
X149297020Y-110434626D01*
X149322963Y-110462647D01*
X149327655Y-110467177D01*
X149352383Y-110488005D01*
X149373718Y-110494735D01*
X149403555Y-110490038D01*
X149415508Y-110486917D01*
X149452705Y-110479421D01*
X149478859Y-110482792D01*
X149500946Y-110494681D01*
X149521178Y-110510635D01*
X149536079Y-110530700D01*
X149546434Y-110558702D01*
X149553029Y-110598467D01*
X149556649Y-110653823D01*
X149558078Y-110728594D01*
X149558218Y-110773740D01*
X149558218Y-110967822D01*
X149683960Y-110967822D01*
X149683960Y-110351683D01*
X149621089Y-110351683D01*
X149583356Y-110353020D01*
G36*
X148791188Y-110967822D02*
X148860346Y-110967822D01*
X148900488Y-110966645D01*
X148921394Y-110961772D01*
X148928922Y-110951186D01*
X148929505Y-110944029D01*
X148930774Y-110929676D01*
X148938779Y-110926923D01*
X148959815Y-110935771D01*
X148976173Y-110944029D01*
X149038977Y-110963597D01*
X149107248Y-110964729D01*
X149162752Y-110950135D01*
X149214438Y-110914877D01*
X149253838Y-110862835D01*
X149275413Y-110801450D01*
X149275962Y-110798018D01*
X149279167Y-110760571D01*
X149280761Y-110706813D01*
X149280633Y-110666155D01*
X149143279Y-110666155D01*
X149140097Y-110720194D01*
X149132859Y-110764735D01*
X149123060Y-110789888D01*
X149085989Y-110824260D01*
X149041974Y-110836582D01*
X148996584Y-110826618D01*
X148957797Y-110796895D01*
X148943108Y-110776905D01*
X148934519Y-110753050D01*
X148930496Y-110718230D01*
X148929505Y-110665930D01*
X148931278Y-110614139D01*
X148935963Y-110568634D01*
X148942603Y-110538181D01*
X148943710Y-110535452D01*
X148970491Y-110503000D01*
X149009579Y-110485183D01*
X149053315Y-110482306D01*
X149094038Y-110494674D01*
X149124087Y-110522593D01*
X149127204Y-110528148D01*
X149136961Y-110562022D01*
X149142277Y-110610728D01*
X149143279Y-110666155D01*
X149280633Y-110666155D01*
X149280568Y-110645540D01*
X149279664Y-110612563D01*
X149273514Y-110530981D01*
X149260733Y-110469730D01*
X149239471Y-110424449D01*
X149207878Y-110390779D01*
X149177207Y-110371014D01*
X149134354Y-110357120D01*
X149081056Y-110352354D01*
X149026480Y-110356236D01*
X148979792Y-110368282D01*
X148955124Y-110382693D01*
X148929505Y-110405878D01*
X148929505Y-110112773D01*
X148791188Y-110112773D01*
X148791188Y-110967822D01*
X148791188Y-110967822D01*
G37*
X148791188Y-110967822D02*
X148860346Y-110967822D01*
X148900488Y-110966645D01*
X148921394Y-110961772D01*
X148928922Y-110951186D01*
X148929505Y-110944029D01*
X148930774Y-110929676D01*
X148938779Y-110926923D01*
X148959815Y-110935771D01*
X148976173Y-110944029D01*
X149038977Y-110963597D01*
X149107248Y-110964729D01*
X149162752Y-110950135D01*
X149214438Y-110914877D01*
X149253838Y-110862835D01*
X149275413Y-110801450D01*
X149275962Y-110798018D01*
X149279167Y-110760571D01*
X149280761Y-110706813D01*
X149280633Y-110666155D01*
X149143279Y-110666155D01*
X149140097Y-110720194D01*
X149132859Y-110764735D01*
X149123060Y-110789888D01*
X149085989Y-110824260D01*
X149041974Y-110836582D01*
X148996584Y-110826618D01*
X148957797Y-110796895D01*
X148943108Y-110776905D01*
X148934519Y-110753050D01*
X148930496Y-110718230D01*
X148929505Y-110665930D01*
X148931278Y-110614139D01*
X148935963Y-110568634D01*
X148942603Y-110538181D01*
X148943710Y-110535452D01*
X148970491Y-110503000D01*
X149009579Y-110485183D01*
X149053315Y-110482306D01*
X149094038Y-110494674D01*
X149124087Y-110522593D01*
X149127204Y-110528148D01*
X149136961Y-110562022D01*
X149142277Y-110610728D01*
X149143279Y-110666155D01*
X149280633Y-110666155D01*
X149280568Y-110645540D01*
X149279664Y-110612563D01*
X149273514Y-110530981D01*
X149260733Y-110469730D01*
X149239471Y-110424449D01*
X149207878Y-110390779D01*
X149177207Y-110371014D01*
X149134354Y-110357120D01*
X149081056Y-110352354D01*
X149026480Y-110356236D01*
X148979792Y-110368282D01*
X148955124Y-110382693D01*
X148929505Y-110405878D01*
X148929505Y-110112773D01*
X148791188Y-110112773D01*
X148791188Y-110967822D01*
G36*
X148308476Y-110354237D02*
X148258745Y-110357971D01*
X148128709Y-110747773D01*
X148108322Y-110678614D01*
X148096054Y-110635874D01*
X148079915Y-110578115D01*
X148062488Y-110514625D01*
X148053274Y-110480570D01*
X148018612Y-110351683D01*
X147875609Y-110351683D01*
X147918354Y-110486857D01*
X147939404Y-110553342D01*
X147964833Y-110633539D01*
X147991390Y-110717193D01*
X148015098Y-110791782D01*
X148069098Y-110961535D01*
X148127402Y-110965328D01*
X148185705Y-110969122D01*
X148217321Y-110864734D01*
X148236818Y-110799889D01*
X148258096Y-110728400D01*
X148276692Y-110665263D01*
X148277426Y-110662750D01*
X148291316Y-110619969D01*
X148303571Y-110590779D01*
X148312154Y-110579741D01*
X148313918Y-110581018D01*
X148320109Y-110598130D01*
X148331872Y-110634787D01*
X148347775Y-110686378D01*
X148366386Y-110748294D01*
X148376457Y-110782352D01*
X148430993Y-110967822D01*
X148546736Y-110967822D01*
X148639263Y-110675471D01*
X148665256Y-110593462D01*
X148688934Y-110518987D01*
X148709180Y-110455544D01*
X148724874Y-110406632D01*
X148734898Y-110375749D01*
X148737945Y-110366726D01*
X148735533Y-110357487D01*
X148716592Y-110353441D01*
X148677177Y-110353846D01*
X148671007Y-110354152D01*
X148597914Y-110357971D01*
X148550043Y-110534010D01*
X148532447Y-110598211D01*
X148516723Y-110654649D01*
X148504254Y-110698422D01*
X148496426Y-110724630D01*
X148494980Y-110728903D01*
X148488986Y-110723990D01*
X148476899Y-110698532D01*
X148460107Y-110655997D01*
X148439997Y-110599850D01*
X148422997Y-110549130D01*
X148358206Y-110350504D01*
X148308476Y-110354237D01*
X148308476Y-110354237D01*
G37*
X148308476Y-110354237D02*
X148258745Y-110357971D01*
X148128709Y-110747773D01*
X148108322Y-110678614D01*
X148096054Y-110635874D01*
X148079915Y-110578115D01*
X148062488Y-110514625D01*
X148053274Y-110480570D01*
X148018612Y-110351683D01*
X147875609Y-110351683D01*
X147918354Y-110486857D01*
X147939404Y-110553342D01*
X147964833Y-110633539D01*
X147991390Y-110717193D01*
X148015098Y-110791782D01*
X148069098Y-110961535D01*
X148127402Y-110965328D01*
X148185705Y-110969122D01*
X148217321Y-110864734D01*
X148236818Y-110799889D01*
X148258096Y-110728400D01*
X148276692Y-110665263D01*
X148277426Y-110662750D01*
X148291316Y-110619969D01*
X148303571Y-110590779D01*
X148312154Y-110579741D01*
X148313918Y-110581018D01*
X148320109Y-110598130D01*
X148331872Y-110634787D01*
X148347775Y-110686378D01*
X148366386Y-110748294D01*
X148376457Y-110782352D01*
X148430993Y-110967822D01*
X148546736Y-110967822D01*
X148639263Y-110675471D01*
X148665256Y-110593462D01*
X148688934Y-110518987D01*
X148709180Y-110455544D01*
X148724874Y-110406632D01*
X148734898Y-110375749D01*
X148737945Y-110366726D01*
X148735533Y-110357487D01*
X148716592Y-110353441D01*
X148677177Y-110353846D01*
X148671007Y-110354152D01*
X148597914Y-110357971D01*
X148550043Y-110534010D01*
X148532447Y-110598211D01*
X148516723Y-110654649D01*
X148504254Y-110698422D01*
X148496426Y-110724630D01*
X148494980Y-110728903D01*
X148488986Y-110723990D01*
X148476899Y-110698532D01*
X148460107Y-110655997D01*
X148439997Y-110599850D01*
X148422997Y-110549130D01*
X148358206Y-110350504D01*
X148308476Y-110354237D01*
G36*
X147551589Y-110355417D02*
X147498589Y-110368290D01*
X147483269Y-110375110D01*
X147453572Y-110392974D01*
X147430780Y-110413093D01*
X147413917Y-110438962D01*
X147402002Y-110474073D01*
X147394058Y-110521920D01*
X147389106Y-110585996D01*
X147386169Y-110669794D01*
X147385053Y-110725768D01*
X147380948Y-110967822D01*
X147451068Y-110967822D01*
X147493607Y-110966038D01*
X147515524Y-110959942D01*
X147521188Y-110949706D01*
X147524179Y-110938637D01*
X147537549Y-110940754D01*
X147555767Y-110949629D01*
X147601376Y-110963233D01*
X147659993Y-110966899D01*
X147721646Y-110960903D01*
X147776362Y-110945521D01*
X147781270Y-110943386D01*
X147831277Y-110908255D01*
X147864244Y-110859419D01*
X147879413Y-110802333D01*
X147878254Y-110781824D01*
X147754492Y-110781824D01*
X147743587Y-110809425D01*
X147711255Y-110829204D01*
X147659090Y-110839819D01*
X147631213Y-110841228D01*
X147584753Y-110837620D01*
X147553871Y-110823597D01*
X147546336Y-110816931D01*
X147525924Y-110780666D01*
X147521188Y-110747773D01*
X147521188Y-110703763D01*
X147582487Y-110703763D01*
X147653744Y-110707395D01*
X147703724Y-110718818D01*
X147735304Y-110738824D01*
X147742374Y-110747743D01*
X147754492Y-110781824D01*
X147878254Y-110781824D01*
X147876029Y-110742456D01*
X147853337Y-110685244D01*
X147822376Y-110646580D01*
X147803624Y-110629864D01*
X147785267Y-110618878D01*
X147761381Y-110612180D01*
X147726043Y-110608326D01*
X147673331Y-110605873D01*
X147652423Y-110605168D01*
X147521188Y-110600879D01*
X147521380Y-110561158D01*
X147526463Y-110519405D01*
X147544838Y-110494158D01*
X147581961Y-110478030D01*
X147582957Y-110477742D01*
X147635590Y-110471400D01*
X147687094Y-110479684D01*
X147725370Y-110499827D01*
X147740728Y-110509773D01*
X147757270Y-110508397D01*
X147782725Y-110493987D01*
X147797672Y-110483817D01*
X147826909Y-110462088D01*
X147845020Y-110445800D01*
X147847926Y-110441137D01*
X147835960Y-110417005D01*
X147800604Y-110388185D01*
X147785247Y-110378461D01*
X147741099Y-110361714D01*
X147681602Y-110352227D01*
X147615513Y-110350095D01*
X147551589Y-110355417D01*
X147551589Y-110355417D01*
G37*
X147551589Y-110355417D02*
X147498589Y-110368290D01*
X147483269Y-110375110D01*
X147453572Y-110392974D01*
X147430780Y-110413093D01*
X147413917Y-110438962D01*
X147402002Y-110474073D01*
X147394058Y-110521920D01*
X147389106Y-110585996D01*
X147386169Y-110669794D01*
X147385053Y-110725768D01*
X147380948Y-110967822D01*
X147451068Y-110967822D01*
X147493607Y-110966038D01*
X147515524Y-110959942D01*
X147521188Y-110949706D01*
X147524179Y-110938637D01*
X147537549Y-110940754D01*
X147555767Y-110949629D01*
X147601376Y-110963233D01*
X147659993Y-110966899D01*
X147721646Y-110960903D01*
X147776362Y-110945521D01*
X147781270Y-110943386D01*
X147831277Y-110908255D01*
X147864244Y-110859419D01*
X147879413Y-110802333D01*
X147878254Y-110781824D01*
X147754492Y-110781824D01*
X147743587Y-110809425D01*
X147711255Y-110829204D01*
X147659090Y-110839819D01*
X147631213Y-110841228D01*
X147584753Y-110837620D01*
X147553871Y-110823597D01*
X147546336Y-110816931D01*
X147525924Y-110780666D01*
X147521188Y-110747773D01*
X147521188Y-110703763D01*
X147582487Y-110703763D01*
X147653744Y-110707395D01*
X147703724Y-110718818D01*
X147735304Y-110738824D01*
X147742374Y-110747743D01*
X147754492Y-110781824D01*
X147878254Y-110781824D01*
X147876029Y-110742456D01*
X147853337Y-110685244D01*
X147822376Y-110646580D01*
X147803624Y-110629864D01*
X147785267Y-110618878D01*
X147761381Y-110612180D01*
X147726043Y-110608326D01*
X147673331Y-110605873D01*
X147652423Y-110605168D01*
X147521188Y-110600879D01*
X147521380Y-110561158D01*
X147526463Y-110519405D01*
X147544838Y-110494158D01*
X147581961Y-110478030D01*
X147582957Y-110477742D01*
X147635590Y-110471400D01*
X147687094Y-110479684D01*
X147725370Y-110499827D01*
X147740728Y-110509773D01*
X147757270Y-110508397D01*
X147782725Y-110493987D01*
X147797672Y-110483817D01*
X147826909Y-110462088D01*
X147845020Y-110445800D01*
X147847926Y-110441137D01*
X147835960Y-110417005D01*
X147800604Y-110388185D01*
X147785247Y-110378461D01*
X147741099Y-110361714D01*
X147681602Y-110352227D01*
X147615513Y-110350095D01*
X147551589Y-110355417D01*
G36*
X146954745Y-110351486D02*
X146906405Y-110361015D01*
X146878886Y-110375125D01*
X146849936Y-110398568D01*
X146891124Y-110450571D01*
X146916518Y-110482064D01*
X146933762Y-110497428D01*
X146950898Y-110499776D01*
X146975973Y-110492217D01*
X146987743Y-110487941D01*
X147035730Y-110481631D01*
X147079676Y-110495156D01*
X147111940Y-110525710D01*
X147117181Y-110535452D01*
X147122888Y-110561258D01*
X147127294Y-110608817D01*
X147130189Y-110674758D01*
X147131369Y-110755710D01*
X147131386Y-110767226D01*
X147131386Y-110967822D01*
X147269703Y-110967822D01*
X147269703Y-110351683D01*
X147200544Y-110351683D01*
X147160667Y-110352725D01*
X147139893Y-110357358D01*
X147132211Y-110367849D01*
X147131386Y-110377745D01*
X147131386Y-110403806D01*
X147098255Y-110377745D01*
X147060265Y-110359965D01*
X147009230Y-110351174D01*
X146954745Y-110351486D01*
X146954745Y-110351486D01*
G37*
X146954745Y-110351486D02*
X146906405Y-110361015D01*
X146878886Y-110375125D01*
X146849936Y-110398568D01*
X146891124Y-110450571D01*
X146916518Y-110482064D01*
X146933762Y-110497428D01*
X146950898Y-110499776D01*
X146975973Y-110492217D01*
X146987743Y-110487941D01*
X147035730Y-110481631D01*
X147079676Y-110495156D01*
X147111940Y-110525710D01*
X147117181Y-110535452D01*
X147122888Y-110561258D01*
X147127294Y-110608817D01*
X147130189Y-110674758D01*
X147131369Y-110755710D01*
X147131386Y-110767226D01*
X147131386Y-110967822D01*
X147269703Y-110967822D01*
X147269703Y-110351683D01*
X147200544Y-110351683D01*
X147160667Y-110352725D01*
X147139893Y-110357358D01*
X147132211Y-110367849D01*
X147131386Y-110377745D01*
X147131386Y-110403806D01*
X147098255Y-110377745D01*
X147060265Y-110359965D01*
X147009230Y-110351174D01*
X146954745Y-110351486D01*
G36*
X146557419Y-110354970D02*
X146497315Y-110370597D01*
X146446979Y-110402848D01*
X146422607Y-110426940D01*
X146382655Y-110483895D01*
X146359758Y-110549965D01*
X146351892Y-110631182D01*
X146351852Y-110637748D01*
X146351782Y-110703763D01*
X146731736Y-110703763D01*
X146723637Y-110738342D01*
X146709013Y-110769659D01*
X146683419Y-110802291D01*
X146678065Y-110807500D01*
X146632057Y-110835694D01*
X146579590Y-110840475D01*
X146519197Y-110821926D01*
X146508960Y-110816931D01*
X146477561Y-110801745D01*
X146456530Y-110793094D01*
X146452861Y-110792293D01*
X146440052Y-110800063D01*
X146415622Y-110819072D01*
X146403221Y-110829460D01*
X146377524Y-110853321D01*
X146369085Y-110869077D01*
X146374942Y-110883571D01*
X146378072Y-110887534D01*
X146399275Y-110904879D01*
X146434262Y-110925959D01*
X146458663Y-110938265D01*
X146527928Y-110959946D01*
X146604612Y-110966971D01*
X146677235Y-110958647D01*
X146697574Y-110952686D01*
X146760524Y-110918952D01*
X146807185Y-110867045D01*
X146837827Y-110796459D01*
X146852718Y-110706692D01*
X146854353Y-110659753D01*
X146849579Y-110591413D01*
X146729010Y-110591413D01*
X146717348Y-110596465D01*
X146686002Y-110600429D01*
X146640429Y-110602768D01*
X146609554Y-110603169D01*
X146554019Y-110602783D01*
X146518967Y-110600975D01*
X146499738Y-110596773D01*
X146491670Y-110589203D01*
X146490099Y-110578218D01*
X146500879Y-110544381D01*
X146528020Y-110510940D01*
X146563723Y-110485272D01*
X146599440Y-110474772D01*
X146647952Y-110484086D01*
X146689947Y-110511013D01*
X146719064Y-110549827D01*
X146729010Y-110591413D01*
X146849579Y-110591413D01*
X146847401Y-110560236D01*
X146825945Y-110480949D01*
X146789530Y-110421263D01*
X146737703Y-110380549D01*
X146670010Y-110358179D01*
X146633338Y-110353871D01*
X146557419Y-110354970D01*
X146557419Y-110354970D01*
G37*
X146557419Y-110354970D02*
X146497315Y-110370597D01*
X146446979Y-110402848D01*
X146422607Y-110426940D01*
X146382655Y-110483895D01*
X146359758Y-110549965D01*
X146351892Y-110631182D01*
X146351852Y-110637748D01*
X146351782Y-110703763D01*
X146731736Y-110703763D01*
X146723637Y-110738342D01*
X146709013Y-110769659D01*
X146683419Y-110802291D01*
X146678065Y-110807500D01*
X146632057Y-110835694D01*
X146579590Y-110840475D01*
X146519197Y-110821926D01*
X146508960Y-110816931D01*
X146477561Y-110801745D01*
X146456530Y-110793094D01*
X146452861Y-110792293D01*
X146440052Y-110800063D01*
X146415622Y-110819072D01*
X146403221Y-110829460D01*
X146377524Y-110853321D01*
X146369085Y-110869077D01*
X146374942Y-110883571D01*
X146378072Y-110887534D01*
X146399275Y-110904879D01*
X146434262Y-110925959D01*
X146458663Y-110938265D01*
X146527928Y-110959946D01*
X146604612Y-110966971D01*
X146677235Y-110958647D01*
X146697574Y-110952686D01*
X146760524Y-110918952D01*
X146807185Y-110867045D01*
X146837827Y-110796459D01*
X146852718Y-110706692D01*
X146854353Y-110659753D01*
X146849579Y-110591413D01*
X146729010Y-110591413D01*
X146717348Y-110596465D01*
X146686002Y-110600429D01*
X146640429Y-110602768D01*
X146609554Y-110603169D01*
X146554019Y-110602783D01*
X146518967Y-110600975D01*
X146499738Y-110596773D01*
X146491670Y-110589203D01*
X146490099Y-110578218D01*
X146500879Y-110544381D01*
X146528020Y-110510940D01*
X146563723Y-110485272D01*
X146599440Y-110474772D01*
X146647952Y-110484086D01*
X146689947Y-110511013D01*
X146719064Y-110549827D01*
X146729010Y-110591413D01*
X146849579Y-110591413D01*
X146847401Y-110560236D01*
X146825945Y-110480949D01*
X146789530Y-110421263D01*
X146737703Y-110380549D01*
X146670010Y-110358179D01*
X146633338Y-110353871D01*
X146557419Y-110354970D01*
G36*
X151128261Y-109415148D02*
X151062479Y-109444231D01*
X151012540Y-109492793D01*
X150978374Y-109560908D01*
X150959907Y-109648651D01*
X150958583Y-109662351D01*
X150957546Y-109758939D01*
X150970993Y-109843602D01*
X150998108Y-109912221D01*
X151012627Y-109934294D01*
X151063201Y-109981011D01*
X151127609Y-110011268D01*
X151199666Y-110023824D01*
X151273185Y-110017439D01*
X151329072Y-109997772D01*
X151377132Y-109964629D01*
X151416412Y-109921175D01*
X151417092Y-109920158D01*
X151433044Y-109893338D01*
X151443410Y-109866368D01*
X151449688Y-109832332D01*
X151453373Y-109784310D01*
X151454997Y-109744931D01*
X151455672Y-109709219D01*
X151329955Y-109709219D01*
X151328726Y-109744770D01*
X151324266Y-109792094D01*
X151316397Y-109822465D01*
X151302207Y-109844072D01*
X151288917Y-109856694D01*
X151241802Y-109883122D01*
X151192505Y-109886653D01*
X151146593Y-109867639D01*
X151123638Y-109846331D01*
X151107096Y-109824859D01*
X151097421Y-109804313D01*
X151093174Y-109777574D01*
X151092920Y-109737523D01*
X151094228Y-109700638D01*
X151097043Y-109647947D01*
X151101505Y-109613772D01*
X151109548Y-109591480D01*
X151123103Y-109574442D01*
X151133845Y-109564703D01*
X151178777Y-109539123D01*
X151227249Y-109537847D01*
X151267894Y-109552999D01*
X151302567Y-109584642D01*
X151323224Y-109636620D01*
X151329955Y-109709219D01*
X151455672Y-109709219D01*
X151456479Y-109666621D01*
X151453948Y-109608056D01*
X151446362Y-109564007D01*
X151432681Y-109529248D01*
X151411865Y-109498551D01*
X151404147Y-109489436D01*
X151355889Y-109444021D01*
X151304128Y-109417493D01*
X151240828Y-109406379D01*
X151209961Y-109405471D01*
X151128261Y-109415148D01*
X151128261Y-109415148D01*
G37*
X151128261Y-109415148D02*
X151062479Y-109444231D01*
X151012540Y-109492793D01*
X150978374Y-109560908D01*
X150959907Y-109648651D01*
X150958583Y-109662351D01*
X150957546Y-109758939D01*
X150970993Y-109843602D01*
X150998108Y-109912221D01*
X151012627Y-109934294D01*
X151063201Y-109981011D01*
X151127609Y-110011268D01*
X151199666Y-110023824D01*
X151273185Y-110017439D01*
X151329072Y-109997772D01*
X151377132Y-109964629D01*
X151416412Y-109921175D01*
X151417092Y-109920158D01*
X151433044Y-109893338D01*
X151443410Y-109866368D01*
X151449688Y-109832332D01*
X151453373Y-109784310D01*
X151454997Y-109744931D01*
X151455672Y-109709219D01*
X151329955Y-109709219D01*
X151328726Y-109744770D01*
X151324266Y-109792094D01*
X151316397Y-109822465D01*
X151302207Y-109844072D01*
X151288917Y-109856694D01*
X151241802Y-109883122D01*
X151192505Y-109886653D01*
X151146593Y-109867639D01*
X151123638Y-109846331D01*
X151107096Y-109824859D01*
X151097421Y-109804313D01*
X151093174Y-109777574D01*
X151092920Y-109737523D01*
X151094228Y-109700638D01*
X151097043Y-109647947D01*
X151101505Y-109613772D01*
X151109548Y-109591480D01*
X151123103Y-109574442D01*
X151133845Y-109564703D01*
X151178777Y-109539123D01*
X151227249Y-109537847D01*
X151267894Y-109552999D01*
X151302567Y-109584642D01*
X151323224Y-109636620D01*
X151329955Y-109709219D01*
X151455672Y-109709219D01*
X151456479Y-109666621D01*
X151453948Y-109608056D01*
X151446362Y-109564007D01*
X151432681Y-109529248D01*
X151411865Y-109498551D01*
X151404147Y-109489436D01*
X151355889Y-109444021D01*
X151304128Y-109417493D01*
X151240828Y-109406379D01*
X151209961Y-109405471D01*
X151128261Y-109415148D01*
G36*
X149946699Y-109422614D02*
X149934168Y-109428514D01*
X149890799Y-109460283D01*
X149849790Y-109506646D01*
X149819168Y-109557696D01*
X149810459Y-109581166D01*
X149802512Y-109623091D01*
X149797774Y-109673757D01*
X149797199Y-109694679D01*
X149797129Y-109760693D01*
X150177083Y-109760693D01*
X150168983Y-109795273D01*
X150149104Y-109836170D01*
X150114347Y-109871514D01*
X150072998Y-109894282D01*
X150046649Y-109899010D01*
X150010916Y-109893273D01*
X149968282Y-109878882D01*
X149953799Y-109872262D01*
X149900240Y-109845513D01*
X149854533Y-109880376D01*
X149828158Y-109903955D01*
X149814124Y-109923417D01*
X149813414Y-109929129D01*
X149825951Y-109942973D01*
X149853428Y-109964012D01*
X149878366Y-109980425D01*
X149945664Y-110009930D01*
X150021110Y-110023284D01*
X150095888Y-110019812D01*
X150155495Y-110001663D01*
X150216941Y-109962784D01*
X150260608Y-109911595D01*
X150287926Y-109845367D01*
X150300322Y-109761371D01*
X150301421Y-109722936D01*
X150297022Y-109634861D01*
X150296482Y-109632299D01*
X150170582Y-109632299D01*
X150167115Y-109640558D01*
X150152863Y-109645113D01*
X150123470Y-109647065D01*
X150074575Y-109647517D01*
X150055748Y-109647525D01*
X149998467Y-109646843D01*
X149962141Y-109644364D01*
X149942604Y-109639443D01*
X149935690Y-109631434D01*
X149935445Y-109628862D01*
X149943336Y-109608423D01*
X149963085Y-109579789D01*
X149971575Y-109569763D01*
X150003094Y-109541408D01*
X150035949Y-109530259D01*
X150053651Y-109529327D01*
X150101539Y-109540981D01*
X150141699Y-109572285D01*
X150167173Y-109617752D01*
X150167625Y-109619233D01*
X150170582Y-109632299D01*
X150296482Y-109632299D01*
X150282392Y-109565510D01*
X150256038Y-109510025D01*
X150223807Y-109470639D01*
X150164217Y-109427931D01*
X150094168Y-109405109D01*
X150019661Y-109403046D01*
X149946699Y-109422614D01*
X149946699Y-109422614D01*
G37*
X149946699Y-109422614D02*
X149934168Y-109428514D01*
X149890799Y-109460283D01*
X149849790Y-109506646D01*
X149819168Y-109557696D01*
X149810459Y-109581166D01*
X149802512Y-109623091D01*
X149797774Y-109673757D01*
X149797199Y-109694679D01*
X149797129Y-109760693D01*
X150177083Y-109760693D01*
X150168983Y-109795273D01*
X150149104Y-109836170D01*
X150114347Y-109871514D01*
X150072998Y-109894282D01*
X150046649Y-109899010D01*
X150010916Y-109893273D01*
X149968282Y-109878882D01*
X149953799Y-109872262D01*
X149900240Y-109845513D01*
X149854533Y-109880376D01*
X149828158Y-109903955D01*
X149814124Y-109923417D01*
X149813414Y-109929129D01*
X149825951Y-109942973D01*
X149853428Y-109964012D01*
X149878366Y-109980425D01*
X149945664Y-110009930D01*
X150021110Y-110023284D01*
X150095888Y-110019812D01*
X150155495Y-110001663D01*
X150216941Y-109962784D01*
X150260608Y-109911595D01*
X150287926Y-109845367D01*
X150300322Y-109761371D01*
X150301421Y-109722936D01*
X150297022Y-109634861D01*
X150296482Y-109632299D01*
X150170582Y-109632299D01*
X150167115Y-109640558D01*
X150152863Y-109645113D01*
X150123470Y-109647065D01*
X150074575Y-109647517D01*
X150055748Y-109647525D01*
X149998467Y-109646843D01*
X149962141Y-109644364D01*
X149942604Y-109639443D01*
X149935690Y-109631434D01*
X149935445Y-109628862D01*
X149943336Y-109608423D01*
X149963085Y-109579789D01*
X149971575Y-109569763D01*
X150003094Y-109541408D01*
X150035949Y-109530259D01*
X150053651Y-109529327D01*
X150101539Y-109540981D01*
X150141699Y-109572285D01*
X150167173Y-109617752D01*
X150167625Y-109619233D01*
X150170582Y-109632299D01*
X150296482Y-109632299D01*
X150282392Y-109565510D01*
X150256038Y-109510025D01*
X150223807Y-109470639D01*
X150164217Y-109427931D01*
X150094168Y-109405109D01*
X150019661Y-109403046D01*
X149946699Y-109422614D01*
G36*
X148575983Y-109406452D02*
X148528366Y-109415482D01*
X148478966Y-109434370D01*
X148473688Y-109436777D01*
X148436226Y-109456476D01*
X148410283Y-109474781D01*
X148401897Y-109486508D01*
X148409883Y-109505632D01*
X148429280Y-109533850D01*
X148437890Y-109544384D01*
X148473372Y-109585847D01*
X148519115Y-109558858D01*
X148562650Y-109540878D01*
X148612950Y-109531267D01*
X148661188Y-109530660D01*
X148698533Y-109539691D01*
X148707495Y-109545327D01*
X148724563Y-109571171D01*
X148726637Y-109600941D01*
X148713866Y-109624197D01*
X148706312Y-109628708D01*
X148683675Y-109634309D01*
X148643885Y-109640892D01*
X148594834Y-109647183D01*
X148585785Y-109648170D01*
X148507004Y-109661798D01*
X148449864Y-109684946D01*
X148411970Y-109719752D01*
X148390921Y-109768354D01*
X148384365Y-109827718D01*
X148393423Y-109895198D01*
X148422836Y-109948188D01*
X148472722Y-109986783D01*
X148543200Y-110011081D01*
X148621435Y-110020667D01*
X148685234Y-110020552D01*
X148736984Y-110011845D01*
X148772327Y-109999825D01*
X148816983Y-109978880D01*
X148858253Y-109954574D01*
X148872921Y-109943876D01*
X148910643Y-109913084D01*
X148865148Y-109867049D01*
X148819653Y-109821013D01*
X148767928Y-109855243D01*
X148716048Y-109880952D01*
X148660649Y-109894399D01*
X148607395Y-109895818D01*
X148561951Y-109885443D01*
X148529984Y-109863507D01*
X148519662Y-109844998D01*
X148521211Y-109815314D01*
X148546860Y-109792615D01*
X148596540Y-109776940D01*
X148650969Y-109769695D01*
X148734736Y-109755873D01*
X148796967Y-109729796D01*
X148838493Y-109690699D01*
X148860147Y-109637820D01*
X148863147Y-109575126D01*
X148848329Y-109509642D01*
X148814546Y-109460144D01*
X148761495Y-109426408D01*
X148688874Y-109408207D01*
X148635072Y-109404639D01*
X148575983Y-109406452D01*
X148575983Y-109406452D01*
G37*
X148575983Y-109406452D02*
X148528366Y-109415482D01*
X148478966Y-109434370D01*
X148473688Y-109436777D01*
X148436226Y-109456476D01*
X148410283Y-109474781D01*
X148401897Y-109486508D01*
X148409883Y-109505632D01*
X148429280Y-109533850D01*
X148437890Y-109544384D01*
X148473372Y-109585847D01*
X148519115Y-109558858D01*
X148562650Y-109540878D01*
X148612950Y-109531267D01*
X148661188Y-109530660D01*
X148698533Y-109539691D01*
X148707495Y-109545327D01*
X148724563Y-109571171D01*
X148726637Y-109600941D01*
X148713866Y-109624197D01*
X148706312Y-109628708D01*
X148683675Y-109634309D01*
X148643885Y-109640892D01*
X148594834Y-109647183D01*
X148585785Y-109648170D01*
X148507004Y-109661798D01*
X148449864Y-109684946D01*
X148411970Y-109719752D01*
X148390921Y-109768354D01*
X148384365Y-109827718D01*
X148393423Y-109895198D01*
X148422836Y-109948188D01*
X148472722Y-109986783D01*
X148543200Y-110011081D01*
X148621435Y-110020667D01*
X148685234Y-110020552D01*
X148736984Y-110011845D01*
X148772327Y-109999825D01*
X148816983Y-109978880D01*
X148858253Y-109954574D01*
X148872921Y-109943876D01*
X148910643Y-109913084D01*
X148865148Y-109867049D01*
X148819653Y-109821013D01*
X148767928Y-109855243D01*
X148716048Y-109880952D01*
X148660649Y-109894399D01*
X148607395Y-109895818D01*
X148561951Y-109885443D01*
X148529984Y-109863507D01*
X148519662Y-109844998D01*
X148521211Y-109815314D01*
X148546860Y-109792615D01*
X148596540Y-109776940D01*
X148650969Y-109769695D01*
X148734736Y-109755873D01*
X148796967Y-109729796D01*
X148838493Y-109690699D01*
X148860147Y-109637820D01*
X148863147Y-109575126D01*
X148848329Y-109509642D01*
X148814546Y-109460144D01*
X148761495Y-109426408D01*
X148688874Y-109408207D01*
X148635072Y-109404639D01*
X148575983Y-109406452D01*
G36*
X147979238Y-109416055D02*
X147915637Y-109450692D01*
X147865877Y-109505372D01*
X147842432Y-109549842D01*
X147832366Y-109589121D01*
X147825844Y-109645116D01*
X147823049Y-109709621D01*
X147824164Y-109774429D01*
X147829374Y-109831334D01*
X147835459Y-109861727D01*
X147855986Y-109903306D01*
X147891537Y-109947468D01*
X147934381Y-109986087D01*
X147976789Y-110011034D01*
X147977823Y-110011430D01*
X148030447Y-110022331D01*
X148092812Y-110022601D01*
X148152076Y-110012676D01*
X148174960Y-110004722D01*
X148233898Y-109971300D01*
X148276110Y-109927511D01*
X148303844Y-109869538D01*
X148319349Y-109793565D01*
X148322857Y-109753771D01*
X148322410Y-109703766D01*
X148187624Y-109703766D01*
X148183083Y-109776732D01*
X148170014Y-109832334D01*
X148149244Y-109867861D01*
X148134448Y-109878020D01*
X148096536Y-109885104D01*
X148051473Y-109883007D01*
X148012513Y-109872812D01*
X148002296Y-109867204D01*
X147975341Y-109834538D01*
X147957549Y-109784545D01*
X147949976Y-109723705D01*
X147953675Y-109658497D01*
X147961943Y-109619253D01*
X147985680Y-109573805D01*
X148023151Y-109545396D01*
X148068280Y-109535573D01*
X148114989Y-109545887D01*
X148150868Y-109571112D01*
X148169723Y-109591925D01*
X148180728Y-109612439D01*
X148185974Y-109640203D01*
X148187551Y-109682762D01*
X148187624Y-109703766D01*
X148322410Y-109703766D01*
X148321906Y-109647580D01*
X148304612Y-109560501D01*
X148270971Y-109492530D01*
X148220982Y-109443664D01*
X148154644Y-109413899D01*
X148140399Y-109410448D01*
X148054790Y-109402345D01*
X147979238Y-109416055D01*
X147979238Y-109416055D01*
G37*
X147979238Y-109416055D02*
X147915637Y-109450692D01*
X147865877Y-109505372D01*
X147842432Y-109549842D01*
X147832366Y-109589121D01*
X147825844Y-109645116D01*
X147823049Y-109709621D01*
X147824164Y-109774429D01*
X147829374Y-109831334D01*
X147835459Y-109861727D01*
X147855986Y-109903306D01*
X147891537Y-109947468D01*
X147934381Y-109986087D01*
X147976789Y-110011034D01*
X147977823Y-110011430D01*
X148030447Y-110022331D01*
X148092812Y-110022601D01*
X148152076Y-110012676D01*
X148174960Y-110004722D01*
X148233898Y-109971300D01*
X148276110Y-109927511D01*
X148303844Y-109869538D01*
X148319349Y-109793565D01*
X148322857Y-109753771D01*
X148322410Y-109703766D01*
X148187624Y-109703766D01*
X148183083Y-109776732D01*
X148170014Y-109832334D01*
X148149244Y-109867861D01*
X148134448Y-109878020D01*
X148096536Y-109885104D01*
X148051473Y-109883007D01*
X148012513Y-109872812D01*
X148002296Y-109867204D01*
X147975341Y-109834538D01*
X147957549Y-109784545D01*
X147949976Y-109723705D01*
X147953675Y-109658497D01*
X147961943Y-109619253D01*
X147985680Y-109573805D01*
X148023151Y-109545396D01*
X148068280Y-109535573D01*
X148114989Y-109545887D01*
X148150868Y-109571112D01*
X148169723Y-109591925D01*
X148180728Y-109612439D01*
X148185974Y-109640203D01*
X148187551Y-109682762D01*
X148187624Y-109703766D01*
X148322410Y-109703766D01*
X148321906Y-109647580D01*
X148304612Y-109560501D01*
X148270971Y-109492530D01*
X148220982Y-109443664D01*
X148154644Y-109413899D01*
X148140399Y-109410448D01*
X148054790Y-109402345D01*
X147979238Y-109416055D01*
G36*
X147596633Y-109604342D02*
X147595445Y-109696563D01*
X147591103Y-109766610D01*
X147582442Y-109817381D01*
X147568296Y-109851772D01*
X147547500Y-109872679D01*
X147518890Y-109883000D01*
X147483465Y-109885636D01*
X147446364Y-109882682D01*
X147418182Y-109871889D01*
X147397757Y-109850360D01*
X147383921Y-109815199D01*
X147375509Y-109763510D01*
X147371357Y-109692394D01*
X147370297Y-109604342D01*
X147370297Y-109408614D01*
X147231980Y-109408614D01*
X147231980Y-110012179D01*
X147301138Y-110012179D01*
X147342830Y-110010489D01*
X147364299Y-110004556D01*
X147370297Y-109993293D01*
X147373909Y-109983261D01*
X147388286Y-109985383D01*
X147417264Y-109999580D01*
X147483681Y-110021480D01*
X147554125Y-110019928D01*
X147621623Y-109996147D01*
X147653767Y-109977362D01*
X147678285Y-109957022D01*
X147696196Y-109931573D01*
X147708521Y-109897458D01*
X147716277Y-109851121D01*
X147720484Y-109789007D01*
X147722160Y-109707561D01*
X147722376Y-109644578D01*
X147722376Y-109408614D01*
X147596633Y-109408614D01*
X147596633Y-109604342D01*
X147596633Y-109604342D01*
G37*
X147596633Y-109604342D02*
X147595445Y-109696563D01*
X147591103Y-109766610D01*
X147582442Y-109817381D01*
X147568296Y-109851772D01*
X147547500Y-109872679D01*
X147518890Y-109883000D01*
X147483465Y-109885636D01*
X147446364Y-109882682D01*
X147418182Y-109871889D01*
X147397757Y-109850360D01*
X147383921Y-109815199D01*
X147375509Y-109763510D01*
X147371357Y-109692394D01*
X147370297Y-109604342D01*
X147370297Y-109408614D01*
X147231980Y-109408614D01*
X147231980Y-110012179D01*
X147301138Y-110012179D01*
X147342830Y-110010489D01*
X147364299Y-110004556D01*
X147370297Y-109993293D01*
X147373909Y-109983261D01*
X147388286Y-109985383D01*
X147417264Y-109999580D01*
X147483681Y-110021480D01*
X147554125Y-110019928D01*
X147621623Y-109996147D01*
X147653767Y-109977362D01*
X147678285Y-109957022D01*
X147696196Y-109931573D01*
X147708521Y-109897458D01*
X147716277Y-109851121D01*
X147720484Y-109789007D01*
X147722160Y-109707561D01*
X147722376Y-109644578D01*
X147722376Y-109408614D01*
X147596633Y-109408614D01*
X147596633Y-109604342D01*
G36*
X146372774Y-109413880D02*
X146299920Y-109444830D01*
X146276973Y-109459895D01*
X146247646Y-109483048D01*
X146229236Y-109501253D01*
X146226039Y-109507183D01*
X146235065Y-109520340D01*
X146258163Y-109542667D01*
X146276656Y-109558250D01*
X146327272Y-109598926D01*
X146367240Y-109565295D01*
X146398126Y-109543584D01*
X146428241Y-109536090D01*
X146462708Y-109537920D01*
X146517439Y-109551528D01*
X146555114Y-109579772D01*
X146578009Y-109625433D01*
X146588403Y-109691289D01*
X146588405Y-109691331D01*
X146587506Y-109764939D01*
X146573537Y-109818946D01*
X146545672Y-109855716D01*
X146526675Y-109868168D01*
X146476224Y-109883673D01*
X146422337Y-109883683D01*
X146375454Y-109868638D01*
X146364356Y-109861287D01*
X146336524Y-109842511D01*
X146314764Y-109839434D01*
X146291296Y-109853409D01*
X146265351Y-109878510D01*
X146224284Y-109920880D01*
X146269879Y-109958464D01*
X146340326Y-110000882D01*
X146419767Y-110021785D01*
X146502785Y-110020272D01*
X146557306Y-110006411D01*
X146621030Y-109972135D01*
X146671995Y-109918212D01*
X146695149Y-109880149D01*
X146713901Y-109825536D01*
X146723285Y-109756369D01*
X146723357Y-109681407D01*
X146714176Y-109609409D01*
X146695801Y-109549137D01*
X146692907Y-109542958D01*
X146650048Y-109482351D01*
X146592021Y-109438224D01*
X146523409Y-109411493D01*
X146448799Y-109403073D01*
X146372774Y-109413880D01*
X146372774Y-109413880D01*
G37*
X146372774Y-109413880D02*
X146299920Y-109444830D01*
X146276973Y-109459895D01*
X146247646Y-109483048D01*
X146229236Y-109501253D01*
X146226039Y-109507183D01*
X146235065Y-109520340D01*
X146258163Y-109542667D01*
X146276656Y-109558250D01*
X146327272Y-109598926D01*
X146367240Y-109565295D01*
X146398126Y-109543584D01*
X146428241Y-109536090D01*
X146462708Y-109537920D01*
X146517439Y-109551528D01*
X146555114Y-109579772D01*
X146578009Y-109625433D01*
X146588403Y-109691289D01*
X146588405Y-109691331D01*
X146587506Y-109764939D01*
X146573537Y-109818946D01*
X146545672Y-109855716D01*
X146526675Y-109868168D01*
X146476224Y-109883673D01*
X146422337Y-109883683D01*
X146375454Y-109868638D01*
X146364356Y-109861287D01*
X146336524Y-109842511D01*
X146314764Y-109839434D01*
X146291296Y-109853409D01*
X146265351Y-109878510D01*
X146224284Y-109920880D01*
X146269879Y-109958464D01*
X146340326Y-110000882D01*
X146419767Y-110021785D01*
X146502785Y-110020272D01*
X146557306Y-110006411D01*
X146621030Y-109972135D01*
X146671995Y-109918212D01*
X146695149Y-109880149D01*
X146713901Y-109825536D01*
X146723285Y-109756369D01*
X146723357Y-109681407D01*
X146714176Y-109609409D01*
X146695801Y-109549137D01*
X146692907Y-109542958D01*
X146650048Y-109482351D01*
X146592021Y-109438224D01*
X146523409Y-109411493D01*
X146448799Y-109403073D01*
X146372774Y-109413880D01*
G36*
X145912102Y-109406457D02*
X145879904Y-109414279D01*
X145818175Y-109442921D01*
X145765390Y-109486667D01*
X145728859Y-109539117D01*
X145723840Y-109550893D01*
X145716955Y-109581740D01*
X145712136Y-109627371D01*
X145710495Y-109673492D01*
X145710495Y-109760693D01*
X145892822Y-109760693D01*
X145968021Y-109760978D01*
X146020997Y-109762704D01*
X146054675Y-109767181D01*
X146071980Y-109775720D01*
X146075837Y-109789630D01*
X146069171Y-109810222D01*
X146057230Y-109834315D01*
X146023920Y-109874525D01*
X145977632Y-109894558D01*
X145921056Y-109893905D01*
X145856969Y-109872101D01*
X145801583Y-109845193D01*
X145755625Y-109881532D01*
X145709667Y-109917872D01*
X145752904Y-109957819D01*
X145810626Y-109995563D01*
X145881614Y-110018320D01*
X145957971Y-110024688D01*
X146031801Y-110013268D01*
X146043713Y-110009393D01*
X146108601Y-109975506D01*
X146156870Y-109924986D01*
X146189535Y-109856325D01*
X146207615Y-109768014D01*
X146207825Y-109766121D01*
X146209444Y-109669878D01*
X146202900Y-109635542D01*
X146075148Y-109635542D01*
X146063416Y-109640822D01*
X146031562Y-109644867D01*
X145984603Y-109647176D01*
X145954846Y-109647525D01*
X145899352Y-109647306D01*
X145864654Y-109645916D01*
X145846399Y-109642251D01*
X145840234Y-109635210D01*
X145841805Y-109623690D01*
X145843122Y-109619233D01*
X145865618Y-109577355D01*
X145900997Y-109543604D01*
X145932220Y-109528773D01*
X145973699Y-109529668D01*
X146015731Y-109548164D01*
X146050988Y-109578786D01*
X146072146Y-109616062D01*
X146075148Y-109635542D01*
X146202900Y-109635542D01*
X146193310Y-109585229D01*
X146161302Y-109514191D01*
X146115299Y-109458779D01*
X146057179Y-109421009D01*
X145988820Y-109402896D01*
X145912102Y-109406457D01*
X145912102Y-109406457D01*
G37*
X145912102Y-109406457D02*
X145879904Y-109414279D01*
X145818175Y-109442921D01*
X145765390Y-109486667D01*
X145728859Y-109539117D01*
X145723840Y-109550893D01*
X145716955Y-109581740D01*
X145712136Y-109627371D01*
X145710495Y-109673492D01*
X145710495Y-109760693D01*
X145892822Y-109760693D01*
X145968021Y-109760978D01*
X146020997Y-109762704D01*
X146054675Y-109767181D01*
X146071980Y-109775720D01*
X146075837Y-109789630D01*
X146069171Y-109810222D01*
X146057230Y-109834315D01*
X146023920Y-109874525D01*
X145977632Y-109894558D01*
X145921056Y-109893905D01*
X145856969Y-109872101D01*
X145801583Y-109845193D01*
X145755625Y-109881532D01*
X145709667Y-109917872D01*
X145752904Y-109957819D01*
X145810626Y-109995563D01*
X145881614Y-110018320D01*
X145957971Y-110024688D01*
X146031801Y-110013268D01*
X146043713Y-110009393D01*
X146108601Y-109975506D01*
X146156870Y-109924986D01*
X146189535Y-109856325D01*
X146207615Y-109768014D01*
X146207825Y-109766121D01*
X146209444Y-109669878D01*
X146202900Y-109635542D01*
X146075148Y-109635542D01*
X146063416Y-109640822D01*
X146031562Y-109644867D01*
X145984603Y-109647176D01*
X145954846Y-109647525D01*
X145899352Y-109647306D01*
X145864654Y-109645916D01*
X145846399Y-109642251D01*
X145840234Y-109635210D01*
X145841805Y-109623690D01*
X145843122Y-109619233D01*
X145865618Y-109577355D01*
X145900997Y-109543604D01*
X145932220Y-109528773D01*
X145973699Y-109529668D01*
X146015731Y-109548164D01*
X146050988Y-109578786D01*
X146072146Y-109616062D01*
X146075148Y-109635542D01*
X146202900Y-109635542D01*
X146193310Y-109585229D01*
X146161302Y-109514191D01*
X146115299Y-109458779D01*
X146057179Y-109421009D01*
X145988820Y-109402896D01*
X145912102Y-109406457D01*
G36*
X149344012Y-109419002D02*
X149312717Y-109433950D01*
X149282409Y-109455541D01*
X149259318Y-109480391D01*
X149242500Y-109512087D01*
X149231006Y-109554214D01*
X149223891Y-109610358D01*
X149220207Y-109684106D01*
X149219008Y-109779044D01*
X149218989Y-109788985D01*
X149218713Y-110012179D01*
X149357030Y-110012179D01*
X149357030Y-109806418D01*
X149357128Y-109730189D01*
X149357809Y-109674939D01*
X149359651Y-109636501D01*
X149363233Y-109610706D01*
X149369132Y-109593384D01*
X149377927Y-109580368D01*
X149390180Y-109567507D01*
X149433047Y-109539873D01*
X149479843Y-109534745D01*
X149524424Y-109552217D01*
X149539928Y-109565221D01*
X149551310Y-109577447D01*
X149559481Y-109590540D01*
X149564974Y-109608615D01*
X149568320Y-109635787D01*
X149570051Y-109676170D01*
X149570697Y-109733879D01*
X149570792Y-109804132D01*
X149570792Y-110012179D01*
X149709109Y-110012179D01*
X149709109Y-109408614D01*
X149639950Y-109408614D01*
X149598428Y-109410256D01*
X149577006Y-109416087D01*
X149570795Y-109427461D01*
X149570792Y-109427798D01*
X149567910Y-109438938D01*
X149555199Y-109437674D01*
X149529926Y-109425434D01*
X149472605Y-109407424D01*
X149407037Y-109405421D01*
X149344012Y-109419002D01*
X149344012Y-109419002D01*
G37*
X149344012Y-109419002D02*
X149312717Y-109433950D01*
X149282409Y-109455541D01*
X149259318Y-109480391D01*
X149242500Y-109512087D01*
X149231006Y-109554214D01*
X149223891Y-109610358D01*
X149220207Y-109684106D01*
X149219008Y-109779044D01*
X149218989Y-109788985D01*
X149218713Y-110012179D01*
X149357030Y-110012179D01*
X149357030Y-109806418D01*
X149357128Y-109730189D01*
X149357809Y-109674939D01*
X149359651Y-109636501D01*
X149363233Y-109610706D01*
X149369132Y-109593384D01*
X149377927Y-109580368D01*
X149390180Y-109567507D01*
X149433047Y-109539873D01*
X149479843Y-109534745D01*
X149524424Y-109552217D01*
X149539928Y-109565221D01*
X149551310Y-109577447D01*
X149559481Y-109590540D01*
X149564974Y-109608615D01*
X149568320Y-109635787D01*
X149570051Y-109676170D01*
X149570697Y-109733879D01*
X149570792Y-109804132D01*
X149570792Y-110012179D01*
X149709109Y-110012179D01*
X149709109Y-109408614D01*
X149639950Y-109408614D01*
X149598428Y-109410256D01*
X149577006Y-109416087D01*
X149570795Y-109427461D01*
X149570792Y-109427798D01*
X149567910Y-109438938D01*
X149555199Y-109437674D01*
X149529926Y-109425434D01*
X149472605Y-109407424D01*
X149407037Y-109405421D01*
X149344012Y-109419002D01*
G36*
X146790540Y-109408030D02*
X146747289Y-109421245D01*
X146719442Y-109437941D01*
X146710371Y-109451145D01*
X146712868Y-109466797D01*
X146729069Y-109491385D01*
X146742768Y-109508800D01*
X146771008Y-109540283D01*
X146792225Y-109553529D01*
X146810312Y-109552664D01*
X146863965Y-109539010D01*
X146903370Y-109539630D01*
X146935368Y-109555104D01*
X146946110Y-109564161D01*
X146980495Y-109596027D01*
X146980495Y-110012179D01*
X147118812Y-110012179D01*
X147118812Y-109408614D01*
X147049653Y-109408614D01*
X147008131Y-109410256D01*
X146986709Y-109416087D01*
X146980498Y-109427461D01*
X146980495Y-109427798D01*
X146977561Y-109439713D01*
X146964296Y-109438159D01*
X146945916Y-109429563D01*
X146907954Y-109413568D01*
X146877128Y-109403945D01*
X146837464Y-109401478D01*
X146790540Y-109408030D01*
X146790540Y-109408030D01*
G37*
X146790540Y-109408030D02*
X146747289Y-109421245D01*
X146719442Y-109437941D01*
X146710371Y-109451145D01*
X146712868Y-109466797D01*
X146729069Y-109491385D01*
X146742768Y-109508800D01*
X146771008Y-109540283D01*
X146792225Y-109553529D01*
X146810312Y-109552664D01*
X146863965Y-109539010D01*
X146903370Y-109539630D01*
X146935368Y-109555104D01*
X146946110Y-109564161D01*
X146980495Y-109596027D01*
X146980495Y-110012179D01*
X147118812Y-110012179D01*
X147118812Y-109408614D01*
X147049653Y-109408614D01*
X147008131Y-109410256D01*
X146986709Y-109416087D01*
X146980498Y-109427461D01*
X146980495Y-109427798D01*
X146977561Y-109439713D01*
X146964296Y-109438159D01*
X146945916Y-109429563D01*
X146907954Y-109413568D01*
X146877128Y-109403945D01*
X146837464Y-109401478D01*
X146790540Y-109408030D01*
G36*
X148213036Y-105240018D02*
X148156188Y-105541570D01*
X147736662Y-105714512D01*
X147485016Y-105543395D01*
X147414542Y-105495750D01*
X147350837Y-105453210D01*
X147296874Y-105417715D01*
X147255627Y-105391210D01*
X147230066Y-105375636D01*
X147223105Y-105372278D01*
X147210565Y-105380914D01*
X147183769Y-105404792D01*
X147145720Y-105440859D01*
X147099421Y-105486067D01*
X147047877Y-105537364D01*
X146994091Y-105591701D01*
X146941065Y-105646028D01*
X146891805Y-105697295D01*
X146849313Y-105742451D01*
X146816593Y-105778446D01*
X146796649Y-105802230D01*
X146791881Y-105810190D01*
X146798743Y-105824865D01*
X146817980Y-105857014D01*
X146847570Y-105903492D01*
X146885490Y-105961156D01*
X146929718Y-106026860D01*
X146955346Y-106064336D01*
X147002059Y-106132768D01*
X147043568Y-106194520D01*
X147077860Y-106246519D01*
X147102920Y-106285692D01*
X147116736Y-106308965D01*
X147118812Y-106313855D01*
X147114105Y-106327755D01*
X147101277Y-106360150D01*
X147082262Y-106406485D01*
X147058997Y-106462206D01*
X147033416Y-106522758D01*
X147007455Y-106583586D01*
X146983050Y-106640136D01*
X146962137Y-106687852D01*
X146946651Y-106722181D01*
X146938528Y-106738568D01*
X146938048Y-106739212D01*
X146925293Y-106742341D01*
X146891323Y-106749321D01*
X146839660Y-106759467D01*
X146773824Y-106772092D01*
X146697336Y-106786509D01*
X146652710Y-106794823D01*
X146570979Y-106810384D01*
X146497157Y-106825192D01*
X146434979Y-106838436D01*
X146388178Y-106849305D01*
X146360491Y-106856989D01*
X146354926Y-106859427D01*
X146349474Y-106875930D01*
X146345076Y-106913200D01*
X146341728Y-106966880D01*
X146339426Y-107032612D01*
X146338168Y-107106037D01*
X146337952Y-107182796D01*
X146338773Y-107258532D01*
X146340629Y-107328886D01*
X146343518Y-107389500D01*
X146347435Y-107436016D01*
X146352378Y-107464075D01*
X146355343Y-107469916D01*
X146373066Y-107476917D01*
X146410619Y-107486927D01*
X146463036Y-107498769D01*
X146525348Y-107511267D01*
X146547100Y-107515310D01*
X146651976Y-107534520D01*
X146734820Y-107549991D01*
X146798370Y-107562337D01*
X146845363Y-107572173D01*
X146878537Y-107580114D01*
X146900629Y-107586776D01*
X146914376Y-107592773D01*
X146922516Y-107598719D01*
X146923655Y-107599894D01*
X146935023Y-107618826D01*
X146952365Y-107655669D01*
X146973950Y-107705913D01*
X146998046Y-107765046D01*
X147022921Y-107828556D01*
X147046843Y-107891932D01*
X147068081Y-107950662D01*
X147084903Y-108000235D01*
X147095578Y-108036139D01*
X147098373Y-108053862D01*
X147098140Y-108054483D01*
X147088669Y-108068970D01*
X147067182Y-108100844D01*
X147035937Y-108146789D01*
X146997193Y-108203485D01*
X146953207Y-108267617D01*
X146940681Y-108285842D01*
X146896016Y-108351914D01*
X146856712Y-108412200D01*
X146824912Y-108463235D01*
X146802755Y-108501560D01*
X146792383Y-108523711D01*
X146791881Y-108526432D01*
X146800595Y-108540736D01*
X146824675Y-108569072D01*
X146861024Y-108608396D01*
X146906547Y-108655661D01*
X146958148Y-108707823D01*
X147012733Y-108761835D01*
X147067206Y-108814653D01*
X147118471Y-108863231D01*
X147163433Y-108904523D01*
X147198996Y-108935485D01*
X147222065Y-108953070D01*
X147228446Y-108955941D01*
X147243301Y-108949178D01*
X147273714Y-108930939D01*
X147314732Y-108904297D01*
X147346291Y-108882852D01*
X147403475Y-108843503D01*
X147471194Y-108797171D01*
X147539120Y-108750913D01*
X147575639Y-108726155D01*
X147699248Y-108642547D01*
X147803009Y-108698650D01*
X147850280Y-108723228D01*
X147890477Y-108742331D01*
X147917674Y-108753227D01*
X147924598Y-108754743D01*
X147932923Y-108743549D01*
X147949346Y-108711917D01*
X147972643Y-108662765D01*
X148001586Y-108599010D01*
X148034950Y-108523571D01*
X148071509Y-108439364D01*
X148110036Y-108349308D01*
X148149306Y-108256321D01*
X148188092Y-108163320D01*
X148225170Y-108073223D01*
X148259311Y-107988948D01*
X148289292Y-107913413D01*
X148313884Y-107849534D01*
X148331864Y-107800231D01*
X148342003Y-107768421D01*
X148343634Y-107757496D01*
X148330709Y-107743561D01*
X148302411Y-107720940D01*
X148264654Y-107694333D01*
X148261485Y-107692228D01*
X148163900Y-107614114D01*
X148085214Y-107522982D01*
X148026109Y-107421745D01*
X147987268Y-107313318D01*
X147969372Y-107200614D01*
X147973103Y-107086548D01*
X147999143Y-106974034D01*
X148048175Y-106865985D01*
X148062600Y-106842345D01*
X148137631Y-106746887D01*
X148226270Y-106670232D01*
X148325451Y-106612780D01*
X148432105Y-106574929D01*
X148543164Y-106557078D01*
X148655561Y-106559625D01*
X148766227Y-106582970D01*
X148872094Y-106627510D01*
X148970095Y-106693645D01*
X149000410Y-106720487D01*
X149077562Y-106804512D01*
X149133782Y-106892966D01*
X149172347Y-106992115D01*
X149193826Y-107090303D01*
X149199128Y-107200697D01*
X149181448Y-107311640D01*
X149142581Y-107419381D01*
X149084323Y-107520169D01*
X149008469Y-107610256D01*
X148916817Y-107685892D01*
X148904772Y-107693864D01*
X148866611Y-107719974D01*
X148837601Y-107742595D01*
X148823732Y-107757039D01*
X148823531Y-107757496D01*
X148826508Y-107773121D01*
X148838311Y-107808582D01*
X148857714Y-107860962D01*
X148883488Y-107927345D01*
X148914409Y-108004814D01*
X148949249Y-108090450D01*
X148986783Y-108181337D01*
X149025783Y-108274559D01*
X149065023Y-108367197D01*
X149103276Y-108456335D01*
X149139317Y-108539055D01*
X149171917Y-108612441D01*
X149199852Y-108673575D01*
X149221895Y-108719541D01*
X149236818Y-108747421D01*
X149242828Y-108754743D01*
X149261191Y-108749041D01*
X149295552Y-108733749D01*
X149339984Y-108711599D01*
X149364417Y-108698650D01*
X149468178Y-108642547D01*
X149591787Y-108726155D01*
X149654886Y-108768987D01*
X149723970Y-108816122D01*
X149788707Y-108860503D01*
X149821134Y-108882852D01*
X149866741Y-108913477D01*
X149905360Y-108937747D01*
X149931952Y-108952587D01*
X149940590Y-108955724D01*
X149953161Y-108947261D01*
X149980984Y-108923636D01*
X150021361Y-108887302D01*
X150071595Y-108840711D01*
X150128988Y-108786317D01*
X150165286Y-108751392D01*
X150228790Y-108688996D01*
X150283673Y-108633188D01*
X150327714Y-108586354D01*
X150358695Y-108550882D01*
X150374398Y-108529161D01*
X150375905Y-108524752D01*
X150368914Y-108507985D01*
X150349594Y-108474082D01*
X150320091Y-108426476D01*
X150282545Y-108368599D01*
X150239100Y-108303884D01*
X150226745Y-108285842D01*
X150181727Y-108220267D01*
X150141340Y-108161228D01*
X150107840Y-108112042D01*
X150083486Y-108076028D01*
X150070536Y-108056502D01*
X150069285Y-108054483D01*
X150071156Y-108038922D01*
X150081087Y-108004709D01*
X150097347Y-107956355D01*
X150118205Y-107898371D01*
X150141927Y-107835270D01*
X150166784Y-107771563D01*
X150191042Y-107711761D01*
X150212971Y-107660376D01*
X150230838Y-107621919D01*
X150242913Y-107600902D01*
X150243771Y-107599894D01*
X150251154Y-107593888D01*
X150263625Y-107587948D01*
X150283920Y-107581460D01*
X150314778Y-107573809D01*
X150358934Y-107564380D01*
X150419126Y-107552559D01*
X150498093Y-107537729D01*
X150598570Y-107519277D01*
X150620325Y-107515310D01*
X150684802Y-107502853D01*
X150741011Y-107490666D01*
X150783987Y-107479926D01*
X150808760Y-107471809D01*
X150812082Y-107469916D01*
X150817556Y-107453138D01*
X150822006Y-107415645D01*
X150825428Y-107361794D01*
X150827819Y-107295944D01*
X150829177Y-107222453D01*
X150829499Y-107145680D01*
X150828781Y-107069983D01*
X150827021Y-106999720D01*
X150824216Y-106939250D01*
X150820362Y-106892930D01*
X150815457Y-106865119D01*
X150812500Y-106859427D01*
X150796037Y-106853686D01*
X150758551Y-106844345D01*
X150703775Y-106832215D01*
X150635445Y-106818107D01*
X150557294Y-106802830D01*
X150514716Y-106794823D01*
X150433929Y-106779721D01*
X150361887Y-106766040D01*
X150302111Y-106754467D01*
X150258121Y-106745687D01*
X150233439Y-106740387D01*
X150229377Y-106739212D01*
X150222511Y-106725965D01*
X150207998Y-106694057D01*
X150187771Y-106648047D01*
X150163766Y-106592492D01*
X150137918Y-106531953D01*
X150112160Y-106470986D01*
X150088427Y-106414151D01*
X150068654Y-106366006D01*
X150054776Y-106331110D01*
X150048726Y-106314021D01*
X150048614Y-106313274D01*
X150055472Y-106299793D01*
X150074698Y-106268770D01*
X150104272Y-106223289D01*
X150142173Y-106166432D01*
X150186380Y-106101283D01*
X150212079Y-106063862D01*
X150258907Y-105995247D01*
X150300499Y-105932952D01*
X150334825Y-105880129D01*
X150359857Y-105839927D01*
X150373565Y-105815500D01*
X150375544Y-105810024D01*
X150367034Y-105797278D01*
X150343507Y-105770063D01*
X150307968Y-105731428D01*
X150263423Y-105684423D01*
X150212877Y-105632095D01*
X150159336Y-105577495D01*
X150105805Y-105523670D01*
X150055289Y-105473670D01*
X150010794Y-105430543D01*
X149975325Y-105397339D01*
X149951887Y-105377106D01*
X149944046Y-105372278D01*
X149931280Y-105379067D01*
X149900744Y-105398142D01*
X149855410Y-105427561D01*
X149798244Y-105465381D01*
X149732216Y-105509661D01*
X149682410Y-105543395D01*
X149430764Y-105714512D01*
X149221001Y-105628041D01*
X149011237Y-105541570D01*
X148954389Y-105240018D01*
X148897540Y-104938466D01*
X148269885Y-104938466D01*
X148213036Y-105240018D01*
X148213036Y-105240018D01*
G37*
X148213036Y-105240018D02*
X148156188Y-105541570D01*
X147736662Y-105714512D01*
X147485016Y-105543395D01*
X147414542Y-105495750D01*
X147350837Y-105453210D01*
X147296874Y-105417715D01*
X147255627Y-105391210D01*
X147230066Y-105375636D01*
X147223105Y-105372278D01*
X147210565Y-105380914D01*
X147183769Y-105404792D01*
X147145720Y-105440859D01*
X147099421Y-105486067D01*
X147047877Y-105537364D01*
X146994091Y-105591701D01*
X146941065Y-105646028D01*
X146891805Y-105697295D01*
X146849313Y-105742451D01*
X146816593Y-105778446D01*
X146796649Y-105802230D01*
X146791881Y-105810190D01*
X146798743Y-105824865D01*
X146817980Y-105857014D01*
X146847570Y-105903492D01*
X146885490Y-105961156D01*
X146929718Y-106026860D01*
X146955346Y-106064336D01*
X147002059Y-106132768D01*
X147043568Y-106194520D01*
X147077860Y-106246519D01*
X147102920Y-106285692D01*
X147116736Y-106308965D01*
X147118812Y-106313855D01*
X147114105Y-106327755D01*
X147101277Y-106360150D01*
X147082262Y-106406485D01*
X147058997Y-106462206D01*
X147033416Y-106522758D01*
X147007455Y-106583586D01*
X146983050Y-106640136D01*
X146962137Y-106687852D01*
X146946651Y-106722181D01*
X146938528Y-106738568D01*
X146938048Y-106739212D01*
X146925293Y-106742341D01*
X146891323Y-106749321D01*
X146839660Y-106759467D01*
X146773824Y-106772092D01*
X146697336Y-106786509D01*
X146652710Y-106794823D01*
X146570979Y-106810384D01*
X146497157Y-106825192D01*
X146434979Y-106838436D01*
X146388178Y-106849305D01*
X146360491Y-106856989D01*
X146354926Y-106859427D01*
X146349474Y-106875930D01*
X146345076Y-106913200D01*
X146341728Y-106966880D01*
X146339426Y-107032612D01*
X146338168Y-107106037D01*
X146337952Y-107182796D01*
X146338773Y-107258532D01*
X146340629Y-107328886D01*
X146343518Y-107389500D01*
X146347435Y-107436016D01*
X146352378Y-107464075D01*
X146355343Y-107469916D01*
X146373066Y-107476917D01*
X146410619Y-107486927D01*
X146463036Y-107498769D01*
X146525348Y-107511267D01*
X146547100Y-107515310D01*
X146651976Y-107534520D01*
X146734820Y-107549991D01*
X146798370Y-107562337D01*
X146845363Y-107572173D01*
X146878537Y-107580114D01*
X146900629Y-107586776D01*
X146914376Y-107592773D01*
X146922516Y-107598719D01*
X146923655Y-107599894D01*
X146935023Y-107618826D01*
X146952365Y-107655669D01*
X146973950Y-107705913D01*
X146998046Y-107765046D01*
X147022921Y-107828556D01*
X147046843Y-107891932D01*
X147068081Y-107950662D01*
X147084903Y-108000235D01*
X147095578Y-108036139D01*
X147098373Y-108053862D01*
X147098140Y-108054483D01*
X147088669Y-108068970D01*
X147067182Y-108100844D01*
X147035937Y-108146789D01*
X146997193Y-108203485D01*
X146953207Y-108267617D01*
X146940681Y-108285842D01*
X146896016Y-108351914D01*
X146856712Y-108412200D01*
X146824912Y-108463235D01*
X146802755Y-108501560D01*
X146792383Y-108523711D01*
X146791881Y-108526432D01*
X146800595Y-108540736D01*
X146824675Y-108569072D01*
X146861024Y-108608396D01*
X146906547Y-108655661D01*
X146958148Y-108707823D01*
X147012733Y-108761835D01*
X147067206Y-108814653D01*
X147118471Y-108863231D01*
X147163433Y-108904523D01*
X147198996Y-108935485D01*
X147222065Y-108953070D01*
X147228446Y-108955941D01*
X147243301Y-108949178D01*
X147273714Y-108930939D01*
X147314732Y-108904297D01*
X147346291Y-108882852D01*
X147403475Y-108843503D01*
X147471194Y-108797171D01*
X147539120Y-108750913D01*
X147575639Y-108726155D01*
X147699248Y-108642547D01*
X147803009Y-108698650D01*
X147850280Y-108723228D01*
X147890477Y-108742331D01*
X147917674Y-108753227D01*
X147924598Y-108754743D01*
X147932923Y-108743549D01*
X147949346Y-108711917D01*
X147972643Y-108662765D01*
X148001586Y-108599010D01*
X148034950Y-108523571D01*
X148071509Y-108439364D01*
X148110036Y-108349308D01*
X148149306Y-108256321D01*
X148188092Y-108163320D01*
X148225170Y-108073223D01*
X148259311Y-107988948D01*
X148289292Y-107913413D01*
X148313884Y-107849534D01*
X148331864Y-107800231D01*
X148342003Y-107768421D01*
X148343634Y-107757496D01*
X148330709Y-107743561D01*
X148302411Y-107720940D01*
X148264654Y-107694333D01*
X148261485Y-107692228D01*
X148163900Y-107614114D01*
X148085214Y-107522982D01*
X148026109Y-107421745D01*
X147987268Y-107313318D01*
X147969372Y-107200614D01*
X147973103Y-107086548D01*
X147999143Y-106974034D01*
X148048175Y-106865985D01*
X148062600Y-106842345D01*
X148137631Y-106746887D01*
X148226270Y-106670232D01*
X148325451Y-106612780D01*
X148432105Y-106574929D01*
X148543164Y-106557078D01*
X148655561Y-106559625D01*
X148766227Y-106582970D01*
X148872094Y-106627510D01*
X148970095Y-106693645D01*
X149000410Y-106720487D01*
X149077562Y-106804512D01*
X149133782Y-106892966D01*
X149172347Y-106992115D01*
X149193826Y-107090303D01*
X149199128Y-107200697D01*
X149181448Y-107311640D01*
X149142581Y-107419381D01*
X149084323Y-107520169D01*
X149008469Y-107610256D01*
X148916817Y-107685892D01*
X148904772Y-107693864D01*
X148866611Y-107719974D01*
X148837601Y-107742595D01*
X148823732Y-107757039D01*
X148823531Y-107757496D01*
X148826508Y-107773121D01*
X148838311Y-107808582D01*
X148857714Y-107860962D01*
X148883488Y-107927345D01*
X148914409Y-108004814D01*
X148949249Y-108090450D01*
X148986783Y-108181337D01*
X149025783Y-108274559D01*
X149065023Y-108367197D01*
X149103276Y-108456335D01*
X149139317Y-108539055D01*
X149171917Y-108612441D01*
X149199852Y-108673575D01*
X149221895Y-108719541D01*
X149236818Y-108747421D01*
X149242828Y-108754743D01*
X149261191Y-108749041D01*
X149295552Y-108733749D01*
X149339984Y-108711599D01*
X149364417Y-108698650D01*
X149468178Y-108642547D01*
X149591787Y-108726155D01*
X149654886Y-108768987D01*
X149723970Y-108816122D01*
X149788707Y-108860503D01*
X149821134Y-108882852D01*
X149866741Y-108913477D01*
X149905360Y-108937747D01*
X149931952Y-108952587D01*
X149940590Y-108955724D01*
X149953161Y-108947261D01*
X149980984Y-108923636D01*
X150021361Y-108887302D01*
X150071595Y-108840711D01*
X150128988Y-108786317D01*
X150165286Y-108751392D01*
X150228790Y-108688996D01*
X150283673Y-108633188D01*
X150327714Y-108586354D01*
X150358695Y-108550882D01*
X150374398Y-108529161D01*
X150375905Y-108524752D01*
X150368914Y-108507985D01*
X150349594Y-108474082D01*
X150320091Y-108426476D01*
X150282545Y-108368599D01*
X150239100Y-108303884D01*
X150226745Y-108285842D01*
X150181727Y-108220267D01*
X150141340Y-108161228D01*
X150107840Y-108112042D01*
X150083486Y-108076028D01*
X150070536Y-108056502D01*
X150069285Y-108054483D01*
X150071156Y-108038922D01*
X150081087Y-108004709D01*
X150097347Y-107956355D01*
X150118205Y-107898371D01*
X150141927Y-107835270D01*
X150166784Y-107771563D01*
X150191042Y-107711761D01*
X150212971Y-107660376D01*
X150230838Y-107621919D01*
X150242913Y-107600902D01*
X150243771Y-107599894D01*
X150251154Y-107593888D01*
X150263625Y-107587948D01*
X150283920Y-107581460D01*
X150314778Y-107573809D01*
X150358934Y-107564380D01*
X150419126Y-107552559D01*
X150498093Y-107537729D01*
X150598570Y-107519277D01*
X150620325Y-107515310D01*
X150684802Y-107502853D01*
X150741011Y-107490666D01*
X150783987Y-107479926D01*
X150808760Y-107471809D01*
X150812082Y-107469916D01*
X150817556Y-107453138D01*
X150822006Y-107415645D01*
X150825428Y-107361794D01*
X150827819Y-107295944D01*
X150829177Y-107222453D01*
X150829499Y-107145680D01*
X150828781Y-107069983D01*
X150827021Y-106999720D01*
X150824216Y-106939250D01*
X150820362Y-106892930D01*
X150815457Y-106865119D01*
X150812500Y-106859427D01*
X150796037Y-106853686D01*
X150758551Y-106844345D01*
X150703775Y-106832215D01*
X150635445Y-106818107D01*
X150557294Y-106802830D01*
X150514716Y-106794823D01*
X150433929Y-106779721D01*
X150361887Y-106766040D01*
X150302111Y-106754467D01*
X150258121Y-106745687D01*
X150233439Y-106740387D01*
X150229377Y-106739212D01*
X150222511Y-106725965D01*
X150207998Y-106694057D01*
X150187771Y-106648047D01*
X150163766Y-106592492D01*
X150137918Y-106531953D01*
X150112160Y-106470986D01*
X150088427Y-106414151D01*
X150068654Y-106366006D01*
X150054776Y-106331110D01*
X150048726Y-106314021D01*
X150048614Y-106313274D01*
X150055472Y-106299793D01*
X150074698Y-106268770D01*
X150104272Y-106223289D01*
X150142173Y-106166432D01*
X150186380Y-106101283D01*
X150212079Y-106063862D01*
X150258907Y-105995247D01*
X150300499Y-105932952D01*
X150334825Y-105880129D01*
X150359857Y-105839927D01*
X150373565Y-105815500D01*
X150375544Y-105810024D01*
X150367034Y-105797278D01*
X150343507Y-105770063D01*
X150307968Y-105731428D01*
X150263423Y-105684423D01*
X150212877Y-105632095D01*
X150159336Y-105577495D01*
X150105805Y-105523670D01*
X150055289Y-105473670D01*
X150010794Y-105430543D01*
X149975325Y-105397339D01*
X149951887Y-105377106D01*
X149944046Y-105372278D01*
X149931280Y-105379067D01*
X149900744Y-105398142D01*
X149855410Y-105427561D01*
X149798244Y-105465381D01*
X149732216Y-105509661D01*
X149682410Y-105543395D01*
X149430764Y-105714512D01*
X149221001Y-105628041D01*
X149011237Y-105541570D01*
X148954389Y-105240018D01*
X148897540Y-104938466D01*
X148269885Y-104938466D01*
X148213036Y-105240018D01*
M02*
