G04 #@! TF.FileFunction,Soldermask,Top*
%FSLAX46Y46*%
G04 Gerber Fmt 4.6, Leading zero omitted, Abs format (unit mm)*
G04 Created by KiCad (PCBNEW 4.0.4-stable) date 12/02/17 16:34:21*
%MOMM*%
%LPD*%
G01*
G04 APERTURE LIST*
%ADD10C,0.100000*%
%ADD11C,2.600000*%
%ADD12R,1.300000X1.700000*%
%ADD13R,2.400000X1.000000*%
%ADD14R,2.100000X2.100000*%
%ADD15O,2.100000X2.100000*%
G04 APERTURE END LIST*
D10*
D11*
X156718000Y-117856000D03*
D12*
X147590000Y-95250000D03*
X149490000Y-95250000D03*
X147590000Y-114808000D03*
X149490000Y-114808000D03*
D11*
X156718000Y-91694000D03*
X140462000Y-91694000D03*
X140462000Y-117856000D03*
D13*
X153672000Y-112522000D03*
X153672000Y-111252000D03*
X153672000Y-109982000D03*
X153672000Y-108712000D03*
X153672000Y-107442000D03*
X153672000Y-106172000D03*
X153672000Y-104902000D03*
X153672000Y-103632000D03*
X153672000Y-102362000D03*
X153672000Y-101092000D03*
X153672000Y-99822000D03*
X153672000Y-98552000D03*
X144272000Y-98552000D03*
X144272000Y-99822000D03*
X144272000Y-101092000D03*
X144272000Y-102362000D03*
X144272000Y-103632000D03*
X144272000Y-104902000D03*
X144272000Y-106172000D03*
X144272000Y-107442000D03*
X144272000Y-108712000D03*
X144272000Y-109982000D03*
X144272000Y-111252000D03*
X144272000Y-112522000D03*
D14*
X157480000Y-99060000D03*
D15*
X157480000Y-101600000D03*
X157480000Y-104140000D03*
X157480000Y-106680000D03*
X157480000Y-109220000D03*
X157480000Y-111760000D03*
D14*
X139700000Y-110744000D03*
D15*
X139700000Y-108204000D03*
X139700000Y-105664000D03*
X139700000Y-103124000D03*
X139700000Y-100584000D03*
X139700000Y-98044000D03*
D14*
X152400000Y-92075000D03*
D15*
X149860000Y-92075000D03*
X147320000Y-92075000D03*
X144780000Y-92075000D03*
D14*
X144780000Y-117475000D03*
D15*
X147320000Y-117475000D03*
X149860000Y-117475000D03*
X152400000Y-117475000D03*
M02*
