G04 #@! TF.FileFunction,Legend,Bot*
%FSLAX46Y46*%
G04 Gerber Fmt 4.6, Leading zero omitted, Abs format (unit mm)*
G04 Created by KiCad (PCBNEW 4.0.4-stable) date 12/10/17 22:01:48*
%MOMM*%
%LPD*%
G01*
G04 APERTURE LIST*
%ADD10C,0.100000*%
%ADD11C,0.177800*%
%ADD12C,0.150000*%
%ADD13C,0.190500*%
%ADD14C,0.120000*%
G04 APERTURE END LIST*
D10*
D11*
X9452431Y8926286D02*
X9452431Y8309429D01*
X9488717Y8236857D01*
X9525002Y8200571D01*
X9597574Y8164286D01*
X9706431Y8164286D01*
X9779002Y8200571D01*
X9452431Y8454571D02*
X9525002Y8418286D01*
X9670145Y8418286D01*
X9742717Y8454571D01*
X9779002Y8490857D01*
X9815288Y8563429D01*
X9815288Y8781143D01*
X9779002Y8853714D01*
X9742717Y8890000D01*
X9670145Y8926286D01*
X9525002Y8926286D01*
X9452431Y8890000D01*
X9089573Y8418286D02*
X9089573Y8926286D01*
X9089573Y9180286D02*
X9125859Y9144000D01*
X9089573Y9107714D01*
X9053288Y9144000D01*
X9089573Y9180286D01*
X9089573Y9107714D01*
X8835574Y8926286D02*
X8545288Y8926286D01*
X8726716Y9180286D02*
X8726716Y8527143D01*
X8690431Y8454571D01*
X8617859Y8418286D01*
X8545288Y8418286D01*
X8291287Y8418286D02*
X8291287Y9180286D01*
X7964716Y8418286D02*
X7964716Y8817429D01*
X8001002Y8890000D01*
X8073573Y8926286D01*
X8182430Y8926286D01*
X8255002Y8890000D01*
X8291287Y8853714D01*
X7275287Y8926286D02*
X7275287Y8418286D01*
X7601858Y8926286D02*
X7601858Y8527143D01*
X7565573Y8454571D01*
X7493001Y8418286D01*
X7384144Y8418286D01*
X7311573Y8454571D01*
X7275287Y8490857D01*
X6912429Y8418286D02*
X6912429Y9180286D01*
X6912429Y8890000D02*
X6839858Y8926286D01*
X6694715Y8926286D01*
X6622144Y8890000D01*
X6585858Y8853714D01*
X6549572Y8781143D01*
X6549572Y8563429D01*
X6585858Y8490857D01*
X6622144Y8454571D01*
X6694715Y8418286D01*
X6839858Y8418286D01*
X6912429Y8454571D01*
X6223000Y8490857D02*
X6186715Y8454571D01*
X6223000Y8418286D01*
X6259286Y8454571D01*
X6223000Y8490857D01*
X6223000Y8418286D01*
X5533572Y8454571D02*
X5606143Y8418286D01*
X5751286Y8418286D01*
X5823858Y8454571D01*
X5860143Y8490857D01*
X5896429Y8563429D01*
X5896429Y8781143D01*
X5860143Y8853714D01*
X5823858Y8890000D01*
X5751286Y8926286D01*
X5606143Y8926286D01*
X5533572Y8890000D01*
X5098143Y8418286D02*
X5170715Y8454571D01*
X5207000Y8490857D01*
X5243286Y8563429D01*
X5243286Y8781143D01*
X5207000Y8853714D01*
X5170715Y8890000D01*
X5098143Y8926286D01*
X4989286Y8926286D01*
X4916715Y8890000D01*
X4880429Y8853714D01*
X4844143Y8781143D01*
X4844143Y8563429D01*
X4880429Y8490857D01*
X4916715Y8454571D01*
X4989286Y8418286D01*
X5098143Y8418286D01*
X4517571Y8418286D02*
X4517571Y8926286D01*
X4517571Y8853714D02*
X4481286Y8890000D01*
X4408714Y8926286D01*
X4299857Y8926286D01*
X4227286Y8890000D01*
X4191000Y8817429D01*
X4191000Y8418286D01*
X4191000Y8817429D02*
X4154714Y8890000D01*
X4082143Y8926286D01*
X3973286Y8926286D01*
X3900714Y8890000D01*
X3864429Y8817429D01*
X3864429Y8418286D01*
X2957286Y9216571D02*
X3610429Y8236857D01*
X2267857Y8418286D02*
X2521857Y8781143D01*
X2703285Y8418286D02*
X2703285Y9180286D01*
X2413000Y9180286D01*
X2340428Y9144000D01*
X2304143Y9107714D01*
X2267857Y9035143D01*
X2267857Y8926286D01*
X2304143Y8853714D01*
X2340428Y8817429D01*
X2413000Y8781143D01*
X2703285Y8781143D01*
X1832428Y8418286D02*
X1905000Y8454571D01*
X1941285Y8490857D01*
X1977571Y8563429D01*
X1977571Y8781143D01*
X1941285Y8853714D01*
X1905000Y8890000D01*
X1832428Y8926286D01*
X1723571Y8926286D01*
X1651000Y8890000D01*
X1614714Y8853714D01*
X1578428Y8781143D01*
X1578428Y8563429D01*
X1614714Y8490857D01*
X1651000Y8454571D01*
X1723571Y8418286D01*
X1832428Y8418286D01*
X1251856Y8418286D02*
X1251856Y9180286D01*
X1251856Y8890000D02*
X1179285Y8926286D01*
X1034142Y8926286D01*
X961571Y8890000D01*
X925285Y8853714D01*
X888999Y8781143D01*
X888999Y8563429D01*
X925285Y8490857D01*
X961571Y8454571D01*
X1034142Y8418286D01*
X1179285Y8418286D01*
X1251856Y8454571D01*
X272142Y8454571D02*
X344713Y8418286D01*
X489856Y8418286D01*
X562427Y8454571D01*
X598713Y8527143D01*
X598713Y8817429D01*
X562427Y8890000D01*
X489856Y8926286D01*
X344713Y8926286D01*
X272142Y8890000D01*
X235856Y8817429D01*
X235856Y8744857D01*
X598713Y8672286D01*
X-90716Y8418286D02*
X-90716Y8926286D01*
X-90716Y8781143D02*
X-127001Y8853714D01*
X-163287Y8890000D01*
X-235858Y8926286D01*
X-308430Y8926286D01*
X-453572Y8926286D02*
X-743858Y8926286D01*
X-562430Y9180286D02*
X-562430Y8527143D01*
X-598715Y8454571D01*
X-671287Y8418286D01*
X-743858Y8418286D01*
X-1251859Y8817429D02*
X-1360716Y8781143D01*
X-1397001Y8744857D01*
X-1433287Y8672286D01*
X-1433287Y8563429D01*
X-1397001Y8490857D01*
X-1360716Y8454571D01*
X-1288144Y8418286D01*
X-997859Y8418286D01*
X-997859Y9180286D01*
X-1251859Y9180286D01*
X-1324430Y9144000D01*
X-1360716Y9107714D01*
X-1397001Y9035143D01*
X-1397001Y8962571D01*
X-1360716Y8890000D01*
X-1324430Y8853714D01*
X-1251859Y8817429D01*
X-997859Y8817429D01*
X-2086430Y8418286D02*
X-2086430Y8817429D01*
X-2050144Y8890000D01*
X-1977573Y8926286D01*
X-1832430Y8926286D01*
X-1759859Y8890000D01*
X-2086430Y8454571D02*
X-2013859Y8418286D01*
X-1832430Y8418286D01*
X-1759859Y8454571D01*
X-1723573Y8527143D01*
X-1723573Y8599714D01*
X-1759859Y8672286D01*
X-1832430Y8708571D01*
X-2013859Y8708571D01*
X-2086430Y8744857D01*
X-2449288Y8418286D02*
X-2449288Y8926286D01*
X-2449288Y8781143D02*
X-2485573Y8853714D01*
X-2521859Y8890000D01*
X-2594430Y8926286D01*
X-2667002Y8926286D01*
X-3247573Y8926286D02*
X-3247573Y8418286D01*
X-2921002Y8926286D02*
X-2921002Y8527143D01*
X-2957287Y8454571D01*
X-3029859Y8418286D01*
X-3138716Y8418286D01*
X-3211287Y8454571D01*
X-3247573Y8490857D01*
X-3937002Y8454571D02*
X-3864431Y8418286D01*
X-3719288Y8418286D01*
X-3646716Y8454571D01*
X-3610431Y8490857D01*
X-3574145Y8563429D01*
X-3574145Y8781143D01*
X-3610431Y8853714D01*
X-3646716Y8890000D01*
X-3719288Y8926286D01*
X-3864431Y8926286D01*
X-3937002Y8890000D01*
X-4263574Y8418286D02*
X-4263574Y9180286D01*
X-4590145Y8418286D02*
X-4590145Y8817429D01*
X-4553859Y8890000D01*
X-4481288Y8926286D01*
X-4372431Y8926286D01*
X-4299859Y8890000D01*
X-4263574Y8853714D01*
X-5497288Y9216571D02*
X-4844145Y8236857D01*
X-5751289Y8418286D02*
X-5751289Y9180286D01*
X-6186717Y8418286D01*
X-6186717Y9180286D01*
X-6549575Y8418286D02*
X-6549575Y8926286D01*
X-6549575Y9180286D02*
X-6513289Y9144000D01*
X-6549575Y9107714D01*
X-6585860Y9144000D01*
X-6549575Y9180286D01*
X-6549575Y9107714D01*
X-6839860Y8418286D02*
X-7239003Y8926286D01*
X-6839860Y8926286D02*
X-7239003Y8418286D01*
X-7964717Y8490857D02*
X-7928431Y8454571D01*
X-7819574Y8418286D01*
X-7747003Y8418286D01*
X-7638146Y8454571D01*
X-7565574Y8527143D01*
X-7529289Y8599714D01*
X-7493003Y8744857D01*
X-7493003Y8853714D01*
X-7529289Y8998857D01*
X-7565574Y9071429D01*
X-7638146Y9144000D01*
X-7747003Y9180286D01*
X-7819574Y9180286D01*
X-7928431Y9144000D01*
X-7964717Y9107714D01*
X-8617860Y8418286D02*
X-8617860Y8817429D01*
X-8581574Y8890000D01*
X-8509003Y8926286D01*
X-8363860Y8926286D01*
X-8291289Y8890000D01*
X-8617860Y8454571D02*
X-8545289Y8418286D01*
X-8363860Y8418286D01*
X-8291289Y8454571D01*
X-8255003Y8527143D01*
X-8255003Y8599714D01*
X-8291289Y8672286D01*
X-8363860Y8708571D01*
X-8545289Y8708571D01*
X-8617860Y8744857D01*
X-8980718Y8418286D02*
X-8980718Y8926286D01*
X-8980718Y8781143D02*
X-9017003Y8853714D01*
X-9053289Y8890000D01*
X-9125860Y8926286D01*
X-9198432Y8926286D01*
X-9779003Y8418286D02*
X-9779003Y9180286D01*
X-9779003Y8454571D02*
X-9706432Y8418286D01*
X-9561289Y8418286D01*
X-9488717Y8454571D01*
X-9452432Y8490857D01*
X-9416146Y8563429D01*
X-9416146Y8781143D01*
X-9452432Y8853714D01*
X-9488717Y8890000D01*
X-9561289Y8926286D01*
X-9706432Y8926286D01*
X-9779003Y8890000D01*
D12*
X-9190000Y10998142D02*
X-9218571Y11055285D01*
X-9218571Y11140999D01*
X-9190000Y11226714D01*
X-9132857Y11283856D01*
X-9075714Y11312428D01*
X-8961429Y11340999D01*
X-8875714Y11340999D01*
X-8761429Y11312428D01*
X-8704286Y11283856D01*
X-8647143Y11226714D01*
X-8618571Y11140999D01*
X-8618571Y11083856D01*
X-8647143Y10998142D01*
X-8675714Y10969571D01*
X-8875714Y10969571D01*
X-8875714Y11083856D01*
X-8618571Y10712428D02*
X-9218571Y10712428D01*
X-8618571Y10369571D01*
X-9218571Y10369571D01*
X-8618571Y10083857D02*
X-9218571Y10083857D01*
X-9218571Y9941000D01*
X-9190000Y9855285D01*
X-9132857Y9798143D01*
X-9075714Y9769571D01*
X-8961429Y9741000D01*
X-8875714Y9741000D01*
X-8761429Y9769571D01*
X-8704286Y9798143D01*
X-8647143Y9855285D01*
X-8618571Y9941000D01*
X-8618571Y10083857D01*
X-9990143Y11312429D02*
X-9990143Y10855286D01*
X-9761571Y11083857D02*
X-10218714Y11083857D01*
X-10361571Y10283858D02*
X-10361571Y10569572D01*
X-10075857Y10598143D01*
X-10104429Y10569572D01*
X-10133000Y10512429D01*
X-10133000Y10369572D01*
X-10104429Y10312429D01*
X-10075857Y10283858D01*
X-10018714Y10255286D01*
X-9875857Y10255286D01*
X-9818714Y10283858D01*
X-9790143Y10312429D01*
X-9761571Y10369572D01*
X-9761571Y10512429D01*
X-9790143Y10569572D01*
X-9818714Y10598143D01*
X-10361571Y10083857D02*
X-9761571Y9883857D01*
X-10361571Y9683857D01*
X8688429Y-9450429D02*
X8688429Y-9564715D01*
X8717000Y-9621857D01*
X8774143Y-9679000D01*
X8888429Y-9707572D01*
X9088429Y-9707572D01*
X9202714Y-9679000D01*
X9259857Y-9621857D01*
X9288429Y-9564715D01*
X9288429Y-9450429D01*
X9259857Y-9393286D01*
X9202714Y-9336143D01*
X9088429Y-9307572D01*
X8888429Y-9307572D01*
X8774143Y-9336143D01*
X8717000Y-9393286D01*
X8688429Y-9450429D01*
X8974143Y-9964714D02*
X8974143Y-10164714D01*
X9288429Y-10250428D02*
X9288429Y-9964714D01*
X8688429Y-9964714D01*
X8688429Y-10250428D01*
X8585000Y-9193286D02*
X8585000Y-10364714D01*
X-7856571Y-9566286D02*
X-7856571Y-9280572D01*
X-8456571Y-9280572D01*
X-8170857Y-9766286D02*
X-8170857Y-9966286D01*
X-7856571Y-10052000D02*
X-7856571Y-9766286D01*
X-8456571Y-9766286D01*
X-8456571Y-10052000D01*
X-8560000Y-9137715D02*
X-8560000Y-10166286D01*
X-8929714Y-9294857D02*
X-8901143Y-9266286D01*
X-8872571Y-9180572D01*
X-8872571Y-9123429D01*
X-8901143Y-9037714D01*
X-8958286Y-8980572D01*
X-9015429Y-8952000D01*
X-9129714Y-8923429D01*
X-9215429Y-8923429D01*
X-9329714Y-8952000D01*
X-9386857Y-8980572D01*
X-9444000Y-9037714D01*
X-9472571Y-9123429D01*
X-9472571Y-9180572D01*
X-9444000Y-9266286D01*
X-9415429Y-9294857D01*
X-8872571Y-9837714D02*
X-8872571Y-9552000D01*
X-9472571Y-9552000D01*
X-8872571Y-10037714D02*
X-9472571Y-10037714D01*
X-8872571Y-10380571D02*
X-9215429Y-10123428D01*
X-9472571Y-10380571D02*
X-9129714Y-10037714D01*
X-9888571Y-9037715D02*
X-10488571Y-9037715D01*
X-10488571Y-9180572D01*
X-10460000Y-9266287D01*
X-10402857Y-9323429D01*
X-10345714Y-9352001D01*
X-10231429Y-9380572D01*
X-10145714Y-9380572D01*
X-10031429Y-9352001D01*
X-9974286Y-9323429D01*
X-9917143Y-9266287D01*
X-9888571Y-9180572D01*
X-9888571Y-9037715D01*
X-9888571Y-9637715D02*
X-10488571Y-9637715D01*
X-9888571Y-9923429D02*
X-10488571Y-9923429D01*
X-9888571Y-10266286D01*
X-10488571Y-10266286D01*
X10431429Y-8764715D02*
X9831429Y-8764715D01*
X9831429Y-8907572D01*
X9860000Y-8993287D01*
X9917143Y-9050429D01*
X9974286Y-9079001D01*
X10088571Y-9107572D01*
X10174286Y-9107572D01*
X10288571Y-9079001D01*
X10345714Y-9050429D01*
X10402857Y-8993287D01*
X10431429Y-8907572D01*
X10431429Y-8764715D01*
X9831429Y-9479001D02*
X9831429Y-9593287D01*
X9860000Y-9650429D01*
X9917143Y-9707572D01*
X10031429Y-9736144D01*
X10231429Y-9736144D01*
X10345714Y-9707572D01*
X10402857Y-9650429D01*
X10431429Y-9593287D01*
X10431429Y-9479001D01*
X10402857Y-9421858D01*
X10345714Y-9364715D01*
X10231429Y-9336144D01*
X10031429Y-9336144D01*
X9917143Y-9364715D01*
X9860000Y-9421858D01*
X9831429Y-9479001D01*
X9831429Y-9993286D02*
X10317143Y-9993286D01*
X10374286Y-10021858D01*
X10402857Y-10050429D01*
X10431429Y-10107572D01*
X10431429Y-10221858D01*
X10402857Y-10279000D01*
X10374286Y-10307572D01*
X10317143Y-10336143D01*
X9831429Y-10336143D01*
X9831429Y-10536143D02*
X9831429Y-10879000D01*
X10431429Y-10707571D02*
X9831429Y-10707571D01*
D13*
X9488714Y11575143D02*
X10250714Y11321143D01*
X9488714Y11067143D01*
X10033000Y10849428D02*
X10033000Y10486571D01*
X10250714Y10922000D02*
X9488714Y10668000D01*
X10250714Y10414000D01*
X10033000Y10196285D02*
X10033000Y9833428D01*
X10250714Y10268857D02*
X9488714Y10014857D01*
X10250714Y9760857D01*
D14*
X8195000Y7680000D02*
X10855000Y7680000D01*
X8195000Y-2540000D02*
X8195000Y7680000D01*
X10855000Y-2540000D02*
X10855000Y7680000D01*
X8195000Y-2540000D02*
X10855000Y-2540000D01*
X8195000Y-3810000D02*
X8195000Y-5140000D01*
X8195000Y-5140000D02*
X9525000Y-5140000D01*
D12*
X3874000Y7875000D02*
X3874000Y7600000D01*
X-3876000Y7875000D02*
X-3876000Y7510000D01*
X-3876000Y-7875000D02*
X-3876000Y-7510000D01*
X3874000Y-7875000D02*
X3874000Y-7510000D01*
X3874000Y7875000D02*
X-3876000Y7875000D01*
X3874000Y-7875000D02*
X-3876000Y-7875000D01*
X3874000Y7600000D02*
X5699000Y7600000D01*
D14*
X7458000Y1694000D02*
X7458000Y2394000D01*
X6258000Y2394000D02*
X6258000Y1694000D01*
X6410000Y15935000D02*
X6410000Y13275000D01*
X-3810000Y15935000D02*
X6410000Y15935000D01*
X-3810000Y13275000D02*
X6410000Y13275000D01*
X-3810000Y15935000D02*
X-3810000Y13275000D01*
X-5080000Y15935000D02*
X-6410000Y15935000D01*
X-6410000Y15935000D02*
X-6410000Y14605000D01*
X-10855000Y6410000D02*
X-8195000Y6410000D01*
X-10855000Y-3810000D02*
X-10855000Y6410000D01*
X-8195000Y-3810000D02*
X-8195000Y6410000D01*
X-10855000Y-3810000D02*
X-8195000Y-3810000D01*
X-10855000Y-5080000D02*
X-10855000Y-6410000D01*
X-10855000Y-6410000D02*
X-9525000Y-6410000D01*
X6410000Y-13275000D02*
X6410000Y-15935000D01*
X-3810000Y-13275000D02*
X6410000Y-13275000D01*
X-3810000Y-15935000D02*
X6410000Y-15935000D01*
X-3810000Y-13275000D02*
X-3810000Y-15935000D01*
X-5080000Y-13275000D02*
X-6410000Y-13275000D01*
X-6410000Y-13275000D02*
X-6410000Y-14605000D01*
D12*
X10136095Y-6675381D02*
X10136095Y-5675381D01*
X9755142Y-5675381D01*
X9659904Y-5723000D01*
X9612285Y-5770619D01*
X9564666Y-5865857D01*
X9564666Y-6008714D01*
X9612285Y-6103952D01*
X9659904Y-6151571D01*
X9755142Y-6199190D01*
X10136095Y-6199190D01*
X9231333Y-5675381D02*
X8564666Y-5675381D01*
X8993238Y-6675381D01*
X7746905Y7405619D02*
X7746905Y6596095D01*
X7699286Y6500857D01*
X7651667Y6453238D01*
X7556429Y6405619D01*
X7365952Y6405619D01*
X7270714Y6453238D01*
X7223095Y6500857D01*
X7175476Y6596095D01*
X7175476Y7405619D01*
X6175476Y6405619D02*
X6746905Y6405619D01*
X6461191Y6405619D02*
X6461191Y7405619D01*
X6556429Y7262762D01*
X6651667Y7167524D01*
X6746905Y7119905D01*
X7342143Y4738666D02*
X7389762Y4786285D01*
X7437381Y4929142D01*
X7437381Y5024380D01*
X7389762Y5167238D01*
X7294524Y5262476D01*
X7199286Y5310095D01*
X7008810Y5357714D01*
X6865952Y5357714D01*
X6675476Y5310095D01*
X6580238Y5262476D01*
X6485000Y5167238D01*
X6437381Y5024380D01*
X6437381Y4929142D01*
X6485000Y4786285D01*
X6532619Y4738666D01*
X6437381Y4405333D02*
X6437381Y3786285D01*
X6818333Y4119619D01*
X6818333Y3976761D01*
X6865952Y3881523D01*
X6913571Y3833904D01*
X7008810Y3786285D01*
X7246905Y3786285D01*
X7342143Y3833904D01*
X7389762Y3881523D01*
X7437381Y3976761D01*
X7437381Y4262476D01*
X7389762Y4357714D01*
X7342143Y4405333D01*
X-6500905Y14533619D02*
X-6500905Y15533619D01*
X-6881858Y15533619D01*
X-6977096Y15486000D01*
X-7024715Y15438381D01*
X-7072334Y15343143D01*
X-7072334Y15200286D01*
X-7024715Y15105048D01*
X-6977096Y15057429D01*
X-6881858Y15009810D01*
X-6500905Y15009810D01*
X-7929477Y15200286D02*
X-7929477Y14533619D01*
X-7691381Y15581238D02*
X-7453286Y14866952D01*
X-8072334Y14866952D01*
X-8786905Y-7862381D02*
X-8786905Y-6862381D01*
X-9167858Y-6862381D01*
X-9263096Y-6910000D01*
X-9310715Y-6957619D01*
X-9358334Y-7052857D01*
X-9358334Y-7195714D01*
X-9310715Y-7290952D01*
X-9263096Y-7338571D01*
X-9167858Y-7386190D01*
X-8786905Y-7386190D01*
X-10263096Y-6862381D02*
X-9786905Y-6862381D01*
X-9739286Y-7338571D01*
X-9786905Y-7290952D01*
X-9882143Y-7243333D01*
X-10120239Y-7243333D01*
X-10215477Y-7290952D01*
X-10263096Y-7338571D01*
X-10310715Y-7433810D01*
X-10310715Y-7671905D01*
X-10263096Y-7767143D01*
X-10215477Y-7814762D01*
X-10120239Y-7862381D01*
X-9882143Y-7862381D01*
X-9786905Y-7814762D01*
X-9739286Y-7767143D01*
X-6627905Y-15565381D02*
X-6627905Y-14565381D01*
X-7008858Y-14565381D01*
X-7104096Y-14613000D01*
X-7151715Y-14660619D01*
X-7199334Y-14755857D01*
X-7199334Y-14898714D01*
X-7151715Y-14993952D01*
X-7104096Y-15041571D01*
X-7008858Y-15089190D01*
X-6627905Y-15089190D01*
X-8056477Y-14565381D02*
X-7866000Y-14565381D01*
X-7770762Y-14613000D01*
X-7723143Y-14660619D01*
X-7627905Y-14803476D01*
X-7580286Y-14993952D01*
X-7580286Y-15374905D01*
X-7627905Y-15470143D01*
X-7675524Y-15517762D01*
X-7770762Y-15565381D01*
X-7961239Y-15565381D01*
X-8056477Y-15517762D01*
X-8104096Y-15470143D01*
X-8151715Y-15374905D01*
X-8151715Y-15136810D01*
X-8104096Y-15041571D01*
X-8056477Y-14993952D01*
X-7961239Y-14946333D01*
X-7770762Y-14946333D01*
X-7675524Y-14993952D01*
X-7627905Y-15041571D01*
X-7580286Y-15136810D01*
M02*
