G04 #@! TF.FileFunction,Soldermask,Top*
%FSLAX46Y46*%
G04 Gerber Fmt 4.6, Leading zero omitted, Abs format (unit mm)*
G04 Created by KiCad (PCBNEW 4.0.4-stable) date 12/10/17 22:01:48*
%MOMM*%
%LPD*%
G01*
G04 APERTURE LIST*
%ADD10C,0.100000*%
%ADD11R,2.100000X2.100000*%
%ADD12O,2.100000X2.100000*%
%ADD13C,2.600000*%
%ADD14R,2.400000X1.000000*%
%ADD15R,1.650000X1.400000*%
%ADD16R,1.150000X1.200000*%
G04 APERTURE END LIST*
D10*
D11*
X9525000Y-3810000D03*
D12*
X9525000Y-1270000D03*
X9525000Y1270000D03*
X9525000Y3810000D03*
X9525000Y6350000D03*
D13*
X8128000Y-13081000D03*
X8128000Y13081000D03*
X-8128000Y13081000D03*
X-8128000Y-13081000D03*
D14*
X-4701000Y6985000D03*
X-4701000Y5715000D03*
X-4701000Y4445000D03*
X-4701000Y3175000D03*
X-4701000Y1905000D03*
X-4701000Y635000D03*
X-4701000Y-635000D03*
X-4701000Y-1905000D03*
X-4701000Y-3175000D03*
X-4701000Y-4445000D03*
X-4701000Y-5715000D03*
X-4701000Y-6985000D03*
X4699000Y-6985000D03*
X4699000Y-5715000D03*
X4699000Y-4445000D03*
X4699000Y-3175000D03*
X4699000Y-1905000D03*
X4699000Y-635000D03*
X4699000Y635000D03*
X4699000Y1905000D03*
X4699000Y3175000D03*
X4699000Y4445000D03*
X4699000Y5715000D03*
X4699000Y6985000D03*
D15*
X2540000Y11144000D03*
X2540000Y9144000D03*
D16*
X-4826000Y9168000D03*
X-4826000Y10668000D03*
X-6858000Y-865000D03*
X-6858000Y635000D03*
D11*
X-5080000Y-9652000D03*
D12*
X-2540000Y-9652000D03*
X0Y-9652000D03*
X2540000Y-9652000D03*
X5080000Y-9652000D03*
D11*
X-2540000Y10668000D03*
D12*
X0Y10668000D03*
D11*
X5334000Y10668000D03*
X-5080000Y14605000D03*
D12*
X-2540000Y14605000D03*
X0Y14605000D03*
X2540000Y14605000D03*
X5080000Y14605000D03*
D11*
X-9525000Y-5080000D03*
D12*
X-9525000Y-2540000D03*
X-9525000Y0D03*
X-9525000Y2540000D03*
X-9525000Y5080000D03*
D11*
X-5080000Y-14605000D03*
D12*
X-2540000Y-14605000D03*
X0Y-14605000D03*
X2540000Y-14605000D03*
X5080000Y-14605000D03*
M02*
