G04 #@! TF.FileFunction,Legend,Top*
%FSLAX46Y46*%
G04 Gerber Fmt 4.6, Leading zero omitted, Abs format (unit mm)*
G04 Created by KiCad (PCBNEW 4.0.4-stable) date 12/10/17 22:01:48*
%MOMM*%
%LPD*%
G01*
G04 APERTURE LIST*
%ADD10C,0.100000*%
%ADD11C,0.150000*%
%ADD12C,0.120000*%
G04 APERTURE END LIST*
D10*
D11*
X-6254001Y-12463429D02*
X-6254001Y-11863429D01*
X-6111144Y-11863429D01*
X-6025429Y-11892000D01*
X-5968287Y-11949143D01*
X-5939715Y-12006286D01*
X-5911144Y-12120571D01*
X-5911144Y-12206286D01*
X-5939715Y-12320571D01*
X-5968287Y-12377714D01*
X-6025429Y-12434857D01*
X-6111144Y-12463429D01*
X-6254001Y-12463429D01*
X-5311144Y-12463429D02*
X-5511144Y-12177714D01*
X-5654001Y-12463429D02*
X-5654001Y-11863429D01*
X-5425429Y-11863429D01*
X-5368287Y-11892000D01*
X-5339715Y-11920571D01*
X-5311144Y-11977714D01*
X-5311144Y-12063429D01*
X-5339715Y-12120571D01*
X-5368287Y-12149143D01*
X-5425429Y-12177714D01*
X-5654001Y-12177714D01*
X-5054001Y-12463429D02*
X-5054001Y-11863429D01*
X-4854001Y-11863429D02*
X-4654001Y-12463429D01*
X-4454001Y-11863429D01*
X-4254001Y-12149143D02*
X-4054001Y-12149143D01*
X-3968287Y-12463429D02*
X-4254001Y-12463429D01*
X-4254001Y-11863429D01*
X-3968287Y-11863429D01*
X-3368287Y-12463429D02*
X-3568287Y-12177714D01*
X-3711144Y-12463429D02*
X-3711144Y-11863429D01*
X-3482572Y-11863429D01*
X-3425430Y-11892000D01*
X-3396858Y-11920571D01*
X-3368287Y-11977714D01*
X-3368287Y-12063429D01*
X-3396858Y-12120571D01*
X-3425430Y-12149143D01*
X-3482572Y-12177714D01*
X-3711144Y-12177714D01*
X-2682572Y-11920571D02*
X-2654001Y-11892000D01*
X-2596858Y-11863429D01*
X-2454001Y-11863429D01*
X-2396858Y-11892000D01*
X-2368287Y-11920571D01*
X-2339715Y-11977714D01*
X-2339715Y-12034857D01*
X-2368287Y-12120571D01*
X-2711144Y-12463429D01*
X-2339715Y-12463429D01*
X-1968286Y-11863429D02*
X-1911143Y-11863429D01*
X-1854000Y-11892000D01*
X-1825429Y-11920571D01*
X-1796858Y-11977714D01*
X-1768286Y-12092000D01*
X-1768286Y-12234857D01*
X-1796858Y-12349143D01*
X-1825429Y-12406286D01*
X-1854000Y-12434857D01*
X-1911143Y-12463429D01*
X-1968286Y-12463429D01*
X-2025429Y-12434857D01*
X-2054000Y-12406286D01*
X-2082572Y-12349143D01*
X-2111143Y-12234857D01*
X-2111143Y-12092000D01*
X-2082572Y-11977714D01*
X-2054000Y-11920571D01*
X-2025429Y-11892000D01*
X-1968286Y-11863429D01*
X-1196857Y-12463429D02*
X-1539714Y-12463429D01*
X-1368286Y-12463429D02*
X-1368286Y-11863429D01*
X-1425429Y-11949143D01*
X-1482571Y-12006286D01*
X-1539714Y-12034857D01*
X-996857Y-11863429D02*
X-596857Y-11863429D01*
X-854000Y-12463429D01*
X88858Y-12463429D02*
X88858Y-11863429D01*
X231715Y-11863429D01*
X317430Y-11892000D01*
X374572Y-11949143D01*
X403144Y-12006286D01*
X431715Y-12120571D01*
X431715Y-12206286D01*
X403144Y-12320571D01*
X374572Y-12377714D01*
X317430Y-12434857D01*
X231715Y-12463429D01*
X88858Y-12463429D01*
X688858Y-12149143D02*
X888858Y-12149143D01*
X974572Y-12463429D02*
X688858Y-12463429D01*
X688858Y-11863429D01*
X974572Y-11863429D01*
X1574572Y-12406286D02*
X1546001Y-12434857D01*
X1460287Y-12463429D01*
X1403144Y-12463429D01*
X1317429Y-12434857D01*
X1260287Y-12377714D01*
X1231715Y-12320571D01*
X1203144Y-12206286D01*
X1203144Y-12120571D01*
X1231715Y-12006286D01*
X1260287Y-11949143D01*
X1317429Y-11892000D01*
X1403144Y-11863429D01*
X1460287Y-11863429D01*
X1546001Y-11892000D01*
X1574572Y-11920571D01*
X2231715Y-11863429D02*
X2631715Y-11863429D01*
X2374572Y-12463429D01*
X3660287Y-12463429D02*
X3460287Y-12177714D01*
X3317430Y-12463429D02*
X3317430Y-11863429D01*
X3546002Y-11863429D01*
X3603144Y-11892000D01*
X3631716Y-11920571D01*
X3660287Y-11977714D01*
X3660287Y-12063429D01*
X3631716Y-12120571D01*
X3603144Y-12149143D01*
X3546002Y-12177714D01*
X3317430Y-12177714D01*
X3917430Y-12149143D02*
X4117430Y-12149143D01*
X4203144Y-12463429D02*
X3917430Y-12463429D01*
X3917430Y-11863429D01*
X4203144Y-11863429D01*
X4374573Y-11863429D02*
X4574573Y-12463429D01*
X4774573Y-11863429D01*
X5774573Y-12406286D02*
X5746002Y-12434857D01*
X5660288Y-12463429D01*
X5603145Y-12463429D01*
X5517430Y-12434857D01*
X5460288Y-12377714D01*
X5431716Y-12320571D01*
X5403145Y-12206286D01*
X5403145Y-12120571D01*
X5431716Y-12006286D01*
X5460288Y-11949143D01*
X5517430Y-11892000D01*
X5603145Y-11863429D01*
X5660288Y-11863429D01*
X5746002Y-11892000D01*
X5774573Y-11920571D01*
X8668131Y-10502210D02*
X8753845Y-10530782D01*
X8896702Y-10530782D01*
X8953845Y-10502210D01*
X8982416Y-10473639D01*
X9010988Y-10416496D01*
X9010988Y-10359353D01*
X8982416Y-10302210D01*
X8953845Y-10273639D01*
X8896702Y-10245067D01*
X8782416Y-10216496D01*
X8725274Y-10187924D01*
X8696702Y-10159353D01*
X8668131Y-10102210D01*
X8668131Y-10045067D01*
X8696702Y-9987924D01*
X8725274Y-9959353D01*
X8782416Y-9930782D01*
X8925274Y-9930782D01*
X9010988Y-9959353D01*
X9725274Y-10530782D02*
X9725274Y-9930782D01*
X9953846Y-9930782D01*
X10010988Y-9959353D01*
X10039560Y-9987924D01*
X10068131Y-10045067D01*
X10068131Y-10130782D01*
X10039560Y-10187924D01*
X10010988Y-10216496D01*
X9953846Y-10245067D01*
X9725274Y-10245067D01*
X-3876000Y7875000D02*
X-3876000Y7600000D01*
X3874000Y7875000D02*
X3874000Y7510000D01*
X3874000Y-7875000D02*
X3874000Y-7510000D01*
X-3876000Y-7875000D02*
X-3876000Y-7510000D01*
X-3876000Y7875000D02*
X3874000Y7875000D01*
X-3876000Y-7875000D02*
X3874000Y-7875000D01*
X-3876000Y7600000D02*
X-5701000Y7600000D01*
D10*
G36*
X10302519Y-8697338D02*
X10070547Y-8654200D01*
X10056817Y-8642389D01*
X9985711Y-8476499D01*
X9986840Y-8458564D01*
X10121996Y-8261572D01*
X10120514Y-8245542D01*
X9951703Y-8076731D01*
X9935687Y-8075249D01*
X9735239Y-8212804D01*
X9717219Y-8214103D01*
X9556408Y-8148274D01*
X9544555Y-8134699D01*
X9499893Y-7894768D01*
X9487518Y-7884481D01*
X9248758Y-7884481D01*
X9236397Y-7894768D01*
X9191749Y-8134699D01*
X9179896Y-8148274D01*
X9019072Y-8214103D01*
X9001052Y-8212804D01*
X8800617Y-8075249D01*
X8784587Y-8076731D01*
X8615762Y-8245542D01*
X8614280Y-8261572D01*
X8749451Y-8458564D01*
X8750565Y-8476499D01*
X8679445Y-8642389D01*
X8665715Y-8654200D01*
X8433757Y-8697338D01*
X8423470Y-8709727D01*
X8423484Y-8948473D01*
X8433771Y-8960863D01*
X8660043Y-9002970D01*
X8673476Y-9014866D01*
X8744117Y-9191325D01*
X8742776Y-9209345D01*
X8614252Y-9396642D01*
X8615734Y-9412686D01*
X8784573Y-9581498D01*
X8800603Y-9582979D01*
X8984584Y-9456699D01*
X9002223Y-9456092D01*
X9083362Y-9499413D01*
X9096697Y-9494503D01*
X9263998Y-9090262D01*
X9259087Y-9075149D01*
X9238782Y-9062717D01*
X9225940Y-9052881D01*
X9137547Y-8959131D01*
X9104091Y-8830476D01*
X9124842Y-8727701D01*
X9181429Y-8643775D01*
X9265355Y-8587192D01*
X9368124Y-8566443D01*
X9470891Y-8587192D01*
X9554812Y-8643775D01*
X9611394Y-8727701D01*
X9632143Y-8830476D01*
X9598692Y-8959131D01*
X9510293Y-9052881D01*
X9497480Y-9062717D01*
X9477175Y-9075149D01*
X9472264Y-9090262D01*
X9639551Y-9494517D01*
X9652886Y-9499427D01*
X9734025Y-9456106D01*
X9751664Y-9456713D01*
X9935659Y-9582993D01*
X9951675Y-9581512D01*
X10120514Y-9412700D01*
X10121996Y-9396656D01*
X9993458Y-9209359D01*
X9992131Y-9191339D01*
X10062772Y-9014880D01*
X10076191Y-9002984D01*
X10302463Y-8960877D01*
X10312750Y-8948487D01*
X10312778Y-8709741D01*
X10302519Y-8697338D01*
X10302519Y-8697338D01*
G37*
D12*
X3390000Y9644000D02*
X3390000Y10644000D01*
X1690000Y10644000D02*
X1690000Y9644000D01*
X-5426000Y9568000D02*
X-5426000Y10268000D01*
X-4226000Y10268000D02*
X-4226000Y9568000D01*
X-7458000Y-465000D02*
X-7458000Y235000D01*
X-6258000Y235000D02*
X-6258000Y-465000D01*
X6410000Y-10982000D02*
X6410000Y-8322000D01*
X-3810000Y-10982000D02*
X6410000Y-10982000D01*
X-3810000Y-8322000D02*
X6410000Y-8322000D01*
X-3810000Y-10982000D02*
X-3810000Y-8322000D01*
X-5080000Y-10982000D02*
X-6410000Y-10982000D01*
X-6410000Y-10982000D02*
X-6410000Y-9652000D01*
X1330000Y9338000D02*
X1330000Y11998000D01*
X-1270000Y9338000D02*
X1330000Y9338000D01*
X-1270000Y11998000D02*
X1330000Y11998000D01*
X-1270000Y9338000D02*
X-1270000Y11998000D01*
X-2540000Y9338000D02*
X-3870000Y9338000D01*
X-3870000Y9338000D02*
X-3870000Y10668000D01*
X4004000Y9338000D02*
X6664000Y9338000D01*
X4004000Y9398000D02*
X4004000Y9338000D01*
X6664000Y9398000D02*
X6664000Y9338000D01*
X4004000Y9398000D02*
X6664000Y9398000D01*
X4004000Y10668000D02*
X4004000Y11998000D01*
X4004000Y11998000D02*
X5334000Y11998000D01*
D11*
X-8000905Y8294619D02*
X-8000905Y7485095D01*
X-7953286Y7389857D01*
X-7905667Y7342238D01*
X-7810429Y7294619D01*
X-7619952Y7294619D01*
X-7524714Y7342238D01*
X-7477095Y7389857D01*
X-7429476Y7485095D01*
X-7429476Y8294619D01*
X-7000905Y8199381D02*
X-6953286Y8247000D01*
X-6858048Y8294619D01*
X-6619952Y8294619D01*
X-6524714Y8247000D01*
X-6477095Y8199381D01*
X-6429476Y8104143D01*
X-6429476Y8008905D01*
X-6477095Y7866048D01*
X-7048524Y7294619D01*
X-6429476Y7294619D01*
X2373334Y12215857D02*
X2325715Y12168238D01*
X2182858Y12120619D01*
X2087620Y12120619D01*
X1944762Y12168238D01*
X1849524Y12263476D01*
X1801905Y12358714D01*
X1754286Y12549190D01*
X1754286Y12692048D01*
X1801905Y12882524D01*
X1849524Y12977762D01*
X1944762Y13073000D01*
X2087620Y13120619D01*
X2182858Y13120619D01*
X2325715Y13073000D01*
X2373334Y13025381D01*
X3230477Y12787286D02*
X3230477Y12120619D01*
X2992381Y13168238D02*
X2754286Y12453952D01*
X3373334Y12453952D01*
X-6643666Y10183857D02*
X-6691285Y10136238D01*
X-6834142Y10088619D01*
X-6929380Y10088619D01*
X-7072238Y10136238D01*
X-7167476Y10231476D01*
X-7215095Y10326714D01*
X-7262714Y10517190D01*
X-7262714Y10660048D01*
X-7215095Y10850524D01*
X-7167476Y10945762D01*
X-7072238Y11041000D01*
X-6929380Y11088619D01*
X-6834142Y11088619D01*
X-6691285Y11041000D01*
X-6643666Y10993381D01*
X-5691285Y10088619D02*
X-6262714Y10088619D01*
X-5977000Y10088619D02*
X-5977000Y11088619D01*
X-6072238Y10945762D01*
X-6167476Y10850524D01*
X-6262714Y10802905D01*
X-6627857Y-2706666D02*
X-6580238Y-2754285D01*
X-6532619Y-2897142D01*
X-6532619Y-2992380D01*
X-6580238Y-3135238D01*
X-6675476Y-3230476D01*
X-6770714Y-3278095D01*
X-6961190Y-3325714D01*
X-7104048Y-3325714D01*
X-7294524Y-3278095D01*
X-7389762Y-3230476D01*
X-7485000Y-3135238D01*
X-7532619Y-2992380D01*
X-7532619Y-2897142D01*
X-7485000Y-2754285D01*
X-7437381Y-2706666D01*
X-7437381Y-2325714D02*
X-7485000Y-2278095D01*
X-7532619Y-2182857D01*
X-7532619Y-1944761D01*
X-7485000Y-1849523D01*
X-7437381Y-1801904D01*
X-7342143Y-1754285D01*
X-7246905Y-1754285D01*
X-7104048Y-1801904D01*
X-6532619Y-2373333D01*
X-6532619Y-1754285D01*
X-6957619Y-10390095D02*
X-7957619Y-10390095D01*
X-7957619Y-10009142D01*
X-7910000Y-9913904D01*
X-7862381Y-9866285D01*
X-7767143Y-9818666D01*
X-7624286Y-9818666D01*
X-7529048Y-9866285D01*
X-7481429Y-9913904D01*
X-7433810Y-10009142D01*
X-7433810Y-10390095D01*
X-6957619Y-8866285D02*
X-6957619Y-9437714D01*
X-6957619Y-9152000D02*
X-7957619Y-9152000D01*
X-7814762Y-9247238D01*
X-7719524Y-9342476D01*
X-7671905Y-9437714D01*
X-738095Y8183619D02*
X-738095Y9183619D01*
X-357142Y9183619D01*
X-261904Y9136000D01*
X-214285Y9088381D01*
X-166666Y8993143D01*
X-166666Y8850286D01*
X-214285Y8755048D01*
X-261904Y8707429D01*
X-357142Y8659810D01*
X-738095Y8659810D01*
X214286Y9088381D02*
X261905Y9136000D01*
X357143Y9183619D01*
X595239Y9183619D01*
X690477Y9136000D01*
X738096Y9088381D01*
X785715Y8993143D01*
X785715Y8897905D01*
X738096Y8755048D01*
X166667Y8183619D01*
X785715Y8183619D01*
X5230905Y8056619D02*
X5230905Y9056619D01*
X5611858Y9056619D01*
X5707096Y9009000D01*
X5754715Y8961381D01*
X5802334Y8866143D01*
X5802334Y8723286D01*
X5754715Y8628048D01*
X5707096Y8580429D01*
X5611858Y8532810D01*
X5230905Y8532810D01*
X6135667Y9056619D02*
X6754715Y9056619D01*
X6421381Y8675667D01*
X6564239Y8675667D01*
X6659477Y8628048D01*
X6707096Y8580429D01*
X6754715Y8485190D01*
X6754715Y8247095D01*
X6707096Y8151857D01*
X6659477Y8104238D01*
X6564239Y8056619D01*
X6278524Y8056619D01*
X6183286Y8104238D01*
X6135667Y8151857D01*
M02*
