G04 #@! TF.FileFunction,Copper,L1,Top,Signal*
%FSLAX46Y46*%
G04 Gerber Fmt 4.6, Leading zero omitted, Abs format (unit mm)*
G04 Created by KiCad (PCBNEW 4.0.4-stable) date 12/10/17 22:01:48*
%MOMM*%
%LPD*%
G01*
G04 APERTURE LIST*
%ADD10C,0.100000*%
%ADD11R,1.700000X1.700000*%
%ADD12O,1.700000X1.700000*%
%ADD13R,2.000000X0.600000*%
%ADD14R,1.250000X1.000000*%
%ADD15R,0.750000X0.800000*%
%ADD16C,0.762000*%
%ADD17C,0.254000*%
%ADD18C,0.177800*%
G04 APERTURE END LIST*
D10*
D11*
X9525000Y-3810000D03*
D12*
X9525000Y-1270000D03*
X9525000Y1270000D03*
X9525000Y3810000D03*
X9525000Y6350000D03*
D13*
X-4701000Y6985000D03*
X-4701000Y5715000D03*
X-4701000Y4445000D03*
X-4701000Y3175000D03*
X-4701000Y1905000D03*
X-4701000Y635000D03*
X-4701000Y-635000D03*
X-4701000Y-1905000D03*
X-4701000Y-3175000D03*
X-4701000Y-4445000D03*
X-4701000Y-5715000D03*
X-4701000Y-6985000D03*
X4699000Y-6985000D03*
X4699000Y-5715000D03*
X4699000Y-4445000D03*
X4699000Y-3175000D03*
X4699000Y-1905000D03*
X4699000Y-635000D03*
X4699000Y635000D03*
X4699000Y1905000D03*
X4699000Y3175000D03*
X4699000Y4445000D03*
X4699000Y5715000D03*
X4699000Y6985000D03*
D14*
X2540000Y11144000D03*
X2540000Y9144000D03*
D15*
X-4826000Y9168000D03*
X-4826000Y10668000D03*
X-6858000Y-865000D03*
X-6858000Y635000D03*
D11*
X-5080000Y-9652000D03*
D12*
X-2540000Y-9652000D03*
X0Y-9652000D03*
X2540000Y-9652000D03*
X5080000Y-9652000D03*
D11*
X-2540000Y10668000D03*
D12*
X0Y10668000D03*
D11*
X5334000Y10668000D03*
X-5080000Y14605000D03*
D12*
X-2540000Y14605000D03*
X0Y14605000D03*
X2540000Y14605000D03*
X5080000Y14605000D03*
D11*
X-9525000Y-5080000D03*
D12*
X-9525000Y-2540000D03*
X-9525000Y0D03*
X-9525000Y2540000D03*
X-9525000Y5080000D03*
D11*
X-5080000Y-14605000D03*
D12*
X-2540000Y-14605000D03*
X0Y-14605000D03*
X2540000Y-14605000D03*
X5080000Y-14605000D03*
D16*
X-2413000Y7620000D03*
X-6477000Y9525000D03*
X6399764Y-5726189D03*
X6350000Y-7270699D03*
X-6731000Y-6985000D03*
X4572000Y-12065000D03*
X1524000Y6223000D03*
X-2103990Y3542375D03*
X-337575Y-1323990D03*
X-209489Y-2891210D03*
X254000Y508000D03*
X-1537723Y-4219445D03*
X6604000Y-3556000D03*
D17*
X-2413000Y7620000D02*
X-3361999Y8568999D01*
X-3361999Y8568999D02*
X-3361999Y8890000D01*
X-4701000Y-3175000D02*
X-5955000Y-3175000D01*
X-5955000Y-3175000D02*
X-6155999Y-2974001D01*
X-6155999Y-2974001D02*
X-6155999Y-92001D01*
X-6155999Y-92001D02*
X-6858000Y610000D01*
X-6858000Y610000D02*
X-6858000Y635000D01*
X-4123999Y8506399D02*
X-4123999Y9652000D01*
X-4123999Y9652000D02*
X-4123999Y9940999D01*
X-3361999Y8890000D02*
X-4123999Y9652000D01*
X-4826000Y10643000D02*
X-4826000Y10668000D01*
X-4123999Y9940999D02*
X-4826000Y10643000D01*
X-4189399Y8440999D02*
X-4123999Y8506399D01*
X-5462601Y8440999D02*
X-4189399Y8440999D01*
X-7366000Y1797000D02*
X-7366000Y6537600D01*
X-6858000Y1289000D02*
X-7366000Y1797000D01*
X-7366000Y6537600D02*
X-5462601Y8440999D01*
X-6858000Y635000D02*
X-6858000Y1289000D01*
X-6858000Y635000D02*
X-6858000Y4258000D01*
X-6858000Y4258000D02*
X-5401000Y5715000D01*
X-5401000Y5715000D02*
X-4701000Y5715000D01*
X-4826000Y10668000D02*
X-2540000Y10668000D01*
X-6477000Y9525000D02*
X-5812000Y9525000D01*
X-5812000Y9525000D02*
X-5455000Y9168000D01*
X6388575Y-5715000D02*
X6399764Y-5726189D01*
X4699000Y-5715000D02*
X6388575Y-5715000D01*
X-4701000Y1905000D02*
X-2518721Y1905000D01*
X-2518721Y1905000D02*
X635000Y-1248721D01*
X635000Y-3094563D02*
X-1985437Y-5715000D01*
X635000Y-1248721D02*
X635000Y-3094563D01*
X-1985437Y-5715000D02*
X-4701000Y-5715000D01*
X6350000Y-9004002D02*
X6350000Y-7809514D01*
X6350000Y-7809514D02*
X6350000Y-7270699D01*
X6257001Y-9097001D02*
X6350000Y-9004002D01*
X-5401000Y-5715000D02*
X-6671000Y-6985000D01*
X-6671000Y-6985000D02*
X-6731000Y-6985000D01*
X5207000Y-12065000D02*
X4572000Y-12065000D01*
X6257001Y-11014999D02*
X5207000Y-12065000D01*
X4699000Y-6985000D02*
X4699000Y-7539000D01*
X4699000Y-7539000D02*
X6257001Y-9097001D01*
X6257001Y-9097001D02*
X6257001Y-11014999D01*
X-4953000Y12192000D02*
X-1524000Y12192000D01*
X-1524000Y12192000D02*
X0Y10668000D01*
X-5969000Y11176000D02*
X-4953000Y12192000D01*
X-5969000Y9682000D02*
X-5969000Y11176000D01*
X-5455000Y9168000D02*
X-5969000Y9682000D01*
X-6858000Y-865000D02*
X-7487000Y-865000D01*
X-7487000Y-865000D02*
X-8001000Y-351000D01*
X-8001000Y-351000D02*
X-8001000Y6622000D01*
X-8001000Y6622000D02*
X-5455000Y9168000D01*
X-5455000Y9168000D02*
X-4826000Y9168000D01*
X-6858000Y-865000D02*
X-6858000Y-4258000D01*
X-6858000Y-4258000D02*
X-5401000Y-5715000D01*
X-5401000Y-5715000D02*
X-4701000Y-5715000D01*
X0Y10668000D02*
X1524000Y9144000D01*
X1524000Y9144000D02*
X2540000Y9144000D01*
X1524000Y6223000D02*
X2286000Y6985000D01*
X2286000Y6985000D02*
X4699000Y6985000D01*
X2540000Y11144000D02*
X2665000Y11144000D01*
X2665000Y11144000D02*
X4699000Y9110000D01*
X4699000Y9110000D02*
X4699000Y7539000D01*
X4699000Y7539000D02*
X4699000Y6985000D01*
X4699000Y6985000D02*
X4699000Y5715000D01*
X2540000Y11144000D02*
X4858000Y11144000D01*
X4858000Y11144000D02*
X5334000Y10668000D01*
D18*
X-2145375Y3542375D02*
X-2103990Y3542375D01*
X-3048000Y4445000D02*
X-2145375Y3542375D01*
X-4701000Y4445000D02*
X-3048000Y4445000D01*
X-2296565Y635000D02*
X-718574Y-942991D01*
X-718574Y-942991D02*
X-337575Y-1323990D01*
X-4701000Y635000D02*
X-2296565Y635000D01*
X-498524Y-2891210D02*
X-209489Y-2891210D01*
X-2754734Y-635000D02*
X-498524Y-2891210D01*
X-4701000Y-635000D02*
X-2754734Y-635000D01*
X-284815Y508000D02*
X254000Y508000D01*
X-2951815Y3175000D02*
X-284815Y508000D01*
X-4701000Y3175000D02*
X-2951815Y3175000D01*
X-4701000Y-4445000D02*
X-1763278Y-4445000D01*
X-1763278Y-4445000D02*
X-1537723Y-4219445D01*
X3999000Y4445000D02*
X1304909Y1750909D01*
X4699000Y4445000D02*
X3999000Y4445000D01*
X-3389999Y-13755001D02*
X-2540000Y-14605000D01*
X1304909Y1750909D02*
X1304909Y-3474277D01*
X-3678901Y-9105327D02*
X-3678901Y-13466099D01*
X-3678901Y-13466099D02*
X-3389999Y-13755001D01*
X-2413000Y-7839426D02*
X-3678901Y-9105327D01*
X1304909Y-3474277D02*
X-2413000Y-7192186D01*
X-2413000Y-7192186D02*
X-2413000Y-7839426D01*
X1682720Y858720D02*
X1682720Y-3630771D01*
X-1143000Y-13462000D02*
X-849999Y-13755001D01*
X-1143000Y-6456491D02*
X-1143000Y-13462000D01*
X-849999Y-13755001D02*
X0Y-14605000D01*
X4699000Y3175000D02*
X3999000Y3175000D01*
X3999000Y3175000D02*
X1682720Y858720D01*
X1682720Y-3630771D02*
X-1143000Y-6456491D01*
X2060531Y-3787264D02*
X1397000Y-4450795D01*
X1397000Y-4450795D02*
X1397000Y-13462000D01*
X4699000Y1905000D02*
X3999000Y1905000D01*
X2060531Y-33469D02*
X2060531Y-3787264D01*
X1690001Y-13755001D02*
X2540000Y-14605000D01*
X1397000Y-13462000D02*
X1690001Y-13755001D01*
X3999000Y1905000D02*
X2060531Y-33469D01*
X3902098Y-11743446D02*
X3902098Y-13427098D01*
X4230001Y-13755001D02*
X5080000Y-14605000D01*
X3902098Y-13427098D02*
X4230001Y-13755001D01*
X4699000Y635000D02*
X3999000Y635000D01*
X2438342Y-925658D02*
X2438342Y-7010342D01*
X2438342Y-7010342D02*
X3941099Y-8513099D01*
X3941099Y-11704445D02*
X3902098Y-11743446D01*
X3999000Y635000D02*
X2438342Y-925658D01*
X3941099Y-8513099D02*
X3941099Y-11704445D01*
X9525000Y-5599800D02*
X9525000Y-3810000D01*
X4699000Y-635000D02*
X3999000Y-635000D01*
X3999000Y-635000D02*
X2816153Y-1817847D01*
X2816153Y-5864153D02*
X3348099Y-6396099D01*
X2816153Y-1817847D02*
X2816153Y-5864153D01*
X3348099Y-6396099D02*
X8728701Y-6396099D01*
X8728701Y-6396099D02*
X9525000Y-5599800D01*
X6604000Y-4525901D02*
X6604000Y-4514205D01*
X6604000Y-4514205D02*
X8675001Y-2443204D01*
X8675001Y-2443204D02*
X8675001Y-2119999D01*
X8675001Y-2119999D02*
X9525000Y-1270000D01*
X3467879Y-5033901D02*
X6096000Y-5033901D01*
X6604000Y-4525901D02*
X6096000Y-5033901D01*
X3999000Y-1905000D02*
X3193964Y-2710036D01*
X3193964Y-2710036D02*
X3193964Y-4759986D01*
X4699000Y-1905000D02*
X3999000Y-1905000D01*
X3193964Y-4759986D02*
X3467879Y-5033901D01*
X9525000Y1270000D02*
X8386099Y131099D01*
X8386099Y131099D02*
X8386099Y-187901D01*
X8386099Y-187901D02*
X5399000Y-3175000D01*
X5399000Y-3175000D02*
X4699000Y-3175000D01*
X5399000Y-4445000D02*
X6288000Y-3556000D01*
X4699000Y-4445000D02*
X5399000Y-4445000D01*
X6288000Y-3556000D02*
X6604000Y-3556000D01*
M02*
