M48
;DRILL file {KiCad 4.0.4-stable} date 12/10/17 22:01:54
;FORMAT={-:-/ absolute / metric / decimal}
FMAT,2
METRIC,TZ
T1C0.381
T2C1.000
%
G90
G05
M71
T1
X-6.731Y-6.985
X-6.477Y9.525
X-2.413Y7.62
X-2.104Y3.542
X-1.538Y-4.219
X-0.338Y-1.324
X-0.209Y-2.891
X0.254Y0.508
X1.524Y6.223
X4.572Y-12.065
X6.35Y-7.271
X6.4Y-5.726
X6.604Y-3.556
T2
X-9.525Y5.08
X-9.525Y2.54
X-9.525Y0.
X-9.525Y-2.54
X-9.525Y-5.08
X-5.08Y14.605
X-5.08Y-9.652
X-5.08Y-14.605
X-2.54Y14.605
X-2.54Y10.668
X-2.54Y-9.652
X-2.54Y-14.605
X0.Y14.605
X0.Y10.668
X0.Y-9.652
X0.Y-14.605
X2.54Y14.605
X2.54Y-9.652
X2.54Y-14.605
X5.08Y14.605
X5.08Y-9.652
X5.08Y-14.605
X5.334Y10.668
X9.525Y6.35
X9.525Y3.81
X9.525Y1.27
X9.525Y-1.27
X9.525Y-3.81
T0
M30
