M48
;DRILL file {KiCad 4.0.4-stable} date 12/02/17 16:34:25
;FORMAT={-:-/ absolute / inch / decimal}
FMAT,2
INCH,TZ
T1C0.015
T2C0.039
%
G90
G05
M72
T1
X5.61Y-4.33
X5.81Y-3.81
X5.87Y-4.38
X5.89Y-4.085
X5.89Y-4.215
X5.915Y-4.2579
X5.93Y-4.03
X5.945Y-4.4268
X5.975Y-4.23
X5.9793Y-3.9743
X5.98Y-4.03
X5.98Y-4.1773
X6.13Y-4.06
X6.13Y-4.325
T2
X5.5Y-3.86
X5.5Y-3.96
X5.5Y-4.06
X5.5Y-4.16
X5.5Y-4.26
X5.5Y-4.36
X5.7Y-3.625
X5.7Y-4.625
X5.8Y-3.625
X5.8Y-4.625
X5.9Y-3.625
X5.9Y-4.625
X6.Y-3.625
X6.Y-4.625
X6.2Y-3.9
X6.2Y-4.
X6.2Y-4.1
X6.2Y-4.2
X6.2Y-4.3
X6.2Y-4.4
T0
M30
