G04 #@! TF.FileFunction,Legend,Top*
%FSLAX46Y46*%
G04 Gerber Fmt 4.6, Leading zero omitted, Abs format (unit mm)*
G04 Created by KiCad (PCBNEW 4.0.4-stable) date 12/02/17 16:34:21*
%MOMM*%
%LPD*%
G01*
G04 APERTURE LIST*
%ADD10C,0.100000*%
%ADD11C,0.150000*%
%ADD12C,0.120000*%
G04 APERTURE END LIST*
D10*
D11*
X149090000Y-94400000D02*
X148090000Y-94400000D01*
X148090000Y-96100000D02*
X149090000Y-96100000D01*
X149090000Y-113958000D02*
X148090000Y-113958000D01*
X148090000Y-115658000D02*
X149090000Y-115658000D01*
X152847000Y-113412000D02*
X152847000Y-113137000D01*
X145097000Y-113412000D02*
X145097000Y-113047000D01*
X145097000Y-97662000D02*
X145097000Y-98027000D01*
X152847000Y-97662000D02*
X152847000Y-98027000D01*
X152847000Y-113412000D02*
X145097000Y-113412000D01*
X152847000Y-97662000D02*
X145097000Y-97662000D01*
X152847000Y-113137000D02*
X154672000Y-113137000D01*
D12*
X143450000Y-90745000D02*
X143450000Y-93405000D01*
X151130000Y-90745000D02*
X143450000Y-90745000D01*
X151130000Y-93405000D02*
X143450000Y-93405000D01*
X151130000Y-90745000D02*
X151130000Y-93405000D01*
X152400000Y-90745000D02*
X153730000Y-90745000D01*
X153730000Y-90745000D02*
X153730000Y-92075000D01*
X153730000Y-118805000D02*
X153730000Y-116145000D01*
X146050000Y-118805000D02*
X153730000Y-118805000D01*
X146050000Y-116145000D02*
X153730000Y-116145000D01*
X146050000Y-118805000D02*
X146050000Y-116145000D01*
X144780000Y-118805000D02*
X143450000Y-118805000D01*
X143450000Y-118805000D02*
X143450000Y-117475000D01*
D11*
X151355334Y-95607143D02*
X151307715Y-95654762D01*
X151164858Y-95702381D01*
X151069620Y-95702381D01*
X150926762Y-95654762D01*
X150831524Y-95559524D01*
X150783905Y-95464286D01*
X150736286Y-95273810D01*
X150736286Y-95130952D01*
X150783905Y-94940476D01*
X150831524Y-94845238D01*
X150926762Y-94750000D01*
X151069620Y-94702381D01*
X151164858Y-94702381D01*
X151307715Y-94750000D01*
X151355334Y-94797619D01*
X152307715Y-95702381D02*
X151736286Y-95702381D01*
X152022000Y-95702381D02*
X152022000Y-94702381D01*
X151926762Y-94845238D01*
X151831524Y-94940476D01*
X151736286Y-94988095D01*
X145629334Y-115165143D02*
X145581715Y-115212762D01*
X145438858Y-115260381D01*
X145343620Y-115260381D01*
X145200762Y-115212762D01*
X145105524Y-115117524D01*
X145057905Y-115022286D01*
X145010286Y-114831810D01*
X145010286Y-114688952D01*
X145057905Y-114498476D01*
X145105524Y-114403238D01*
X145200762Y-114308000D01*
X145343620Y-114260381D01*
X145438858Y-114260381D01*
X145581715Y-114308000D01*
X145629334Y-114355619D01*
X146010286Y-114355619D02*
X146057905Y-114308000D01*
X146153143Y-114260381D01*
X146391239Y-114260381D01*
X146486477Y-114308000D01*
X146534096Y-114355619D01*
X146581715Y-114450857D01*
X146581715Y-114546095D01*
X146534096Y-114688952D01*
X145962667Y-115260381D01*
X146581715Y-115260381D01*
X153162095Y-114260381D02*
X153162095Y-115069905D01*
X153209714Y-115165143D01*
X153257333Y-115212762D01*
X153352571Y-115260381D01*
X153543048Y-115260381D01*
X153638286Y-115212762D01*
X153685905Y-115165143D01*
X153733524Y-115069905D01*
X153733524Y-114260381D01*
X154162095Y-114355619D02*
X154209714Y-114308000D01*
X154304952Y-114260381D01*
X154543048Y-114260381D01*
X154638286Y-114308000D01*
X154685905Y-114355619D01*
X154733524Y-114450857D01*
X154733524Y-114546095D01*
X154685905Y-114688952D01*
X154114476Y-115260381D01*
X154733524Y-115260381D01*
X155182381Y-92813095D02*
X154182381Y-92813095D01*
X154182381Y-92432142D01*
X154230000Y-92336904D01*
X154277619Y-92289285D01*
X154372857Y-92241666D01*
X154515714Y-92241666D01*
X154610952Y-92289285D01*
X154658571Y-92336904D01*
X154706190Y-92432142D01*
X154706190Y-92813095D01*
X154182381Y-91908333D02*
X154182381Y-91289285D01*
X154563333Y-91622619D01*
X154563333Y-91479761D01*
X154610952Y-91384523D01*
X154658571Y-91336904D01*
X154753810Y-91289285D01*
X154991905Y-91289285D01*
X155087143Y-91336904D01*
X155134762Y-91384523D01*
X155182381Y-91479761D01*
X155182381Y-91765476D01*
X155134762Y-91860714D01*
X155087143Y-91908333D01*
X142902381Y-118213095D02*
X141902381Y-118213095D01*
X141902381Y-117832142D01*
X141950000Y-117736904D01*
X141997619Y-117689285D01*
X142092857Y-117641666D01*
X142235714Y-117641666D01*
X142330952Y-117689285D01*
X142378571Y-117736904D01*
X142426190Y-117832142D01*
X142426190Y-118213095D01*
X142235714Y-116784523D02*
X142902381Y-116784523D01*
X141854762Y-117022619D02*
X142569048Y-117260714D01*
X142569048Y-116641666D01*
M02*
