G04 #@! TF.FileFunction,Copper,L2,Bot,Signal*
%FSLAX46Y46*%
G04 Gerber Fmt 4.6, Leading zero omitted, Abs format (unit mm)*
G04 Created by KiCad (PCBNEW 4.0.4-stable) date 12/10/17 22:01:48*
%MOMM*%
%LPD*%
G01*
G04 APERTURE LIST*
%ADD10C,0.100000*%
%ADD11R,1.700000X1.700000*%
%ADD12O,1.700000X1.700000*%
%ADD13R,2.000000X0.600000*%
%ADD14R,0.750000X0.800000*%
%ADD15C,0.762000*%
%ADD16C,0.254000*%
%ADD17C,0.177800*%
G04 APERTURE END LIST*
D10*
D11*
X9525000Y-3810000D03*
D12*
X9525000Y-1270000D03*
X9525000Y1270000D03*
X9525000Y3810000D03*
X9525000Y6350000D03*
D13*
X4699000Y6985000D03*
X4699000Y5715000D03*
X4699000Y4445000D03*
X4699000Y3175000D03*
X4699000Y1905000D03*
X4699000Y635000D03*
X4699000Y-635000D03*
X4699000Y-1905000D03*
X4699000Y-3175000D03*
X4699000Y-4445000D03*
X4699000Y-5715000D03*
X4699000Y-6985000D03*
X-4701000Y-6985000D03*
X-4701000Y-5715000D03*
X-4701000Y-4445000D03*
X-4701000Y-3175000D03*
X-4701000Y-1905000D03*
X-4701000Y-635000D03*
X-4701000Y635000D03*
X-4701000Y1905000D03*
X-4701000Y3175000D03*
X-4701000Y4445000D03*
X-4701000Y5715000D03*
X-4701000Y6985000D03*
D14*
X6858000Y1294000D03*
X6858000Y2794000D03*
D11*
X-5080000Y-9652000D03*
D12*
X-2540000Y-9652000D03*
X0Y-9652000D03*
X2540000Y-9652000D03*
X5080000Y-9652000D03*
D11*
X-2540000Y10668000D03*
D12*
X0Y10668000D03*
D11*
X5334000Y10668000D03*
X-5080000Y14605000D03*
D12*
X-2540000Y14605000D03*
X0Y14605000D03*
X2540000Y14605000D03*
X5080000Y14605000D03*
D11*
X-9525000Y-5080000D03*
D12*
X-9525000Y-2540000D03*
X-9525000Y0D03*
X-9525000Y2540000D03*
X-9525000Y5080000D03*
D11*
X-5080000Y-14605000D03*
D12*
X-2540000Y-14605000D03*
X0Y-14605000D03*
X2540000Y-14605000D03*
X5080000Y-14605000D03*
D15*
X-2413000Y7620000D03*
X-6477000Y9525000D03*
X6399764Y-5726189D03*
X6350000Y-7270699D03*
X-6731000Y-6985000D03*
X4572000Y-12065000D03*
X1524000Y6223000D03*
X-2103990Y3542375D03*
X-337575Y-1323990D03*
X-209489Y-2891210D03*
X254000Y508000D03*
X-1537723Y-4219445D03*
X6604000Y-3556000D03*
D16*
X1031067Y7612001D02*
X-2405001Y7612001D01*
X-2405001Y7612001D02*
X-2413000Y7620000D01*
X7712089Y1939911D02*
X7191534Y2460467D01*
X7712089Y852023D02*
X7712089Y1939911D01*
X6569088Y-290978D02*
X7712089Y852023D01*
X5959670Y-3175000D02*
X6569088Y-2565582D01*
X6569088Y-2565582D02*
X6569088Y-290978D01*
X4699000Y-3175000D02*
X5959670Y-3175000D01*
X5959670Y5715000D02*
X5953000Y5715000D01*
X6858000Y4816670D02*
X5959670Y5715000D01*
X6858000Y2794000D02*
X6858000Y4816670D01*
X5953000Y5715000D02*
X4699000Y5715000D01*
X6350931Y7612001D02*
X1031067Y7612001D01*
X7620000Y6342932D02*
X6350931Y7612001D01*
X7620000Y3581000D02*
X7620000Y6342932D01*
X6858000Y2794000D02*
X6858000Y2819000D01*
X6858000Y2819000D02*
X7620000Y3581000D01*
X9525000Y6350000D02*
X8675001Y7199999D01*
X8675001Y7199999D02*
X7913001Y7199999D01*
X7913001Y7199999D02*
X6858000Y8255000D01*
X-6096000Y9144000D02*
X-6477000Y9525000D01*
X5960601Y5072001D02*
X6026001Y5006601D01*
X6026001Y5006601D02*
X6026001Y2794000D01*
X1069998Y6931002D02*
X1863842Y6931002D01*
X3468843Y5072001D02*
X5960601Y5072001D01*
X2232002Y6562842D02*
X2232002Y6308842D01*
X2232002Y6308842D02*
X3468843Y5072001D01*
X1863842Y6931002D02*
X2232002Y6562842D01*
X1050994Y6911998D02*
X1069998Y6931002D01*
X-2752842Y6911998D02*
X1050994Y6911998D01*
X-6096000Y9144000D02*
X-4984844Y9144000D01*
X-4984844Y9144000D02*
X-2752842Y6911998D01*
X0Y10668000D02*
X0Y9465919D01*
X0Y9465919D02*
X1210919Y8255000D01*
X1210919Y8255000D02*
X6858000Y8255000D01*
X6350000Y-5775953D02*
X6399764Y-5726189D01*
X6350000Y-7270699D02*
X6350000Y-5775953D01*
X4699000Y-5715000D02*
X6388575Y-5715000D01*
X6388575Y-5715000D02*
X6399764Y-5726189D01*
X6026001Y2794000D02*
X6026001Y2532001D01*
X6858000Y1294000D02*
X6229000Y1294000D01*
X6229000Y1294000D02*
X6026001Y1496999D01*
X6026001Y1496999D02*
X6026001Y2794000D01*
X6026001Y2532001D02*
X5399000Y1905000D01*
X5399000Y1905000D02*
X4699000Y1905000D01*
X3175000Y-5461000D02*
X3429000Y-5715000D01*
X3429000Y-5715000D02*
X4699000Y-5715000D01*
X3175000Y-2810398D02*
X3175000Y-5461000D01*
X6858000Y640000D02*
X6026001Y-191999D01*
X6858000Y1294000D02*
X6858000Y640000D01*
X5944603Y-2547999D02*
X3437399Y-2547999D01*
X6026001Y-191999D02*
X6026001Y-2466601D01*
X6026001Y-2466601D02*
X5944603Y-2547999D01*
X3437399Y-2547999D02*
X3175000Y-2810398D01*
X-7620000Y-8650000D02*
X-6731000Y-7761000D01*
X-6350001Y-7365999D02*
X-6350001Y-7380001D01*
X-6731000Y-7761000D02*
X-5955000Y-6985000D01*
X-6731000Y-6985000D02*
X-6350001Y-7365999D01*
X-6350001Y-7380001D02*
X-6731000Y-7761000D01*
X3906185Y-12192000D02*
X-5080000Y-12192000D01*
X-5080000Y-12192000D02*
X-5715000Y-12192000D01*
X-5080000Y-14605000D02*
X-5080000Y-13501000D01*
X-5080000Y-13501000D02*
X-5080000Y-12192000D01*
X-7620000Y-10287000D02*
X-7620000Y-8650000D01*
X-5955000Y-6985000D02*
X-4701000Y-6985000D01*
X-5715000Y-12192000D02*
X-7620000Y-10287000D01*
X4572000Y-12065000D02*
X4033185Y-12065000D01*
X4033185Y-12065000D02*
X3906185Y-12192000D01*
X-4701000Y-5715000D02*
X-4701000Y-6985000D01*
X-2812000Y6350000D02*
X-2812000Y-4444602D01*
X-2812000Y-4444602D02*
X-3447398Y-5080000D01*
X-3447398Y-5080000D02*
X-8421000Y-5080000D01*
X-8421000Y-5080000D02*
X-9525000Y-5080000D01*
X-2812000Y6350000D02*
X1397000Y6350000D01*
X1397000Y6350000D02*
X1524000Y6223000D01*
X-4701000Y5715000D02*
X-3447000Y5715000D01*
X-3447000Y5715000D02*
X-2812000Y6350000D01*
X-4701000Y5715000D02*
X-4701000Y6985000D01*
X5080000Y14605000D02*
X5080000Y10922000D01*
X5080000Y10922000D02*
X5334000Y10668000D01*
D17*
X3086673Y-10790901D02*
X1935403Y-10790901D01*
X3678901Y-10198673D02*
X3086673Y-10790901D01*
X3678901Y-9105327D02*
X3678901Y-10198673D01*
X1557593Y-11168711D02*
X-4591089Y-11168711D01*
X7151284Y-7460871D02*
X6671554Y-7940601D01*
X4843627Y-7940601D02*
X3678901Y-9105327D01*
X7151284Y-5486255D02*
X7151284Y-7460871D01*
X6671554Y-7940601D02*
X4843627Y-7940601D01*
X6110029Y-4445000D02*
X7151284Y-5486255D01*
X4699000Y-4445000D02*
X6110029Y-4445000D01*
X-4591089Y-11168711D02*
X-5080000Y-10679800D01*
X1935403Y-10790901D02*
X1557593Y-11168711D01*
X-5080000Y-10679800D02*
X-5080000Y-9652000D01*
X-2103990Y-3794258D02*
X-2103990Y3003560D01*
X-2103990Y3003560D02*
X-2103990Y3542375D01*
X-3469879Y-7573901D02*
X-2207624Y-6311646D01*
X-2207624Y-3897892D02*
X-2103990Y-3794258D01*
X-6858000Y-9209978D02*
X-5221923Y-7573901D01*
X3185478Y-11546521D02*
X-5405504Y-11546518D01*
X5080000Y-9652000D02*
X3185478Y-11546521D01*
X-5405504Y-11546518D02*
X-6858000Y-10094022D01*
X-6858000Y-10094022D02*
X-6858000Y-9209978D01*
X-5221923Y-7573901D02*
X-3469879Y-7573901D01*
X-2207624Y-6311646D02*
X-2207624Y-3897892D01*
X-1690001Y-8802001D02*
X-2540000Y-9652000D01*
X320623Y-6791377D02*
X-1690001Y-8802001D01*
X320623Y-4412776D02*
X320623Y-6791377D01*
X-879390Y-3212763D02*
X320623Y-4412776D01*
X-879390Y-2569657D02*
X-879390Y-3212763D01*
X-87733Y-1778000D02*
X-879390Y-2569657D01*
X913546Y-1778000D02*
X-87733Y-1778000D01*
X116435Y-1778000D02*
X43424Y-1704989D01*
X43424Y-1704989D02*
X-337575Y-1323990D01*
X913546Y-1778000D02*
X116435Y-1778000D01*
X3326546Y635000D02*
X913546Y-1778000D01*
X4699000Y635000D02*
X3326546Y635000D01*
X1332000Y-3302000D02*
X201301Y-3302000D01*
X201301Y-3302000D02*
X171510Y-3272209D01*
X171510Y-3272209D02*
X-209489Y-2891210D01*
X1332000Y-8320000D02*
X849999Y-8802001D01*
X1332000Y-3302000D02*
X1332000Y-8320000D01*
X849999Y-8802001D02*
X0Y-9652000D01*
X3999000Y-635000D02*
X1332000Y-3302000D01*
X4699000Y-635000D02*
X3999000Y-635000D01*
X1690001Y-10501999D02*
X2540000Y-9652000D01*
X-3086673Y-10790901D02*
X1401099Y-10790901D01*
X1401099Y-10790901D02*
X1690001Y-10501999D01*
X824000Y0D02*
X-5039Y0D01*
X-57188Y-4756188D02*
X-3678901Y-8377901D01*
X-1257201Y-1252162D02*
X-1257201Y-3369257D01*
X-57188Y-4569270D02*
X-57188Y-4756188D01*
X-5039Y0D02*
X-1257201Y-1252162D01*
X-3678901Y-8377901D02*
X-3678901Y-10198673D01*
X-3678901Y-10198673D02*
X-3086673Y-10790901D01*
X-1257201Y-3369257D02*
X-57188Y-4569270D01*
X3999000Y3175000D02*
X824000Y0D01*
X254000Y508000D02*
X762000Y0D01*
X762000Y0D02*
X824000Y0D01*
X4699000Y3175000D02*
X3999000Y3175000D01*
X-1664722Y-419268D02*
X-1664722Y-3553631D01*
X-1537723Y-3680630D02*
X-1537723Y-4219445D01*
X-1664722Y-3553631D02*
X-1537723Y-3680630D01*
X4699000Y4445000D02*
X3199546Y4445000D01*
X3199546Y4445000D02*
X-1664722Y-419268D01*
X9525000Y3810000D02*
X8128000Y2413000D01*
X8128000Y2413000D02*
X8128000Y679748D01*
X8128000Y679748D02*
X6984999Y-463253D01*
X6984999Y-463253D02*
X6984999Y-3175001D01*
X6984999Y-3175001D02*
X6604000Y-3556000D01*
X-4701000Y-4445000D02*
X-7620000Y-4445000D01*
X-7620000Y-4445000D02*
X-9525000Y-2540000D01*
X-4701000Y-3175000D02*
X-6350000Y-3175000D01*
X-6350000Y-3175000D02*
X-9525000Y0D01*
X-4701000Y-1905000D02*
X-5401000Y-1905000D01*
X-5401000Y-1905000D02*
X-8675001Y1369001D01*
X-8675001Y1369001D02*
X-8675001Y1690001D01*
X-8675001Y1690001D02*
X-9525000Y2540000D01*
X-4701000Y-635000D02*
X-5401000Y-635000D01*
X-5401000Y-635000D02*
X-8386099Y2350099D01*
X-8386099Y2350099D02*
X-8386099Y3941099D01*
X-8386099Y3941099D02*
X-8675001Y4230001D01*
X-8675001Y4230001D02*
X-9525000Y5080000D01*
X-8280335Y10376865D02*
X-5080000Y13577200D01*
X-8280335Y8733964D02*
X-8280335Y10376865D01*
X-7493000Y7946630D02*
X-8280335Y8733964D01*
X-7493000Y2727000D02*
X-7493000Y7946630D01*
X-5401000Y635000D02*
X-7493000Y2727000D01*
X-4701000Y635000D02*
X-5401000Y635000D01*
X-5080000Y13577200D02*
X-5080000Y14605000D01*
X-7115189Y3619189D02*
X-7115189Y8103123D01*
X-7115189Y8103123D02*
X-7902524Y8890458D01*
X-6194476Y10950524D02*
X-3389999Y13755001D01*
X-7902524Y10159542D02*
X-7111542Y10950524D01*
X-5401000Y1905000D02*
X-7115189Y3619189D01*
X-7902524Y8890458D02*
X-7902524Y10159542D01*
X-7111542Y10950524D02*
X-6194476Y10950524D01*
X-3389999Y13755001D02*
X-2540000Y14605000D01*
X-4701000Y1905000D02*
X-5401000Y1905000D01*
X-5939046Y10572713D02*
X-3684759Y12827000D01*
X-1778000Y12827000D02*
X-849999Y13755001D01*
X-849999Y13755001D02*
X0Y14605000D01*
X-3684759Y12827000D02*
X-1778000Y12827000D01*
X-4701000Y3175000D02*
X-5401000Y3175000D01*
X-7524713Y9046952D02*
X-7524713Y10003048D01*
X-6737378Y8259617D02*
X-7524713Y9046952D01*
X-6955048Y10572713D02*
X-5939046Y10572713D01*
X-7524713Y10003048D02*
X-6955048Y10572713D01*
X-5401000Y3175000D02*
X-6737378Y4511378D01*
X-6737378Y4511378D02*
X-6737378Y8259617D01*
X-7146902Y9203446D02*
X-7146902Y9846554D01*
X-6359567Y5403567D02*
X-6359567Y8416111D01*
X1690001Y13755001D02*
X2540000Y14605000D01*
X-5782552Y10194902D02*
X-3658454Y12319000D01*
X254000Y12319000D02*
X1690001Y13755001D01*
X-3658454Y12319000D02*
X254000Y12319000D01*
X-7146902Y9846554D02*
X-6798554Y10194902D01*
X-6359567Y8416111D02*
X-7146902Y9203446D01*
X-4701000Y4445000D02*
X-5401000Y4445000D01*
X-5401000Y4445000D02*
X-6359567Y5403567D01*
X-6798554Y10194902D02*
X-5782552Y10194902D01*
M02*
