G04 #@! TF.FileFunction,Legend,Bot*
%FSLAX46Y46*%
G04 Gerber Fmt 4.6, Leading zero omitted, Abs format (unit mm)*
G04 Created by KiCad (PCBNEW 4.0.4-stable) date 12/02/17 16:34:21*
%MOMM*%
%LPD*%
G01*
G04 APERTURE LIST*
%ADD10C,0.100000*%
%ADD11C,0.150000*%
%ADD12C,0.127000*%
%ADD13C,0.120000*%
G04 APERTURE END LIST*
D10*
D11*
X155132000Y-116574857D02*
X155046286Y-116603429D01*
X154903429Y-116603429D01*
X154846286Y-116574857D01*
X154817715Y-116546286D01*
X154789143Y-116489143D01*
X154789143Y-116432000D01*
X154817715Y-116374857D01*
X154846286Y-116346286D01*
X154903429Y-116317714D01*
X155017715Y-116289143D01*
X155074857Y-116260571D01*
X155103429Y-116232000D01*
X155132000Y-116174857D01*
X155132000Y-116117714D01*
X155103429Y-116060571D01*
X155074857Y-116032000D01*
X155017715Y-116003429D01*
X154874857Y-116003429D01*
X154789143Y-116032000D01*
X154074857Y-116603429D02*
X154074857Y-116003429D01*
X153846285Y-116003429D01*
X153789143Y-116032000D01*
X153760571Y-116060571D01*
X153732000Y-116117714D01*
X153732000Y-116203429D01*
X153760571Y-116260571D01*
X153789143Y-116289143D01*
X153846285Y-116317714D01*
X154074857Y-116317714D01*
D12*
X157788431Y-94070714D02*
X157788431Y-94687571D01*
X157824717Y-94760143D01*
X157861002Y-94796429D01*
X157933574Y-94832714D01*
X158042431Y-94832714D01*
X158115002Y-94796429D01*
X157788431Y-94542429D02*
X157861002Y-94578714D01*
X158006145Y-94578714D01*
X158078717Y-94542429D01*
X158115002Y-94506143D01*
X158151288Y-94433571D01*
X158151288Y-94215857D01*
X158115002Y-94143286D01*
X158078717Y-94107000D01*
X158006145Y-94070714D01*
X157861002Y-94070714D01*
X157788431Y-94107000D01*
X157425573Y-94578714D02*
X157425573Y-94070714D01*
X157425573Y-93816714D02*
X157461859Y-93853000D01*
X157425573Y-93889286D01*
X157389288Y-93853000D01*
X157425573Y-93816714D01*
X157425573Y-93889286D01*
X157171574Y-94070714D02*
X156881288Y-94070714D01*
X157062716Y-93816714D02*
X157062716Y-94469857D01*
X157026431Y-94542429D01*
X156953859Y-94578714D01*
X156881288Y-94578714D01*
X156627287Y-94578714D02*
X156627287Y-93816714D01*
X156300716Y-94578714D02*
X156300716Y-94179571D01*
X156337002Y-94107000D01*
X156409573Y-94070714D01*
X156518430Y-94070714D01*
X156591002Y-94107000D01*
X156627287Y-94143286D01*
X155611287Y-94070714D02*
X155611287Y-94578714D01*
X155937858Y-94070714D02*
X155937858Y-94469857D01*
X155901573Y-94542429D01*
X155829001Y-94578714D01*
X155720144Y-94578714D01*
X155647573Y-94542429D01*
X155611287Y-94506143D01*
X155248429Y-94578714D02*
X155248429Y-93816714D01*
X155248429Y-94107000D02*
X155175858Y-94070714D01*
X155030715Y-94070714D01*
X154958144Y-94107000D01*
X154921858Y-94143286D01*
X154885572Y-94215857D01*
X154885572Y-94433571D01*
X154921858Y-94506143D01*
X154958144Y-94542429D01*
X155030715Y-94578714D01*
X155175858Y-94578714D01*
X155248429Y-94542429D01*
X154559000Y-94506143D02*
X154522715Y-94542429D01*
X154559000Y-94578714D01*
X154595286Y-94542429D01*
X154559000Y-94506143D01*
X154559000Y-94578714D01*
X153869572Y-94542429D02*
X153942143Y-94578714D01*
X154087286Y-94578714D01*
X154159858Y-94542429D01*
X154196143Y-94506143D01*
X154232429Y-94433571D01*
X154232429Y-94215857D01*
X154196143Y-94143286D01*
X154159858Y-94107000D01*
X154087286Y-94070714D01*
X153942143Y-94070714D01*
X153869572Y-94107000D01*
X153434143Y-94578714D02*
X153506715Y-94542429D01*
X153543000Y-94506143D01*
X153579286Y-94433571D01*
X153579286Y-94215857D01*
X153543000Y-94143286D01*
X153506715Y-94107000D01*
X153434143Y-94070714D01*
X153325286Y-94070714D01*
X153252715Y-94107000D01*
X153216429Y-94143286D01*
X153180143Y-94215857D01*
X153180143Y-94433571D01*
X153216429Y-94506143D01*
X153252715Y-94542429D01*
X153325286Y-94578714D01*
X153434143Y-94578714D01*
X152853571Y-94578714D02*
X152853571Y-94070714D01*
X152853571Y-94143286D02*
X152817286Y-94107000D01*
X152744714Y-94070714D01*
X152635857Y-94070714D01*
X152563286Y-94107000D01*
X152527000Y-94179571D01*
X152527000Y-94578714D01*
X152527000Y-94179571D02*
X152490714Y-94107000D01*
X152418143Y-94070714D01*
X152309286Y-94070714D01*
X152236714Y-94107000D01*
X152200429Y-94179571D01*
X152200429Y-94578714D01*
X151293286Y-93780429D02*
X151946429Y-94760143D01*
X150603857Y-94578714D02*
X150857857Y-94215857D01*
X151039285Y-94578714D02*
X151039285Y-93816714D01*
X150749000Y-93816714D01*
X150676428Y-93853000D01*
X150640143Y-93889286D01*
X150603857Y-93961857D01*
X150603857Y-94070714D01*
X150640143Y-94143286D01*
X150676428Y-94179571D01*
X150749000Y-94215857D01*
X151039285Y-94215857D01*
X150168428Y-94578714D02*
X150241000Y-94542429D01*
X150277285Y-94506143D01*
X150313571Y-94433571D01*
X150313571Y-94215857D01*
X150277285Y-94143286D01*
X150241000Y-94107000D01*
X150168428Y-94070714D01*
X150059571Y-94070714D01*
X149987000Y-94107000D01*
X149950714Y-94143286D01*
X149914428Y-94215857D01*
X149914428Y-94433571D01*
X149950714Y-94506143D01*
X149987000Y-94542429D01*
X150059571Y-94578714D01*
X150168428Y-94578714D01*
X149587856Y-94578714D02*
X149587856Y-93816714D01*
X149587856Y-94107000D02*
X149515285Y-94070714D01*
X149370142Y-94070714D01*
X149297571Y-94107000D01*
X149261285Y-94143286D01*
X149224999Y-94215857D01*
X149224999Y-94433571D01*
X149261285Y-94506143D01*
X149297571Y-94542429D01*
X149370142Y-94578714D01*
X149515285Y-94578714D01*
X149587856Y-94542429D01*
X148608142Y-94542429D02*
X148680713Y-94578714D01*
X148825856Y-94578714D01*
X148898427Y-94542429D01*
X148934713Y-94469857D01*
X148934713Y-94179571D01*
X148898427Y-94107000D01*
X148825856Y-94070714D01*
X148680713Y-94070714D01*
X148608142Y-94107000D01*
X148571856Y-94179571D01*
X148571856Y-94252143D01*
X148934713Y-94324714D01*
X148245284Y-94578714D02*
X148245284Y-94070714D01*
X148245284Y-94215857D02*
X148208999Y-94143286D01*
X148172713Y-94107000D01*
X148100142Y-94070714D01*
X148027570Y-94070714D01*
X147882428Y-94070714D02*
X147592142Y-94070714D01*
X147773570Y-93816714D02*
X147773570Y-94469857D01*
X147737285Y-94542429D01*
X147664713Y-94578714D01*
X147592142Y-94578714D01*
X147084141Y-94179571D02*
X146975284Y-94215857D01*
X146938999Y-94252143D01*
X146902713Y-94324714D01*
X146902713Y-94433571D01*
X146938999Y-94506143D01*
X146975284Y-94542429D01*
X147047856Y-94578714D01*
X147338141Y-94578714D01*
X147338141Y-93816714D01*
X147084141Y-93816714D01*
X147011570Y-93853000D01*
X146975284Y-93889286D01*
X146938999Y-93961857D01*
X146938999Y-94034429D01*
X146975284Y-94107000D01*
X147011570Y-94143286D01*
X147084141Y-94179571D01*
X147338141Y-94179571D01*
X146249570Y-94578714D02*
X146249570Y-94179571D01*
X146285856Y-94107000D01*
X146358427Y-94070714D01*
X146503570Y-94070714D01*
X146576141Y-94107000D01*
X146249570Y-94542429D02*
X146322141Y-94578714D01*
X146503570Y-94578714D01*
X146576141Y-94542429D01*
X146612427Y-94469857D01*
X146612427Y-94397286D01*
X146576141Y-94324714D01*
X146503570Y-94288429D01*
X146322141Y-94288429D01*
X146249570Y-94252143D01*
X145886712Y-94578714D02*
X145886712Y-94070714D01*
X145886712Y-94215857D02*
X145850427Y-94143286D01*
X145814141Y-94107000D01*
X145741570Y-94070714D01*
X145668998Y-94070714D01*
X145088427Y-94070714D02*
X145088427Y-94578714D01*
X145414998Y-94070714D02*
X145414998Y-94469857D01*
X145378713Y-94542429D01*
X145306141Y-94578714D01*
X145197284Y-94578714D01*
X145124713Y-94542429D01*
X145088427Y-94506143D01*
X144398998Y-94542429D02*
X144471569Y-94578714D01*
X144616712Y-94578714D01*
X144689284Y-94542429D01*
X144725569Y-94506143D01*
X144761855Y-94433571D01*
X144761855Y-94215857D01*
X144725569Y-94143286D01*
X144689284Y-94107000D01*
X144616712Y-94070714D01*
X144471569Y-94070714D01*
X144398998Y-94107000D01*
X144072426Y-94578714D02*
X144072426Y-93816714D01*
X143745855Y-94578714D02*
X143745855Y-94179571D01*
X143782141Y-94107000D01*
X143854712Y-94070714D01*
X143963569Y-94070714D01*
X144036141Y-94107000D01*
X144072426Y-94143286D01*
X142838712Y-93780429D02*
X143491855Y-94760143D01*
X142584711Y-94578714D02*
X142584711Y-93816714D01*
X142149283Y-94578714D01*
X142149283Y-93816714D01*
X141786425Y-94578714D02*
X141786425Y-94070714D01*
X141786425Y-93816714D02*
X141822711Y-93853000D01*
X141786425Y-93889286D01*
X141750140Y-93853000D01*
X141786425Y-93816714D01*
X141786425Y-93889286D01*
X141496140Y-94578714D02*
X141096997Y-94070714D01*
X141496140Y-94070714D02*
X141096997Y-94578714D01*
X140371283Y-94506143D02*
X140407569Y-94542429D01*
X140516426Y-94578714D01*
X140588997Y-94578714D01*
X140697854Y-94542429D01*
X140770426Y-94469857D01*
X140806711Y-94397286D01*
X140842997Y-94252143D01*
X140842997Y-94143286D01*
X140806711Y-93998143D01*
X140770426Y-93925571D01*
X140697854Y-93853000D01*
X140588997Y-93816714D01*
X140516426Y-93816714D01*
X140407569Y-93853000D01*
X140371283Y-93889286D01*
X139718140Y-94578714D02*
X139718140Y-94179571D01*
X139754426Y-94107000D01*
X139826997Y-94070714D01*
X139972140Y-94070714D01*
X140044711Y-94107000D01*
X139718140Y-94542429D02*
X139790711Y-94578714D01*
X139972140Y-94578714D01*
X140044711Y-94542429D01*
X140080997Y-94469857D01*
X140080997Y-94397286D01*
X140044711Y-94324714D01*
X139972140Y-94288429D01*
X139790711Y-94288429D01*
X139718140Y-94252143D01*
X139355282Y-94578714D02*
X139355282Y-94070714D01*
X139355282Y-94215857D02*
X139318997Y-94143286D01*
X139282711Y-94107000D01*
X139210140Y-94070714D01*
X139137568Y-94070714D01*
X138556997Y-94578714D02*
X138556997Y-93816714D01*
X138556997Y-94542429D02*
X138629568Y-94578714D01*
X138774711Y-94578714D01*
X138847283Y-94542429D01*
X138883568Y-94506143D01*
X138919854Y-94433571D01*
X138919854Y-94215857D01*
X138883568Y-94143286D01*
X138847283Y-94107000D01*
X138774711Y-94070714D01*
X138629568Y-94070714D01*
X138556997Y-94107000D01*
X152490713Y-114372571D02*
X152381856Y-114408857D01*
X152345571Y-114445143D01*
X152309285Y-114517714D01*
X152309285Y-114626571D01*
X152345571Y-114699143D01*
X152381856Y-114735429D01*
X152454428Y-114771714D01*
X152744713Y-114771714D01*
X152744713Y-114009714D01*
X152490713Y-114009714D01*
X152418142Y-114046000D01*
X152381856Y-114082286D01*
X152345571Y-114154857D01*
X152345571Y-114227429D01*
X152381856Y-114300000D01*
X152418142Y-114336286D01*
X152490713Y-114372571D01*
X152744713Y-114372571D01*
X151547285Y-114771714D02*
X151801285Y-114408857D01*
X151982713Y-114771714D02*
X151982713Y-114009714D01*
X151692428Y-114009714D01*
X151619856Y-114046000D01*
X151583571Y-114082286D01*
X151547285Y-114154857D01*
X151547285Y-114263714D01*
X151583571Y-114336286D01*
X151619856Y-114372571D01*
X151692428Y-114408857D01*
X151982713Y-114408857D01*
X151220713Y-114771714D02*
X151220713Y-114009714D01*
X151039285Y-114009714D01*
X150930428Y-114046000D01*
X150857856Y-114118571D01*
X150821571Y-114191143D01*
X150785285Y-114336286D01*
X150785285Y-114445143D01*
X150821571Y-114590286D01*
X150857856Y-114662857D01*
X150930428Y-114735429D01*
X151039285Y-114771714D01*
X151220713Y-114771714D01*
X149624142Y-114372571D02*
X149515285Y-114408857D01*
X149479000Y-114445143D01*
X149442714Y-114517714D01*
X149442714Y-114626571D01*
X149479000Y-114699143D01*
X149515285Y-114735429D01*
X149587857Y-114771714D01*
X149878142Y-114771714D01*
X149878142Y-114009714D01*
X149624142Y-114009714D01*
X149551571Y-114046000D01*
X149515285Y-114082286D01*
X149479000Y-114154857D01*
X149479000Y-114227429D01*
X149515285Y-114300000D01*
X149551571Y-114336286D01*
X149624142Y-114372571D01*
X149878142Y-114372571D01*
X148100143Y-114771714D02*
X148354143Y-114408857D01*
X148535571Y-114771714D02*
X148535571Y-114009714D01*
X148245286Y-114009714D01*
X148172714Y-114046000D01*
X148136429Y-114082286D01*
X148100143Y-114154857D01*
X148100143Y-114263714D01*
X148136429Y-114336286D01*
X148172714Y-114372571D01*
X148245286Y-114408857D01*
X148535571Y-114408857D01*
X147773571Y-114372571D02*
X147519571Y-114372571D01*
X147410714Y-114771714D02*
X147773571Y-114771714D01*
X147773571Y-114009714D01*
X147410714Y-114009714D01*
X147193000Y-114009714D02*
X146939000Y-114771714D01*
X146685000Y-114009714D01*
X145415000Y-114699143D02*
X145451286Y-114735429D01*
X145560143Y-114771714D01*
X145632714Y-114771714D01*
X145741571Y-114735429D01*
X145814143Y-114662857D01*
X145850428Y-114590286D01*
X145886714Y-114445143D01*
X145886714Y-114336286D01*
X145850428Y-114191143D01*
X145814143Y-114118571D01*
X145741571Y-114046000D01*
X145632714Y-114009714D01*
X145560143Y-114009714D01*
X145451286Y-114046000D01*
X145415000Y-114082286D01*
X152454427Y-115352286D02*
X152418141Y-115316000D01*
X152345570Y-115279714D01*
X152164141Y-115279714D01*
X152091570Y-115316000D01*
X152055284Y-115352286D01*
X152018999Y-115424857D01*
X152018999Y-115497429D01*
X152055284Y-115606286D01*
X152490713Y-116041714D01*
X152018999Y-116041714D01*
X151547285Y-115279714D02*
X151474713Y-115279714D01*
X151402142Y-115316000D01*
X151365856Y-115352286D01*
X151329570Y-115424857D01*
X151293285Y-115570000D01*
X151293285Y-115751429D01*
X151329570Y-115896571D01*
X151365856Y-115969143D01*
X151402142Y-116005429D01*
X151474713Y-116041714D01*
X151547285Y-116041714D01*
X151619856Y-116005429D01*
X151656142Y-115969143D01*
X151692427Y-115896571D01*
X151728713Y-115751429D01*
X151728713Y-115570000D01*
X151692427Y-115424857D01*
X151656142Y-115352286D01*
X151619856Y-115316000D01*
X151547285Y-115279714D01*
X150567571Y-116041714D02*
X151002999Y-116041714D01*
X150785285Y-116041714D02*
X150785285Y-115279714D01*
X150857856Y-115388571D01*
X150930428Y-115461143D01*
X151002999Y-115497429D01*
X150313571Y-115279714D02*
X149805571Y-115279714D01*
X150132142Y-116041714D01*
X148934714Y-116041714D02*
X148934714Y-115279714D01*
X148753286Y-115279714D01*
X148644429Y-115316000D01*
X148571857Y-115388571D01*
X148535572Y-115461143D01*
X148499286Y-115606286D01*
X148499286Y-115715143D01*
X148535572Y-115860286D01*
X148571857Y-115932857D01*
X148644429Y-116005429D01*
X148753286Y-116041714D01*
X148934714Y-116041714D01*
X148172714Y-115642571D02*
X147918714Y-115642571D01*
X147809857Y-116041714D02*
X148172714Y-116041714D01*
X148172714Y-115279714D01*
X147809857Y-115279714D01*
X147047857Y-115969143D02*
X147084143Y-116005429D01*
X147193000Y-116041714D01*
X147265571Y-116041714D01*
X147374428Y-116005429D01*
X147447000Y-115932857D01*
X147483285Y-115860286D01*
X147519571Y-115715143D01*
X147519571Y-115606286D01*
X147483285Y-115461143D01*
X147447000Y-115388571D01*
X147374428Y-115316000D01*
X147265571Y-115279714D01*
X147193000Y-115279714D01*
X147084143Y-115316000D01*
X147047857Y-115352286D01*
X146177000Y-115352286D02*
X146140714Y-115316000D01*
X146068143Y-115279714D01*
X145886714Y-115279714D01*
X145814143Y-115316000D01*
X145777857Y-115352286D01*
X145741572Y-115424857D01*
X145741572Y-115497429D01*
X145777857Y-115606286D01*
X146213286Y-116041714D01*
X145741572Y-116041714D01*
X153663953Y-119797286D02*
X153276905Y-119797286D01*
X153470429Y-119990810D02*
X153470429Y-119603762D01*
X152768905Y-119990810D02*
X153059191Y-119990810D01*
X152914048Y-119990810D02*
X152914048Y-119482810D01*
X152962429Y-119555381D01*
X153010810Y-119603762D01*
X153059191Y-119627952D01*
X152599572Y-119482810D02*
X152260905Y-119482810D01*
X152478619Y-119990810D01*
X151970619Y-119482810D02*
X151922238Y-119482810D01*
X151873857Y-119507000D01*
X151849666Y-119531190D01*
X151825476Y-119579571D01*
X151801285Y-119676333D01*
X151801285Y-119797286D01*
X151825476Y-119894048D01*
X151849666Y-119942429D01*
X151873857Y-119966619D01*
X151922238Y-119990810D01*
X151970619Y-119990810D01*
X152019000Y-119966619D01*
X152043190Y-119942429D01*
X152067381Y-119894048D01*
X152091571Y-119797286D01*
X152091571Y-119676333D01*
X152067381Y-119579571D01*
X152043190Y-119531190D01*
X152019000Y-119507000D01*
X151970619Y-119482810D01*
X151656142Y-119482810D02*
X151486809Y-119990810D01*
X151317475Y-119482810D01*
X150120047Y-119507000D02*
X150168428Y-119482810D01*
X150241000Y-119482810D01*
X150313571Y-119507000D01*
X150361952Y-119555381D01*
X150386143Y-119603762D01*
X150410333Y-119700524D01*
X150410333Y-119773095D01*
X150386143Y-119869857D01*
X150361952Y-119918238D01*
X150313571Y-119966619D01*
X150241000Y-119990810D01*
X150192619Y-119990810D01*
X150120047Y-119966619D01*
X150095857Y-119942429D01*
X150095857Y-119773095D01*
X150192619Y-119773095D01*
X149878143Y-119990810D02*
X149878143Y-119482810D01*
X149587857Y-119990810D01*
X149587857Y-119482810D01*
X149345953Y-119990810D02*
X149345953Y-119482810D01*
X149225000Y-119482810D01*
X149152429Y-119507000D01*
X149104048Y-119555381D01*
X149079857Y-119603762D01*
X149055667Y-119700524D01*
X149055667Y-119773095D01*
X149079857Y-119869857D01*
X149104048Y-119918238D01*
X149152429Y-119966619D01*
X149225000Y-119990810D01*
X149345953Y-119990810D01*
X148227143Y-119797286D02*
X147840095Y-119797286D01*
X148033619Y-119990810D02*
X148033619Y-119603762D01*
X147356286Y-119482810D02*
X147598191Y-119482810D01*
X147622381Y-119724714D01*
X147598191Y-119700524D01*
X147549810Y-119676333D01*
X147428857Y-119676333D01*
X147380476Y-119700524D01*
X147356286Y-119724714D01*
X147332095Y-119773095D01*
X147332095Y-119894048D01*
X147356286Y-119942429D01*
X147380476Y-119966619D01*
X147428857Y-119990810D01*
X147549810Y-119990810D01*
X147598191Y-119966619D01*
X147622381Y-119942429D01*
X147186952Y-119482810D02*
X147017619Y-119990810D01*
X146848285Y-119482810D01*
X145185190Y-119482810D02*
X145088428Y-119482810D01*
X145040047Y-119507000D01*
X144991666Y-119555381D01*
X144967475Y-119652143D01*
X144967475Y-119821476D01*
X144991666Y-119918238D01*
X145040047Y-119966619D01*
X145088428Y-119990810D01*
X145185190Y-119990810D01*
X145233571Y-119966619D01*
X145281952Y-119918238D01*
X145306142Y-119821476D01*
X145306142Y-119652143D01*
X145281952Y-119555381D01*
X145233571Y-119507000D01*
X145185190Y-119482810D01*
X144749762Y-119724714D02*
X144580428Y-119724714D01*
X144507857Y-119990810D02*
X144749762Y-119990810D01*
X144749762Y-119482810D01*
X144507857Y-119482810D01*
X145402904Y-119395240D02*
X144411095Y-119395240D01*
X145511762Y-90272810D02*
X145511762Y-89764810D01*
X145390809Y-89764810D01*
X145318238Y-89789000D01*
X145269857Y-89837381D01*
X145245666Y-89885762D01*
X145221476Y-89982524D01*
X145221476Y-90055095D01*
X145245666Y-90151857D01*
X145269857Y-90200238D01*
X145318238Y-90248619D01*
X145390809Y-90272810D01*
X145511762Y-90272810D01*
X144907000Y-89764810D02*
X144810238Y-89764810D01*
X144761857Y-89789000D01*
X144713476Y-89837381D01*
X144689285Y-89934143D01*
X144689285Y-90103476D01*
X144713476Y-90200238D01*
X144761857Y-90248619D01*
X144810238Y-90272810D01*
X144907000Y-90272810D01*
X144955381Y-90248619D01*
X145003762Y-90200238D01*
X145027952Y-90103476D01*
X145027952Y-89934143D01*
X145003762Y-89837381D01*
X144955381Y-89789000D01*
X144907000Y-89764810D01*
X144471572Y-89764810D02*
X144471572Y-90176048D01*
X144447381Y-90224429D01*
X144423191Y-90248619D01*
X144374810Y-90272810D01*
X144278048Y-90272810D01*
X144229667Y-90248619D01*
X144205476Y-90224429D01*
X144181286Y-90176048D01*
X144181286Y-89764810D01*
X144011953Y-89764810D02*
X143721667Y-89764810D01*
X143866810Y-90272810D02*
X143866810Y-89764810D01*
X147202071Y-90272810D02*
X147443976Y-90272810D01*
X147443976Y-89764810D01*
X147032738Y-90006714D02*
X146863404Y-90006714D01*
X146790833Y-90272810D02*
X147032738Y-90272810D01*
X147032738Y-89764810D01*
X146790833Y-89764810D01*
X147564928Y-89677240D02*
X146694071Y-89677240D01*
X150035381Y-90224429D02*
X150059571Y-90248619D01*
X150132143Y-90272810D01*
X150180524Y-90272810D01*
X150253095Y-90248619D01*
X150301476Y-90200238D01*
X150325667Y-90151857D01*
X150349857Y-90055095D01*
X150349857Y-89982524D01*
X150325667Y-89885762D01*
X150301476Y-89837381D01*
X150253095Y-89789000D01*
X150180524Y-89764810D01*
X150132143Y-89764810D01*
X150059571Y-89789000D01*
X150035381Y-89813190D01*
X149575762Y-90272810D02*
X149817667Y-90272810D01*
X149817667Y-89764810D01*
X149406429Y-90272810D02*
X149406429Y-89764810D01*
X149116143Y-90272810D02*
X149333857Y-89982524D01*
X149116143Y-89764810D02*
X149406429Y-90055095D01*
X152793095Y-90272810D02*
X152793095Y-89764810D01*
X152672142Y-89764810D01*
X152599571Y-89789000D01*
X152551190Y-89837381D01*
X152526999Y-89885762D01*
X152502809Y-89982524D01*
X152502809Y-90055095D01*
X152526999Y-90151857D01*
X152551190Y-90200238D01*
X152599571Y-90248619D01*
X152672142Y-90272810D01*
X152793095Y-90272810D01*
X152285095Y-90272810D02*
X152285095Y-89764810D01*
X152043190Y-90272810D02*
X152043190Y-89764810D01*
X151752904Y-90272810D01*
X151752904Y-89764810D01*
D11*
X152847000Y-97662000D02*
X152847000Y-97937000D01*
X145097000Y-97662000D02*
X145097000Y-98027000D01*
X145097000Y-113412000D02*
X145097000Y-113047000D01*
X152847000Y-113412000D02*
X152847000Y-113047000D01*
X152847000Y-97662000D02*
X145097000Y-97662000D01*
X152847000Y-113412000D02*
X145097000Y-113412000D01*
X152847000Y-97937000D02*
X154672000Y-97937000D01*
D13*
X158810000Y-113090000D02*
X156150000Y-113090000D01*
X158810000Y-100330000D02*
X158810000Y-113090000D01*
X156150000Y-100330000D02*
X156150000Y-113090000D01*
X158810000Y-100330000D02*
X156150000Y-100330000D01*
X158810000Y-99060000D02*
X158810000Y-97730000D01*
X158810000Y-97730000D02*
X157480000Y-97730000D01*
X138370000Y-96714000D02*
X141030000Y-96714000D01*
X138370000Y-109474000D02*
X138370000Y-96714000D01*
X141030000Y-109474000D02*
X141030000Y-96714000D01*
X138370000Y-109474000D02*
X141030000Y-109474000D01*
X138370000Y-110744000D02*
X138370000Y-112074000D01*
X138370000Y-112074000D02*
X139700000Y-112074000D01*
D10*
G36*
X153497612Y-114896985D02*
X153729584Y-114853847D01*
X153743314Y-114842036D01*
X153814420Y-114676146D01*
X153813291Y-114658211D01*
X153678135Y-114461219D01*
X153679617Y-114445189D01*
X153848428Y-114276378D01*
X153864444Y-114274896D01*
X154064892Y-114412451D01*
X154082912Y-114413750D01*
X154243723Y-114347921D01*
X154255576Y-114334346D01*
X154300238Y-114094415D01*
X154312613Y-114084128D01*
X154551373Y-114084128D01*
X154563734Y-114094415D01*
X154608382Y-114334346D01*
X154620235Y-114347921D01*
X154781059Y-114413750D01*
X154799079Y-114412451D01*
X154999514Y-114274896D01*
X155015544Y-114276378D01*
X155184369Y-114445189D01*
X155185851Y-114461219D01*
X155050680Y-114658211D01*
X155049566Y-114676146D01*
X155120686Y-114842036D01*
X155134416Y-114853847D01*
X155366374Y-114896985D01*
X155376661Y-114909374D01*
X155376647Y-115148120D01*
X155366360Y-115160510D01*
X155140088Y-115202617D01*
X155126655Y-115214513D01*
X155056014Y-115390972D01*
X155057355Y-115408992D01*
X155185879Y-115596289D01*
X155184397Y-115612333D01*
X155015558Y-115781145D01*
X154999528Y-115782626D01*
X154815547Y-115656346D01*
X154797908Y-115655739D01*
X154716769Y-115699060D01*
X154703434Y-115694150D01*
X154536133Y-115289909D01*
X154541044Y-115274796D01*
X154561349Y-115262364D01*
X154574191Y-115252528D01*
X154662584Y-115158778D01*
X154696040Y-115030123D01*
X154675289Y-114927348D01*
X154618702Y-114843422D01*
X154534776Y-114786839D01*
X154432007Y-114766090D01*
X154329240Y-114786839D01*
X154245319Y-114843422D01*
X154188737Y-114927348D01*
X154167988Y-115030123D01*
X154201439Y-115158778D01*
X154289838Y-115252528D01*
X154302651Y-115262364D01*
X154322956Y-115274796D01*
X154327867Y-115289909D01*
X154160580Y-115694164D01*
X154147245Y-115699074D01*
X154066106Y-115655753D01*
X154048467Y-115656360D01*
X153864472Y-115782640D01*
X153848456Y-115781159D01*
X153679617Y-115612347D01*
X153678135Y-115596303D01*
X153806673Y-115409006D01*
X153808000Y-115390986D01*
X153737359Y-115214527D01*
X153723940Y-115202631D01*
X153497668Y-115160524D01*
X153487381Y-115148134D01*
X153487353Y-114909388D01*
X153497612Y-114896985D01*
X153497612Y-114896985D01*
G37*
D11*
X154177905Y-96189381D02*
X154177905Y-96998905D01*
X154130286Y-97094143D01*
X154082667Y-97141762D01*
X153987429Y-97189381D01*
X153796952Y-97189381D01*
X153701714Y-97141762D01*
X153654095Y-97094143D01*
X153606476Y-96998905D01*
X153606476Y-96189381D01*
X152606476Y-97189381D02*
X153177905Y-97189381D01*
X152892191Y-97189381D02*
X152892191Y-96189381D01*
X152987429Y-96332238D01*
X153082667Y-96427476D01*
X153177905Y-96475095D01*
X158218095Y-96972381D02*
X158218095Y-95972381D01*
X157837142Y-95972381D01*
X157741904Y-96020000D01*
X157694285Y-96067619D01*
X157646666Y-96162857D01*
X157646666Y-96305714D01*
X157694285Y-96400952D01*
X157741904Y-96448571D01*
X157837142Y-96496190D01*
X158218095Y-96496190D01*
X156694285Y-96972381D02*
X157265714Y-96972381D01*
X156980000Y-96972381D02*
X156980000Y-95972381D01*
X157075238Y-96115238D01*
X157170476Y-96210476D01*
X157265714Y-96258095D01*
X140565095Y-113990381D02*
X140565095Y-112990381D01*
X140184142Y-112990381D01*
X140088904Y-113038000D01*
X140041285Y-113085619D01*
X139993666Y-113180857D01*
X139993666Y-113323714D01*
X140041285Y-113418952D01*
X140088904Y-113466571D01*
X140184142Y-113514190D01*
X140565095Y-113514190D01*
X139612714Y-113085619D02*
X139565095Y-113038000D01*
X139469857Y-112990381D01*
X139231761Y-112990381D01*
X139136523Y-113038000D01*
X139088904Y-113085619D01*
X139041285Y-113180857D01*
X139041285Y-113276095D01*
X139088904Y-113418952D01*
X139660333Y-113990381D01*
X139041285Y-113990381D01*
M02*
