M48
;DRILL file {KiCad 4.0.4-stable} date 12/10/17 21:58:52
;FORMAT={-:-/ absolute / metric / decimal}
FMAT,2
METRIC,TZ
T1C0.381
T2C1.000
T3C1.600
%
G90
G05
M71
T1
X2.515Y12.548
T2
X-9.525Y5.08
X-9.525Y2.54
X-9.525Y0.
X-9.525Y-2.54
X-9.525Y-5.08
X-5.08Y14.605
X-5.08Y-14.605
X-2.54Y14.605
X-2.54Y-14.605
X0.Y14.605
X0.Y-14.605
X2.54Y14.605
X2.54Y-14.605
X5.08Y14.605
X5.08Y-14.605
X9.525Y6.35
X9.525Y3.81
X9.525Y1.27
X9.525Y-1.27
X9.525Y-3.81
T3
X-5.75Y4.5
X-5.75Y0.
X-5.75Y-4.5
X-4.Y8.
X-4.Y-8.
X0.Y9.
X0.Y-9.
X4.Y8.
X4.Y-8.
X5.75Y4.5
X5.75Y0.
X5.75Y-4.5
T0
M30
