G04 #@! TF.FileFunction,Legend,Top*
%FSLAX46Y46*%
G04 Gerber Fmt 4.6, Leading zero omitted, Abs format (unit mm)*
G04 Created by KiCad (PCBNEW 4.0.4-stable) date 12/10/17 21:58:31*
%MOMM*%
%LPD*%
G01*
G04 APERTURE LIST*
%ADD10C,0.100000*%
%ADD11C,0.120000*%
%ADD12C,0.150000*%
G04 APERTURE END LIST*
D10*
D11*
X6410000Y13275000D02*
X6410000Y15935000D01*
X-3810000Y13275000D02*
X6410000Y13275000D01*
X-3810000Y15935000D02*
X6410000Y15935000D01*
X-3810000Y13275000D02*
X-3810000Y15935000D01*
X-5080000Y13275000D02*
X-6410000Y13275000D01*
X-6410000Y13275000D02*
X-6410000Y14605000D01*
X-8195000Y6410000D02*
X-10855000Y6410000D01*
X-8195000Y-3810000D02*
X-8195000Y6410000D01*
X-10855000Y-3810000D02*
X-10855000Y6410000D01*
X-8195000Y-3810000D02*
X-10855000Y-3810000D01*
X-8195000Y-5080000D02*
X-8195000Y-6410000D01*
X-8195000Y-6410000D02*
X-9525000Y-6410000D01*
X6410000Y-15935000D02*
X6410000Y-13275000D01*
X-3810000Y-15935000D02*
X6410000Y-15935000D01*
X-3810000Y-13275000D02*
X6410000Y-13275000D01*
X-3810000Y-15935000D02*
X-3810000Y-13275000D01*
X-5080000Y-15935000D02*
X-6410000Y-15935000D01*
X-6410000Y-15935000D02*
X-6410000Y-14605000D01*
X10855000Y7680000D02*
X8195000Y7680000D01*
X10855000Y-2540000D02*
X10855000Y7680000D01*
X8195000Y-2540000D02*
X8195000Y7680000D01*
X10855000Y-2540000D02*
X8195000Y-2540000D01*
X10855000Y-3810000D02*
X10855000Y-5140000D01*
X10855000Y-5140000D02*
X9525000Y-5140000D01*
X2925000Y-11856000D02*
X1925000Y-11856000D01*
X1925000Y-10496000D02*
X2925000Y-10496000D01*
X1139000Y-5035000D02*
X2139000Y-5035000D01*
X2139000Y-6395000D02*
X1139000Y-6395000D01*
X2282000Y-2114000D02*
X3282000Y-2114000D01*
X3282000Y-3474000D02*
X2282000Y-3474000D01*
X2282000Y807000D02*
X3282000Y807000D01*
X3282000Y-553000D02*
X2282000Y-553000D01*
X2306000Y3855000D02*
X3306000Y3855000D01*
X3306000Y2495000D02*
X2306000Y2495000D01*
X1901000Y11983000D02*
X2901000Y11983000D01*
X2901000Y10623000D02*
X1901000Y10623000D01*
X-807000Y5481000D02*
X-807000Y6481000D01*
X553000Y6481000D02*
X553000Y5481000D01*
X-2663000Y9861000D02*
X-3663000Y9861000D01*
X-3663000Y11221000D02*
X-2663000Y11221000D01*
X-2282000Y1987000D02*
X-3282000Y1987000D01*
X-3282000Y3347000D02*
X-2282000Y3347000D01*
X-2282000Y-1061000D02*
X-3282000Y-1061000D01*
X-3282000Y299000D02*
X-2282000Y299000D01*
X-3282000Y-1733000D02*
X-2282000Y-1733000D01*
X-2282000Y-3093000D02*
X-3282000Y-3093000D01*
D12*
X-6957619Y13866905D02*
X-7957619Y13866905D01*
X-7957619Y14247858D01*
X-7910000Y14343096D01*
X-7862381Y14390715D01*
X-7767143Y14438334D01*
X-7624286Y14438334D01*
X-7529048Y14390715D01*
X-7481429Y14343096D01*
X-7433810Y14247858D01*
X-7433810Y13866905D01*
X-7624286Y15295477D02*
X-6957619Y15295477D01*
X-8005238Y15057381D02*
X-7290952Y14819286D01*
X-7290952Y15438334D01*
X-10263095Y-7862381D02*
X-10263095Y-6862381D01*
X-9882142Y-6862381D01*
X-9786904Y-6910000D01*
X-9739285Y-6957619D01*
X-9691666Y-7052857D01*
X-9691666Y-7195714D01*
X-9739285Y-7290952D01*
X-9786904Y-7338571D01*
X-9882142Y-7386190D01*
X-10263095Y-7386190D01*
X-8786904Y-6862381D02*
X-9263095Y-6862381D01*
X-9310714Y-7338571D01*
X-9263095Y-7290952D01*
X-9167857Y-7243333D01*
X-8929761Y-7243333D01*
X-8834523Y-7290952D01*
X-8786904Y-7338571D01*
X-8739285Y-7433810D01*
X-8739285Y-7671905D01*
X-8786904Y-7767143D01*
X-8834523Y-7814762D01*
X-8929761Y-7862381D01*
X-9167857Y-7862381D01*
X-9263095Y-7814762D01*
X-9310714Y-7767143D01*
X-6957619Y-15343095D02*
X-7957619Y-15343095D01*
X-7957619Y-14962142D01*
X-7910000Y-14866904D01*
X-7862381Y-14819285D01*
X-7767143Y-14771666D01*
X-7624286Y-14771666D01*
X-7529048Y-14819285D01*
X-7481429Y-14866904D01*
X-7433810Y-14962142D01*
X-7433810Y-15343095D01*
X-7957619Y-13914523D02*
X-7957619Y-14105000D01*
X-7910000Y-14200238D01*
X-7862381Y-14247857D01*
X-7719524Y-14343095D01*
X-7529048Y-14390714D01*
X-7148095Y-14390714D01*
X-7052857Y-14343095D01*
X-7005238Y-14295476D01*
X-6957619Y-14200238D01*
X-6957619Y-14009761D01*
X-7005238Y-13914523D01*
X-7052857Y-13866904D01*
X-7148095Y-13819285D01*
X-7386190Y-13819285D01*
X-7481429Y-13866904D01*
X-7529048Y-13914523D01*
X-7576667Y-14009761D01*
X-7576667Y-14200238D01*
X-7529048Y-14295476D01*
X-7481429Y-14343095D01*
X-7386190Y-14390714D01*
X8786905Y-6592381D02*
X8786905Y-5592381D01*
X9167858Y-5592381D01*
X9263096Y-5640000D01*
X9310715Y-5687619D01*
X9358334Y-5782857D01*
X9358334Y-5925714D01*
X9310715Y-6020952D01*
X9263096Y-6068571D01*
X9167858Y-6116190D01*
X8786905Y-6116190D01*
X9691667Y-5592381D02*
X10358334Y-5592381D01*
X9929762Y-6592381D01*
X2258334Y-10178381D02*
X1925000Y-9702190D01*
X1686905Y-10178381D02*
X1686905Y-9178381D01*
X2067858Y-9178381D01*
X2163096Y-9226000D01*
X2210715Y-9273619D01*
X2258334Y-9368857D01*
X2258334Y-9511714D01*
X2210715Y-9606952D01*
X2163096Y-9654571D01*
X2067858Y-9702190D01*
X1686905Y-9702190D01*
X3210715Y-10178381D02*
X2639286Y-10178381D01*
X2925000Y-10178381D02*
X2925000Y-9178381D01*
X2829762Y-9321238D01*
X2734524Y-9416476D01*
X2639286Y-9464095D01*
X1472334Y-7617381D02*
X1139000Y-7141190D01*
X900905Y-7617381D02*
X900905Y-6617381D01*
X1281858Y-6617381D01*
X1377096Y-6665000D01*
X1424715Y-6712619D01*
X1472334Y-6807857D01*
X1472334Y-6950714D01*
X1424715Y-7045952D01*
X1377096Y-7093571D01*
X1281858Y-7141190D01*
X900905Y-7141190D01*
X1853286Y-6712619D02*
X1900905Y-6665000D01*
X1996143Y-6617381D01*
X2234239Y-6617381D01*
X2329477Y-6665000D01*
X2377096Y-6712619D01*
X2424715Y-6807857D01*
X2424715Y-6903095D01*
X2377096Y-7045952D01*
X1805667Y-7617381D01*
X2424715Y-7617381D01*
X2615334Y-4696381D02*
X2282000Y-4220190D01*
X2043905Y-4696381D02*
X2043905Y-3696381D01*
X2424858Y-3696381D01*
X2520096Y-3744000D01*
X2567715Y-3791619D01*
X2615334Y-3886857D01*
X2615334Y-4029714D01*
X2567715Y-4124952D01*
X2520096Y-4172571D01*
X2424858Y-4220190D01*
X2043905Y-4220190D01*
X2948667Y-3696381D02*
X3567715Y-3696381D01*
X3234381Y-4077333D01*
X3377239Y-4077333D01*
X3472477Y-4124952D01*
X3520096Y-4172571D01*
X3567715Y-4267810D01*
X3567715Y-4505905D01*
X3520096Y-4601143D01*
X3472477Y-4648762D01*
X3377239Y-4696381D01*
X3091524Y-4696381D01*
X2996286Y-4648762D01*
X2948667Y-4601143D01*
X2615334Y-1775381D02*
X2282000Y-1299190D01*
X2043905Y-1775381D02*
X2043905Y-775381D01*
X2424858Y-775381D01*
X2520096Y-823000D01*
X2567715Y-870619D01*
X2615334Y-965857D01*
X2615334Y-1108714D01*
X2567715Y-1203952D01*
X2520096Y-1251571D01*
X2424858Y-1299190D01*
X2043905Y-1299190D01*
X3472477Y-1108714D02*
X3472477Y-1775381D01*
X3234381Y-727762D02*
X2996286Y-1442048D01*
X3615334Y-1442048D01*
X2639334Y1272619D02*
X2306000Y1748810D01*
X2067905Y1272619D02*
X2067905Y2272619D01*
X2448858Y2272619D01*
X2544096Y2225000D01*
X2591715Y2177381D01*
X2639334Y2082143D01*
X2639334Y1939286D01*
X2591715Y1844048D01*
X2544096Y1796429D01*
X2448858Y1748810D01*
X2067905Y1748810D01*
X3544096Y2272619D02*
X3067905Y2272619D01*
X3020286Y1796429D01*
X3067905Y1844048D01*
X3163143Y1891667D01*
X3401239Y1891667D01*
X3496477Y1844048D01*
X3544096Y1796429D01*
X3591715Y1701190D01*
X3591715Y1463095D01*
X3544096Y1367857D01*
X3496477Y1320238D01*
X3401239Y1272619D01*
X3163143Y1272619D01*
X3067905Y1320238D01*
X3020286Y1367857D01*
X2234334Y9400619D02*
X1901000Y9876810D01*
X1662905Y9400619D02*
X1662905Y10400619D01*
X2043858Y10400619D01*
X2139096Y10353000D01*
X2186715Y10305381D01*
X2234334Y10210143D01*
X2234334Y10067286D01*
X2186715Y9972048D01*
X2139096Y9924429D01*
X2043858Y9876810D01*
X1662905Y9876810D01*
X3091477Y10400619D02*
X2901000Y10400619D01*
X2805762Y10353000D01*
X2758143Y10305381D01*
X2662905Y10162524D01*
X2615286Y9972048D01*
X2615286Y9591095D01*
X2662905Y9495857D01*
X2710524Y9448238D01*
X2805762Y9400619D01*
X2996239Y9400619D01*
X3091477Y9448238D01*
X3139096Y9495857D01*
X3186715Y9591095D01*
X3186715Y9829190D01*
X3139096Y9924429D01*
X3091477Y9972048D01*
X2996239Y10019667D01*
X2805762Y10019667D01*
X2710524Y9972048D01*
X2662905Y9924429D01*
X2615286Y9829190D01*
X1775381Y5814334D02*
X1299190Y5481000D01*
X1775381Y5242905D02*
X775381Y5242905D01*
X775381Y5623858D01*
X823000Y5719096D01*
X870619Y5766715D01*
X965857Y5814334D01*
X1108714Y5814334D01*
X1203952Y5766715D01*
X1251571Y5719096D01*
X1299190Y5623858D01*
X1299190Y5242905D01*
X775381Y6147667D02*
X775381Y6814334D01*
X1775381Y6385762D01*
X-3329666Y11538619D02*
X-3663000Y12014810D01*
X-3901095Y11538619D02*
X-3901095Y12538619D01*
X-3520142Y12538619D01*
X-3424904Y12491000D01*
X-3377285Y12443381D01*
X-3329666Y12348143D01*
X-3329666Y12205286D01*
X-3377285Y12110048D01*
X-3424904Y12062429D01*
X-3520142Y12014810D01*
X-3901095Y12014810D01*
X-2758238Y12110048D02*
X-2853476Y12157667D01*
X-2901095Y12205286D01*
X-2948714Y12300524D01*
X-2948714Y12348143D01*
X-2901095Y12443381D01*
X-2853476Y12491000D01*
X-2758238Y12538619D01*
X-2567761Y12538619D01*
X-2472523Y12491000D01*
X-2424904Y12443381D01*
X-2377285Y12348143D01*
X-2377285Y12300524D01*
X-2424904Y12205286D01*
X-2472523Y12157667D01*
X-2567761Y12110048D01*
X-2758238Y12110048D01*
X-2853476Y12062429D01*
X-2901095Y12014810D01*
X-2948714Y11919571D01*
X-2948714Y11729095D01*
X-2901095Y11633857D01*
X-2853476Y11586238D01*
X-2758238Y11538619D01*
X-2567761Y11538619D01*
X-2472523Y11586238D01*
X-2424904Y11633857D01*
X-2377285Y11729095D01*
X-2377285Y11919571D01*
X-2424904Y12014810D01*
X-2472523Y12062429D01*
X-2567761Y12110048D01*
X-2948666Y3664619D02*
X-3282000Y4140810D01*
X-3520095Y3664619D02*
X-3520095Y4664619D01*
X-3139142Y4664619D01*
X-3043904Y4617000D01*
X-2996285Y4569381D01*
X-2948666Y4474143D01*
X-2948666Y4331286D01*
X-2996285Y4236048D01*
X-3043904Y4188429D01*
X-3139142Y4140810D01*
X-3520095Y4140810D01*
X-2472476Y3664619D02*
X-2282000Y3664619D01*
X-2186761Y3712238D01*
X-2139142Y3759857D01*
X-2043904Y3902714D01*
X-1996285Y4093190D01*
X-1996285Y4474143D01*
X-2043904Y4569381D01*
X-2091523Y4617000D01*
X-2186761Y4664619D01*
X-2377238Y4664619D01*
X-2472476Y4617000D01*
X-2520095Y4569381D01*
X-2567714Y4474143D01*
X-2567714Y4236048D01*
X-2520095Y4140810D01*
X-2472476Y4093190D01*
X-2377238Y4045571D01*
X-2186761Y4045571D01*
X-2091523Y4093190D01*
X-2043904Y4140810D01*
X-1996285Y4236048D01*
X-3424857Y616619D02*
X-3758191Y1092810D01*
X-3996286Y616619D02*
X-3996286Y1616619D01*
X-3615333Y1616619D01*
X-3520095Y1569000D01*
X-3472476Y1521381D01*
X-3424857Y1426143D01*
X-3424857Y1283286D01*
X-3472476Y1188048D01*
X-3520095Y1140429D01*
X-3615333Y1092810D01*
X-3996286Y1092810D01*
X-2472476Y616619D02*
X-3043905Y616619D01*
X-2758191Y616619D02*
X-2758191Y1616619D01*
X-2853429Y1473762D01*
X-2948667Y1378524D01*
X-3043905Y1330905D01*
X-1853429Y1616619D02*
X-1758190Y1616619D01*
X-1662952Y1569000D01*
X-1615333Y1521381D01*
X-1567714Y1426143D01*
X-1520095Y1235667D01*
X-1520095Y997571D01*
X-1567714Y807095D01*
X-1615333Y711857D01*
X-1662952Y664238D01*
X-1758190Y616619D01*
X-1853429Y616619D01*
X-1948667Y664238D01*
X-1996286Y711857D01*
X-2043905Y807095D01*
X-2091524Y997571D01*
X-2091524Y1235667D01*
X-2043905Y1426143D01*
X-1996286Y1521381D01*
X-1948667Y1569000D01*
X-1853429Y1616619D01*
X-3424857Y-4315381D02*
X-3758191Y-3839190D01*
X-3996286Y-4315381D02*
X-3996286Y-3315381D01*
X-3615333Y-3315381D01*
X-3520095Y-3363000D01*
X-3472476Y-3410619D01*
X-3424857Y-3505857D01*
X-3424857Y-3648714D01*
X-3472476Y-3743952D01*
X-3520095Y-3791571D01*
X-3615333Y-3839190D01*
X-3996286Y-3839190D01*
X-2472476Y-4315381D02*
X-3043905Y-4315381D01*
X-2758191Y-4315381D02*
X-2758191Y-3315381D01*
X-2853429Y-3458238D01*
X-2948667Y-3553476D01*
X-3043905Y-3601095D01*
X-1520095Y-4315381D02*
X-2091524Y-4315381D01*
X-1805810Y-4315381D02*
X-1805810Y-3315381D01*
X-1901048Y-3458238D01*
X-1996286Y-3553476D01*
X-2091524Y-3601095D01*
M02*
