M48
;DRILL file {KiCad 4.0.4-stable} date 12/02/17 16:31:21
;FORMAT={-:-/ absolute / inch / decimal}
FMAT,2
INCH,TZ
T1C0.037
T2C0.063
%
G90
G05
M72
T1
X5.5Y-3.86
X5.5Y-3.96
X5.5Y-4.06
X5.5Y-4.16
X5.5Y-4.26
X5.5Y-4.36
X6.2Y-3.9
X6.2Y-4.
X6.2Y-4.1
X6.2Y-4.2
X6.2Y-4.3
X6.2Y-4.4
T2
X5.6236Y-3.9478
X5.6236Y-4.125
X5.6236Y-4.3022
X5.6925Y-3.81
X5.6925Y-4.44
X5.85Y-3.7707
X5.85Y-4.4793
X6.0075Y-3.81
X6.0075Y-4.44
X6.0764Y-3.9478
X6.0764Y-4.125
X6.0764Y-4.3022
T0
M30
