G04 #@! TF.FileFunction,Copper,L1,Top,Signal*
%FSLAX46Y46*%
G04 Gerber Fmt 4.6, Leading zero omitted, Abs format (unit mm)*
G04 Created by KiCad (PCBNEW 4.0.4-stable) date 12/10/17 21:58:31*
%MOMM*%
%LPD*%
G01*
G04 APERTURE LIST*
%ADD10C,0.100000*%
%ADD11C,2.500000*%
%ADD12C,1.700000*%
%ADD13O,1.700000X1.700000*%
%ADD14R,1.700000X1.700000*%
%ADD15R,0.500000X0.900000*%
%ADD16R,0.900000X0.500000*%
%ADD17C,0.762000*%
%ADD18C,0.254000*%
%ADD19C,0.177800*%
G04 APERTURE END LIST*
D10*
D11*
X0Y9000000D03*
X-4000000Y8000000D03*
X-5750000Y4500000D03*
X-5750000Y0D03*
X5750000Y0D03*
X5750000Y4500000D03*
X4000000Y8000000D03*
X-5750000Y-4500000D03*
X5750000Y-4500000D03*
X0Y-9000000D03*
X4000000Y-8000000D03*
X-4000000Y-8000000D03*
D12*
X-5080000Y14605000D03*
D13*
X-2540000Y14605000D03*
X0Y14605000D03*
X2540000Y14605000D03*
X5080000Y14605000D03*
D14*
X-9525000Y-5080000D03*
D13*
X-9525000Y-2540000D03*
X-9525000Y0D03*
X-9525000Y2540000D03*
X-9525000Y5080000D03*
D12*
X-5080000Y-14605000D03*
D13*
X-2540000Y-14605000D03*
X0Y-14605000D03*
X2540000Y-14605000D03*
X5080000Y-14605000D03*
D14*
X9525000Y-3810000D03*
D13*
X9525000Y-1270000D03*
X9525000Y1270000D03*
X9525000Y3810000D03*
X9525000Y6350000D03*
D15*
X1675000Y-11176000D03*
X3175000Y-11176000D03*
X2389000Y-5715000D03*
X889000Y-5715000D03*
X3532000Y-2794000D03*
X2032000Y-2794000D03*
X3532000Y127000D03*
X2032000Y127000D03*
X3556000Y3175000D03*
X2056000Y3175000D03*
X3151000Y11303000D03*
X1651000Y11303000D03*
D16*
X-127000Y6731000D03*
X-127000Y5231000D03*
D15*
X-3913000Y10541000D03*
X-2413000Y10541000D03*
X-3532000Y2667000D03*
X-2032000Y2667000D03*
X-3532000Y-381000D03*
X-2032000Y-381000D03*
X-2032000Y-2413000D03*
X-3532000Y-2413000D03*
D17*
X2514600Y12547600D03*
D18*
X0Y9000000D02*
X0Y6858000D01*
X0Y6858000D02*
X-127000Y6731000D01*
X-4000000Y8000000D02*
X-4000000Y10454000D01*
X-4000000Y10454000D02*
X-3913000Y10541000D01*
X-3532000Y2667000D02*
X-3532000Y2867000D01*
X-3532000Y2867000D02*
X-5165000Y4500000D01*
X-5165000Y4500000D02*
X-5750000Y4500000D01*
X-3532000Y-381000D02*
X-5369000Y-381000D01*
X-5369000Y-381000D02*
X-5750000Y0D01*
X5750000Y0D02*
X3659000Y0D01*
X3659000Y0D02*
X3532000Y127000D01*
X5750000Y4500000D02*
X4425000Y3175000D01*
X4425000Y3175000D02*
X3556000Y3175000D01*
X4000000Y8000000D02*
X4000000Y10958000D01*
X4000000Y10958000D02*
X3655000Y11303000D01*
X3655000Y11303000D02*
X3151000Y11303000D01*
X-2032000Y-2413000D02*
X-2032000Y-2613000D01*
X-3919000Y-4500000D02*
X-3982234Y-4500000D01*
X-3982234Y-4500000D02*
X-5750000Y-4500000D01*
X-2032000Y-2613000D02*
X-3919000Y-4500000D01*
X5750000Y-4500000D02*
X4044000Y-2794000D01*
X4044000Y-2794000D02*
X3532000Y-2794000D01*
X0Y-9000000D02*
X1675000Y-10675000D01*
X1675000Y-10675000D02*
X1675000Y-11176000D01*
X4000000Y-8000000D02*
X2389000Y-6389000D01*
X2389000Y-6389000D02*
X2389000Y-5715000D01*
X3022600Y12547600D02*
X2514600Y12547600D01*
X5080000Y14605000D02*
X3022600Y12547600D01*
X-9525000Y-5080000D02*
X-9525000Y-6184000D01*
X-9525000Y-6184000D02*
X-7709000Y-8000000D01*
X-7709000Y-8000000D02*
X-5767766Y-8000000D01*
X-5767766Y-8000000D02*
X-4000000Y-8000000D01*
D19*
X-5916712Y8895167D02*
X-5080000Y9731879D01*
X-5080000Y13577200D02*
X-5080000Y14605000D01*
X-5916712Y7104833D02*
X-5916712Y8895167D01*
X-2217780Y3405901D02*
X-5916712Y7104833D01*
X1397299Y3405901D02*
X-2217780Y3405901D01*
X-5080000Y9731879D02*
X-5080000Y13577200D01*
X1628200Y3175000D02*
X2056000Y3175000D01*
X1397299Y3405901D02*
X1628200Y3175000D01*
X-4702189Y12442811D02*
X-3389999Y13755001D01*
X-4702189Y9538901D02*
X-4702189Y12442811D01*
X-2874974Y4597400D02*
X-5538901Y7261327D01*
X459422Y4597400D02*
X-2874974Y4597400D01*
X-5538901Y7261327D02*
X-5538901Y8702189D01*
X1651000Y11303000D02*
X1651000Y5788978D01*
X-5538901Y8702189D02*
X-4702189Y9538901D01*
X-3389999Y13755001D02*
X-2540000Y14605000D01*
X1651000Y5788978D02*
X459422Y4597400D01*
X-2207923Y13466099D02*
X-3175000Y12499022D01*
X-3175000Y12499022D02*
X-3175000Y9452574D01*
X-3175000Y9452574D02*
X-865901Y7143475D01*
X-865901Y7143475D02*
X-865901Y5769901D01*
X-865901Y5769901D02*
X-327000Y5231000D01*
X-327000Y5231000D02*
X-127000Y5231000D01*
X0Y14605000D02*
X-1138901Y13466099D01*
X-1138901Y13466099D02*
X-2207923Y13466099D01*
X2540000Y14605000D02*
X-1524000Y10541000D01*
X-1524000Y10541000D02*
X-2413000Y10541000D01*
X-9525000Y-2540000D02*
X-3659000Y-2540000D01*
X-3659000Y-2540000D02*
X-3532000Y-2413000D01*
X-9525000Y0D02*
X-7594600Y-1930400D01*
X-7594600Y-1930400D02*
X-7580912Y-1916712D01*
X-7580912Y-1916712D02*
X-4355112Y-1916712D01*
X-4013200Y-1574800D02*
X-1650178Y-1574800D01*
X-4355112Y-1916712D02*
X-4013200Y-1574800D01*
X889000Y-4113978D02*
X889000Y-5715000D01*
X-1650178Y-1574800D02*
X889000Y-4113978D01*
X-4169694Y-1196989D02*
X-1215106Y-1196989D01*
X-1215106Y-1196989D02*
X381905Y-2794000D01*
X-6488673Y-1538901D02*
X-4511606Y-1538901D01*
X-7288901Y303901D02*
X-7288901Y-738673D01*
X381905Y-2794000D02*
X1604200Y-2794000D01*
X-9525000Y2540000D02*
X-7288901Y303901D01*
X-7288901Y-738673D02*
X-6488673Y-1538901D01*
X1604200Y-2794000D02*
X2032000Y-2794000D01*
X-4511606Y-1538901D02*
X-4169694Y-1196989D01*
X-5983901Y1538901D02*
X-4318000Y1538901D01*
X-4318000Y1538901D02*
X-4231879Y1538901D01*
X1604200Y127000D02*
X192299Y1538901D01*
X2032000Y127000D02*
X1604200Y127000D01*
X192299Y1538901D02*
X-4318000Y1538901D01*
X-9525000Y5080000D02*
X-5983901Y1538901D01*
X3175000Y-11176000D02*
X3602800Y-11176000D01*
X3602800Y-11176000D02*
X8386099Y-6392701D01*
X8386099Y-6392701D02*
X8386099Y-2408901D01*
X8386099Y-2408901D02*
X8675001Y-2119999D01*
X8675001Y-2119999D02*
X9525000Y-1270000D01*
X8675001Y420001D02*
X9525000Y1270000D01*
X5011327Y-1538901D02*
X6716099Y-1538901D01*
X4691626Y-1219200D02*
X5011327Y-1538901D01*
X-658590Y-1219200D02*
X4691626Y-1219200D01*
X-1496790Y-381000D02*
X-658590Y-1219200D01*
X-2032000Y-381000D02*
X-1496790Y-381000D01*
X6716099Y-1538901D02*
X8675001Y420001D01*
X-1373299Y2436099D02*
X-1604200Y2667000D01*
X8151099Y2436099D02*
X-1373299Y2436099D01*
X-1604200Y2667000D02*
X-2032000Y2667000D01*
X9525000Y3810000D02*
X8151099Y2436099D01*
M02*
