G04 #@! TF.FileFunction,Copper,L2,Bot,Signal*
%FSLAX46Y46*%
G04 Gerber Fmt 4.6, Leading zero omitted, Abs format (unit mm)*
G04 Created by KiCad (PCBNEW 4.0.4-stable) date 12/10/17 21:58:31*
%MOMM*%
%LPD*%
G01*
G04 APERTURE LIST*
%ADD10C,0.100000*%
%ADD11C,2.500000*%
%ADD12C,1.700000*%
%ADD13O,1.700000X1.700000*%
%ADD14R,1.700000X1.700000*%
%ADD15C,0.762000*%
%ADD16C,0.254000*%
%ADD17C,0.177800*%
G04 APERTURE END LIST*
D10*
D11*
X0Y9000000D03*
X-4000000Y8000000D03*
X-5750000Y4500000D03*
X-5750000Y0D03*
X5750000Y0D03*
X5750000Y4500000D03*
X4000000Y8000000D03*
X-5750000Y-4500000D03*
X5750000Y-4500000D03*
X0Y-9000000D03*
X4000000Y-8000000D03*
X-4000000Y-8000000D03*
D12*
X-5080000Y14605000D03*
D13*
X-2540000Y14605000D03*
X0Y14605000D03*
X2540000Y14605000D03*
X5080000Y14605000D03*
D14*
X-9525000Y-5080000D03*
D13*
X-9525000Y-2540000D03*
X-9525000Y0D03*
X-9525000Y2540000D03*
X-9525000Y5080000D03*
D12*
X-5080000Y-14605000D03*
D13*
X-2540000Y-14605000D03*
X0Y-14605000D03*
X2540000Y-14605000D03*
X5080000Y-14605000D03*
D14*
X9525000Y-3810000D03*
D13*
X9525000Y-1270000D03*
X9525000Y1270000D03*
X9525000Y3810000D03*
X9525000Y6350000D03*
D15*
X2514600Y12547600D03*
D16*
X2514600Y12547600D02*
X2133601Y12166601D01*
X2133601Y12166601D02*
X2133601Y1049639D01*
X2133601Y1049639D02*
X-1839037Y-2922999D01*
X-1839037Y-2922999D02*
X-7367999Y-2922999D01*
X-7367999Y-2922999D02*
X-9525000Y-5080000D01*
D17*
X9525000Y6350000D02*
X8386099Y5211099D01*
X8386099Y5211099D02*
X8386099Y4913673D01*
X8386099Y4913673D02*
X-2461099Y-5933525D01*
X-2461099Y-5933525D02*
X-2461099Y-10958299D01*
X-2461099Y-10958299D02*
X-5080000Y-13577200D01*
X-5080000Y-13577200D02*
X-5080000Y-14605000D01*
M02*
