G04 #@! TF.FileFunction,Copper,L2,Bot,Signal*
%FSLAX46Y46*%
G04 Gerber Fmt 4.6, Leading zero omitted, Abs format (unit mm)*
G04 Created by KiCad (PCBNEW 4.0.4-stable) date 01/14/18 19:09:26*
%MOMM*%
%LPD*%
G01*
G04 APERTURE LIST*
%ADD10C,0.100000*%
%ADD11C,1.700000*%
%ADD12O,1.700000X1.700000*%
%ADD13R,1.700000X1.700000*%
%ADD14C,1.300000*%
%ADD15C,0.762000*%
%ADD16C,0.177800*%
G04 APERTURE END LIST*
D10*
D11*
X-5080000Y14605000D03*
D12*
X-2540000Y14605000D03*
X0Y14605000D03*
X2540000Y14605000D03*
X5080000Y14605000D03*
D13*
X-9525000Y-5080000D03*
D12*
X-9525000Y-2540000D03*
X-9525000Y0D03*
X-9525000Y2540000D03*
X-9525000Y5080000D03*
D11*
X-5080000Y-14605000D03*
D12*
X-2540000Y-14605000D03*
X0Y-14605000D03*
X2540000Y-14605000D03*
X5080000Y-14605000D03*
D13*
X9525000Y-3810000D03*
D12*
X9525000Y-1270000D03*
X9525000Y1270000D03*
X9525000Y3810000D03*
X9525000Y6350000D03*
D14*
X0Y4000000D03*
X1858893Y3541824D03*
X3291935Y2272259D03*
X3970835Y482147D03*
X3740065Y-1418420D03*
X2652491Y-2994043D03*
X957263Y-3883767D03*
X-957263Y-3883767D03*
X-2652491Y-2994043D03*
X-3740065Y-1418420D03*
X-3970835Y482147D03*
X-3291935Y2272259D03*
X-1858893Y3541824D03*
D15*
X4350000Y-3800000D03*
X-3650000Y6925000D03*
X-4200000Y-7625000D03*
X-8000000Y-900000D03*
D16*
X-18362Y-2756638D02*
X0Y-2738276D01*
X0Y-2738276D02*
X0Y4000000D01*
X-4675000Y-9425000D02*
X-18362Y-4768362D01*
X-18362Y-4768362D02*
X-18362Y-2756638D01*
X-6207800Y-9425000D02*
X-4675000Y-9425000D01*
X-9525000Y-5080000D02*
X-9525000Y-6107800D01*
X-9525000Y-6107800D02*
X-6207800Y-9425000D01*
X5475000Y5075000D02*
X0Y10550000D01*
X0Y10550000D02*
X0Y14605000D01*
X5475000Y-2675000D02*
X5475000Y5075000D01*
X4350000Y-3800000D02*
X5475000Y-2675000D01*
X6700000Y-2825000D02*
X6700000Y3525000D01*
X6700000Y3525000D02*
X9525000Y6350000D01*
X-5080000Y-14605000D02*
X6700000Y-2825000D01*
X-9525000Y0D02*
X-3650000Y5875000D01*
X-3650000Y5875000D02*
X-3650000Y6925000D01*
X-7619001Y-4205999D02*
X-4200000Y-7625000D01*
X-8000000Y-900000D02*
X-7619001Y-1280999D01*
X-7619001Y-1280999D02*
X-7619001Y-4205999D01*
M02*
