G04 #@! TF.FileFunction,Copper,L1,Top,Signal*
%FSLAX46Y46*%
G04 Gerber Fmt 4.6, Leading zero omitted, Abs format (unit mm)*
G04 Created by KiCad (PCBNEW 4.0.4-stable) date 01/14/18 19:09:26*
%MOMM*%
%LPD*%
G01*
G04 APERTURE LIST*
%ADD10C,0.100000*%
%ADD11C,1.700000*%
%ADD12O,1.700000X1.700000*%
%ADD13R,1.700000X1.700000*%
%ADD14R,0.500000X0.900000*%
%ADD15R,0.900000X0.500000*%
%ADD16C,1.300000*%
%ADD17C,0.762000*%
%ADD18C,0.177800*%
%ADD19C,0.254000*%
G04 APERTURE END LIST*
D10*
D11*
X-5080000Y14605000D03*
D12*
X-2540000Y14605000D03*
X0Y14605000D03*
X2540000Y14605000D03*
X5080000Y14605000D03*
D13*
X-9525000Y-5080000D03*
D12*
X-9525000Y-2540000D03*
X-9525000Y0D03*
X-9525000Y2540000D03*
X-9525000Y5080000D03*
D11*
X-5080000Y-14605000D03*
D12*
X-2540000Y-14605000D03*
X0Y-14605000D03*
X2540000Y-14605000D03*
X5080000Y-14605000D03*
D13*
X9525000Y-3810000D03*
D12*
X9525000Y-1270000D03*
X9525000Y1270000D03*
X9525000Y3810000D03*
X9525000Y6350000D03*
D14*
X5900000Y-1875000D03*
X7400000Y-1875000D03*
D15*
X-2400000Y5400000D03*
X-2400000Y6900000D03*
D14*
X-1400000Y-7625000D03*
X-2900000Y-7625000D03*
X-5700000Y500000D03*
X-7200000Y500000D03*
X-4475000Y-5600000D03*
X-5975000Y-5600000D03*
D15*
X-2600000Y10700000D03*
X-2600000Y12200000D03*
X900000Y-5650000D03*
X900000Y-7150000D03*
X2600000Y10600000D03*
X2600000Y12100000D03*
D14*
X5300000Y4600000D03*
X6800000Y4600000D03*
X5500000Y1500000D03*
X7000000Y1500000D03*
X-5650000Y-2250000D03*
X-7150000Y-2250000D03*
D16*
X0Y4000000D03*
X1858893Y3541824D03*
X3291935Y2272259D03*
X3970835Y482147D03*
X3740065Y-1418420D03*
X2652491Y-2994043D03*
X957263Y-3883767D03*
X-957263Y-3883767D03*
X-2652491Y-2994043D03*
X-3740065Y-1418420D03*
X-3970835Y482147D03*
X-3291935Y2272259D03*
X-1858893Y3541824D03*
D14*
X5850000Y-5050000D03*
X7350000Y-5050000D03*
D17*
X4350000Y-3800000D03*
X-3650000Y6925000D03*
X-4200000Y-7625000D03*
X-8000000Y-900000D03*
D18*
X-4475000Y-5600000D02*
X-4475000Y-4816552D01*
X-4475000Y-4816552D02*
X-2652491Y-2994043D01*
X-2894043Y-2994043D02*
X-2652491Y-2994043D01*
X-2600000Y10700000D02*
X-2600000Y10272200D01*
X-2600000Y10272200D02*
X-6247189Y6625011D01*
X-6247189Y6625011D02*
X-6247189Y-1398484D01*
X-6247189Y-1398484D02*
X-6188901Y-1456772D01*
X-3573496Y-6500000D02*
X-957263Y-3883767D01*
X-6188901Y-1456772D02*
X-6188901Y-2931121D01*
X-6188901Y-2931121D02*
X-5436099Y-3683923D01*
X-5436099Y-3683923D02*
X-5436099Y-5858923D01*
X-4795022Y-6500000D02*
X-3573496Y-6500000D01*
X-5436099Y-5858923D02*
X-4795022Y-6500000D01*
X900000Y-5650000D02*
X900000Y-3941030D01*
X900000Y-3941030D02*
X957263Y-3883767D01*
X2652491Y-2994043D02*
X2652491Y-5117531D01*
X2652491Y-5117531D02*
X1370022Y-6400000D01*
X1370022Y-6400000D02*
X252800Y-6400000D01*
X252800Y-6400000D02*
X-972200Y-7625000D01*
X-972200Y-7625000D02*
X-1400000Y-7625000D01*
X2600000Y10600000D02*
X2600000Y9525000D01*
X2600000Y9525000D02*
X-800000Y6125000D01*
X-800000Y6125000D02*
X-3275000Y6125000D01*
X-3275000Y6125000D02*
X-3291935Y6108065D01*
X-3291935Y6108065D02*
X-3366935Y6108065D01*
X-3366935Y6108065D02*
X-3875000Y5600000D01*
X-3875000Y5600000D02*
X-3875000Y2650000D01*
X-3669676Y2650000D02*
X-3291935Y2272259D01*
X-3875000Y2650000D02*
X-3669676Y2650000D01*
D19*
X-5700000Y500000D02*
X-3988688Y500000D01*
X-3988688Y500000D02*
X-3970835Y482147D01*
D18*
X-3740065Y-1418420D02*
X-996220Y-1418420D01*
X370481Y-479519D02*
X4704519Y-479519D01*
X-996220Y-1418420D02*
X-77800Y-500000D01*
X-77800Y-500000D02*
X350000Y-500000D01*
X350000Y-500000D02*
X370481Y-479519D01*
X4704519Y-479519D02*
X5900000Y-1675000D01*
X5900000Y-1675000D02*
X5900000Y-1875000D01*
D19*
X-2400000Y5400000D02*
X-2400000Y4082931D01*
X-2400000Y4082931D02*
X-1858893Y3541824D01*
D18*
X0Y6350000D02*
X5080000Y11430000D01*
X5080000Y11430000D02*
X5080000Y14605000D01*
X0Y4000000D02*
X0Y6350000D01*
X-5929999Y13755001D02*
X-5080000Y14605000D01*
X-6650000Y13035000D02*
X-5929999Y13755001D01*
X-6650000Y-1529978D02*
X-6650000Y13035000D01*
X-6611099Y-1568879D02*
X-6650000Y-1529978D01*
X-6611099Y-4336101D02*
X-6611099Y-1568879D01*
X-5975000Y-4972200D02*
X-6611099Y-4336101D01*
X-5975000Y-5600000D02*
X-5975000Y-4972200D01*
X-2540000Y14605000D02*
X-2540000Y12260000D01*
X-2540000Y12260000D02*
X-2600000Y12200000D01*
X900000Y-7150000D02*
X1154327Y-7150000D01*
X1154327Y-7150000D02*
X4350000Y-3954327D01*
X4350000Y-3954327D02*
X4350000Y-3800000D01*
X2540000Y14605000D02*
X2540000Y12160000D01*
X2540000Y12160000D02*
X2600000Y12100000D01*
X-9525000Y-2540000D02*
X-7440000Y-2540000D01*
X-7440000Y-2540000D02*
X-7150000Y-2250000D01*
X-3650000Y6925000D02*
X-2425000Y6925000D01*
X-2425000Y6925000D02*
X-2400000Y6900000D01*
X-4200000Y-7625000D02*
X-3595022Y-7625000D01*
X-9525000Y2540000D02*
X-8000000Y1015000D01*
X-8000000Y1015000D02*
X-8000000Y-900000D01*
X-2900000Y-7625000D02*
X-3595022Y-7625000D01*
X-8322919Y5080000D02*
X-7475000Y4232081D01*
X-7200000Y3500000D02*
X-7200000Y500000D01*
X-7475000Y4232081D02*
X-7475000Y3775000D01*
X-7475000Y3775000D02*
X-7200000Y3500000D01*
X-9525000Y5080000D02*
X-8322919Y5080000D01*
X8082200Y-4225000D02*
X7975000Y-4225000D01*
X7975000Y-4225000D02*
X7350000Y-4850000D01*
X7350000Y-4850000D02*
X7350000Y-5050000D01*
X9525000Y-3810000D02*
X8497200Y-3810000D01*
X8497200Y-3810000D02*
X8082200Y-4225000D01*
X8322919Y-1270000D02*
X8322919Y-1379881D01*
X8322919Y-1379881D02*
X7827800Y-1875000D01*
X7827800Y-1875000D02*
X7400000Y-1875000D01*
X9525000Y-1270000D02*
X8322919Y-1270000D01*
X9525000Y1270000D02*
X7230000Y1270000D01*
X7230000Y1270000D02*
X7000000Y1500000D01*
X9525000Y3810000D02*
X7390000Y3810000D01*
X6800000Y4400000D02*
X6800000Y4600000D01*
X7390000Y3810000D02*
X6800000Y4400000D01*
X-5650000Y-2250000D02*
X-5650000Y-1975000D01*
X-5650000Y-1975000D02*
X-4131754Y-456754D01*
X-4131754Y-456754D02*
X-2139685Y-456754D01*
X-2139685Y-456754D02*
X1208894Y2891825D01*
X1208894Y2891825D02*
X1858893Y3541824D01*
X5500000Y1500000D02*
X4064194Y1500000D01*
X4064194Y1500000D02*
X3291935Y2272259D01*
X1975000Y1350000D02*
X2842853Y482147D01*
X2842853Y482147D02*
X3970835Y482147D01*
X1975000Y2325000D02*
X1975000Y1350000D01*
X4250000Y4600000D02*
X1975000Y2325000D01*
X5300000Y4600000D02*
X4250000Y4600000D01*
X3740065Y-1418420D02*
X4390064Y-2068419D01*
X4390064Y-2615064D02*
X5850000Y-4075000D01*
X4390064Y-2068419D02*
X4390064Y-2615064D01*
X5850000Y-4075000D02*
X5850000Y-5050000D01*
M02*
