M48
;DRILL file {KiCad 4.0.4-stable} date 01/14/18 19:09:29
;FORMAT={-:-/ absolute / metric / decimal}
FMAT,2
METRIC,TZ
T1C0.381
T2C0.600
T3C1.000
%
G90
G05
M71
T1
X-8.Y-0.9
X-4.2Y-7.625
X-3.65Y6.925
X4.35Y-3.8
T2
X-3.971Y0.482
X-3.74Y-1.418
X-3.292Y2.272
X-2.652Y-2.994
X-1.859Y3.542
X-0.957Y-3.884
X0.Y4.
X0.957Y-3.884
X1.859Y3.542
X2.652Y-2.994
X3.292Y2.272
X3.74Y-1.418
X3.971Y0.482
T3
X-9.525Y5.08
X-9.525Y2.54
X-9.525Y0.
X-9.525Y-2.54
X-9.525Y-5.08
X-5.08Y14.605
X-5.08Y-14.605
X-2.54Y14.605
X-2.54Y-14.605
X0.Y14.605
X0.Y-14.605
X2.54Y14.605
X2.54Y-14.605
X5.08Y14.605
X5.08Y-14.605
X9.525Y6.35
X9.525Y3.81
X9.525Y1.27
X9.525Y-1.27
X9.525Y-3.81
T0
M30
