G04 #@! TF.FileFunction,Soldermask,Top*
%FSLAX46Y46*%
G04 Gerber Fmt 4.6, Leading zero omitted, Abs format (unit mm)*
G04 Created by KiCad (PCBNEW 4.0.4-stable) date 01/14/18 19:09:26*
%MOMM*%
%LPD*%
G01*
G04 APERTURE LIST*
%ADD10C,0.100000*%
%ADD11C,2.600000*%
%ADD12C,2.100000*%
%ADD13O,2.100000X2.100000*%
%ADD14R,2.100000X2.100000*%
%ADD15R,0.900000X1.300000*%
%ADD16R,1.300000X0.900000*%
%ADD17C,1.700000*%
G04 APERTURE END LIST*
D10*
D11*
X8128000Y-13081000D03*
X8128000Y13081000D03*
X-8128000Y13081000D03*
X-8128000Y-13081000D03*
D12*
X-5080000Y14605000D03*
D13*
X-2540000Y14605000D03*
X0Y14605000D03*
X2540000Y14605000D03*
X5080000Y14605000D03*
D14*
X-9525000Y-5080000D03*
D13*
X-9525000Y-2540000D03*
X-9525000Y0D03*
X-9525000Y2540000D03*
X-9525000Y5080000D03*
D12*
X-5080000Y-14605000D03*
D13*
X-2540000Y-14605000D03*
X0Y-14605000D03*
X2540000Y-14605000D03*
X5080000Y-14605000D03*
D14*
X9525000Y-3810000D03*
D13*
X9525000Y-1270000D03*
X9525000Y1270000D03*
X9525000Y3810000D03*
X9525000Y6350000D03*
D15*
X5900000Y-1875000D03*
X7400000Y-1875000D03*
D16*
X-2400000Y5400000D03*
X-2400000Y6900000D03*
D15*
X-1400000Y-7625000D03*
X-2900000Y-7625000D03*
X-5700000Y500000D03*
X-7200000Y500000D03*
X-4475000Y-5600000D03*
X-5975000Y-5600000D03*
D16*
X-2600000Y10700000D03*
X-2600000Y12200000D03*
X900000Y-5650000D03*
X900000Y-7150000D03*
X2600000Y10600000D03*
X2600000Y12100000D03*
D15*
X5300000Y4600000D03*
X6800000Y4600000D03*
X5500000Y1500000D03*
X7000000Y1500000D03*
X-5650000Y-2250000D03*
X-7150000Y-2250000D03*
D17*
X0Y4000000D03*
X1858893Y3541824D03*
X3291935Y2272259D03*
X3970835Y482147D03*
X3740065Y-1418420D03*
X2652491Y-2994043D03*
X957263Y-3883767D03*
X-957263Y-3883767D03*
X-2652491Y-2994043D03*
X-3740065Y-1418420D03*
X-3970835Y482147D03*
X-3291935Y2272259D03*
X-1858893Y3541824D03*
D15*
X5850000Y-5050000D03*
X7350000Y-5050000D03*
M02*
